<svg xmlns="http://www.w3.org/2000/svg" xmlns:xlink="http://www.w3.org/1999/xlink" width="1920" zoomAndPan="magnify" viewBox="0 0 1440 809.999993" height="1080" preserveAspectRatio="xMidYMid meet" version="1.0"><defs><clipPath id="ddb7155ae8"><path d="M 82 186.246094 L 1308 186.246094 L 1308 582 L 82 582 Z M 82 186.246094 " clip-rule="nonzero"/></clipPath></defs><g clip-path="url(#ddb7155ae8)"><path fill="#000000" d="M 718.222656 369.527344 C 721.925781 377.980469 732.113281 378.460938 739.515625 375.195312 C 747.976562 371.496094 755.472656 364.867188 761.242188 357.757812 C 772.824219 343.492188 780.035156 323.652344 776.332031 305.207031 C 774.746094 297.28125 770.085938 289.164062 762.011719 286.519531 C 752.492188 283.398438 743.074219 288.585938 736.824219 295.648438 C 733.941406 298.914062 731.488281 302.46875 729.328125 306.214844 C 729.421875 303.71875 729.519531 301.269531 729.613281 298.769531 C 730.097656 289.257812 730.625 279.746094 731.25 270.234375 C 731.777344 261.78125 733.894531 251.308594 731.152344 243.191406 C 730.238281 240.40625 726.347656 239.636719 724.761719 242.375 C 720.578125 249.582031 720.628906 259.765625 719.808594 267.882812 C 718.800781 277.777344 717.886719 287.671875 717.167969 297.617188 C 715.726562 317.070312 714.667969 336.527344 713.945312 355.980469 C 713.800781 359.632812 716.542969 361.9375 719.570312 362.5625 C 717.839844 364.148438 717.023438 366.835938 718.222656 369.574219 Z M 739.804688 315.292969 C 742.785156 309.625 746.773438 302.660156 752.828125 299.875 C 758.980469 297.039062 762.203125 302.660156 763.355469 307.992188 C 765.953125 319.953125 761 333.597656 754.464844 343.539062 C 750.859375 348.96875 746.195312 353.820312 740.8125 357.566406 C 738.699219 359.054688 729.808594 365.15625 727.066406 362.707031 C 726.441406 362.128906 725.816406 361.746094 725.195312 361.503906 C 726.300781 360.6875 727.117188 359.488281 727.453125 357.855469 C 730.335938 343.445312 732.835938 328.503906 739.757812 315.34375 Z M 812.574219 264.953125 C 811.128906 268.554688 809.351562 272.0625 807.429688 275.425781 C 805.410156 278.929688 802.625 282.148438 800.796875 285.703125 C 798.296875 290.699219 801.519531 295.648438 806.132812 297.808594 C 809.738281 299.539062 813.773438 299.777344 817.714844 299.539062 C 822.761719 299.203125 827.808594 298.769531 832.855469 298.242188 C 838.191406 297.664062 844.101562 297.617188 849.101562 295.550781 C 851.121094 294.734375 852.65625 293.199219 852.65625 290.890625 C 852.65625 288.824219 851.167969 286.664062 849.101562 286.230469 C 842.082031 284.695312 834.105469 286.039062 826.992188 286.710938 C 823.628906 287.046875 820.261719 287.433594 816.898438 287.671875 C 815.839844 287.722656 814.6875 287.816406 813.582031 287.671875 C 813.820312 287.335938 814.0625 287 814.253906 286.761719 C 815.410156 284.984375 816.515625 283.15625 817.523438 281.332031 C 819.492188 277.777344 821.222656 274.078125 822.761719 270.285156 C 825.933594 262.597656 829.296875 253.519531 827.136719 245.113281 C 825.164062 237.378906 818.050781 231.566406 809.929688 233.152344 C 802.625 234.542969 796.230469 240.980469 792.144531 246.84375 C 789.503906 250.636719 795.703125 255.535156 798.632812 251.839844 C 800.941406 248.90625 803.632812 246.457031 806.949219 244.632812 C 809.304688 243.335938 812.140625 241.992188 814.445312 244.007812 C 816.898438 246.121094 816.996094 249.675781 816.511719 252.605469 C 815.792969 256.832031 814.253906 261.011719 812.667969 264.953125 Z M 811.273438 287.242188 C 810.3125 287.046875 810.792969 286.183594 811.273438 287.242188 Z M 926.433594 316.445312 C 932.25 317.601562 930.519531 326.101562 925.089844 326.34375 C 917.0625 326.632812 908.941406 325.527344 900.863281 325.285156 C 892.789062 325.046875 884.714844 324.855469 876.6875 325.429688 C 874.671875 325.574219 872.988281 323.605469 872.988281 321.730469 C 872.988281 319.570312 874.71875 318.273438 876.6875 318.03125 C 884.90625 317.023438 893.078125 315.964844 901.347656 315.582031 C 909.660156 315.199219 918.214844 314.863281 926.433594 316.496094 Z M 1026.933594 315.199219 C 1026.839844 322.738281 1026.839844 330.328125 1026.839844 337.871094 C 1026.839844 349.113281 1028.617188 361.503906 1026.308594 372.503906 C 1025.0625 378.367188 1015.496094 378.460938 1014.34375 372.503906 C 1012.179688 361.457031 1014.292969 349.0625 1014.871094 337.871094 C 1015.257812 330.664062 1015.6875 323.507812 1016.167969 316.351562 C 1015.640625 316.398438 1015.0625 316.496094 1014.535156 316.542969 C 1008.285156 317.167969 1001.992188 317.839844 995.742188 318.464844 C 990.167969 319.042969 983.535156 320.769531 978.007812 319.183594 C 971.804688 317.457031 969.019531 311.546875 970.507812 305.496094 C 972 299.539062 974.257812 293.679688 976.085938 287.867188 C 980.027344 275.472656 983.148438 262.453125 988.148438 250.445312 C 990.167969 245.546875 996.800781 247.371094 996.03125 252.605469 C 994.445312 263.558594 991.078125 274.464844 988.53125 285.269531 C 987.1875 290.941406 985.890625 296.609375 984.542969 302.277344 C 984.304688 303.382812 984.015625 304.484375 983.773438 305.640625 C 984.398438 305.640625 985.070312 305.640625 985.601562 305.542969 C 996.078125 304.292969 1006.554688 302.996094 1017.035156 301.746094 C 1018.476562 278.5 1020.496094 255.25 1022.371094 232 C 1022.800781 226.859375 1030.828125 226.859375 1030.394531 232 C 1028.617188 254.816406 1027.703125 277.683594 1027.128906 300.59375 C 1029.867188 300.308594 1032.65625 299.96875 1035.394531 299.683594 C 1040.875 299.105469 1046.785156 298.242188 1052.214844 299.394531 C 1057.167969 300.402344 1058.464844 308.472656 1053.707031 310.632812 C 1047.457031 313.46875 1040.007812 313.804688 1033.230469 314.621094 C 1031.117188 314.863281 1029.003906 315.054688 1026.886719 315.292969 Z M 1121.042969 297.472656 C 1117.871094 293.628906 1114.316406 290.125 1109.316406 288.921875 C 1102.347656 287.289062 1095.90625 290.941406 1090.859375 295.359375 C 1080.671875 304.292969 1073.078125 316.785156 1068.125 329.273438 C 1063.609375 340.753906 1062.261719 359.488281 1076.394531 365.058594 C 1090.140625 370.441406 1101 354.636719 1107.921875 345.269531 C 1109.699219 342.867188 1111.335938 340.371094 1112.921875 337.871094 C 1113.976562 348.535156 1117.679688 358.765625 1125.417969 367.269531 C 1127.722656 369.769531 1132 369.574219 1134.355469 367.269531 C 1137 364.628906 1136.472656 361.023438 1134.355469 358.335938 C 1122.101562 342.722656 1123.253906 321.921875 1129.359375 304.148438 C 1131.234375 298.671875 1125.175781 295.597656 1121.042969 297.519531 Z M 1104.507812 328.886719 C 1101.867188 333.164062 1099.03125 337.296875 1095.90625 341.234375 C 1092.925781 345.027344 1089.707031 349.496094 1085.667969 352.1875 C 1082.402344 354.394531 1079.996094 354.011719 1078.410156 350.214844 C 1076.632812 345.894531 1077.546875 340.753906 1078.84375 336.382812 C 1081.679688 326.824219 1087.015625 317.601562 1093.070312 309.769531 C 1096.097656 305.878906 1099.75 301.027344 1104.652344 299.441406 C 1109.507812 297.855469 1113.402344 301.027344 1116.621094 304.34375 C 1113.351562 312.890625 1109.316406 321.105469 1104.507812 328.839844 Z M 1167.761719 310.441406 C 1163.148438 317.648438 1160.214844 326.679688 1162.089844 335.277344 C 1163.773438 343.058594 1168.820312 350.648438 1176.414062 353.773438 C 1186.121094 357.757812 1195.492188 352.28125 1204.769531 349.832031 C 1207.558594 349.113281 1210.296875 350.554688 1211.402344 353.097656 C 1212.605469 355.886719 1211.304688 358.429688 1209.09375 360.113281 C 1199.578125 367.414062 1184.488281 370.871094 1173 366.691406 C 1153.679688 359.679688 1144.546875 337.679688 1149.929688 318.464844 C 1152.667969 308.664062 1158.582031 299.730469 1166.078125 292.910156 C 1170.066406 289.257812 1174.777344 286.136719 1180.355469 288.105469 C 1183.332031 289.164062 1185.785156 291.515625 1188.285156 293.4375 C 1190.542969 295.214844 1192.800781 296.945312 1195.0625 298.722656 C 1199.148438 301.890625 1193.90625 307.609375 1189.820312 305.496094 C 1187.035156 304.054688 1184.246094 302.613281 1181.460938 301.21875 C 1180.449219 300.691406 1179.007812 299.632812 1177.757812 299.394531 C 1177.613281 299.492188 1177.324219 299.632812 1176.988281 300.019531 C 1173.722656 303.429688 1170.40625 306.40625 1167.808594 310.441406 Z M 285.460938 436.921875 C 285.460938 440.332031 282.480469 443.550781 278.972656 443.40625 C 257.25 442.496094 235.8125 441.4375 214.039062 442.589844 C 207.214844 442.925781 207.40625 432.695312 214.039062 432.070312 C 235.425781 430.054688 257.488281 428.707031 278.972656 430.4375 C 282.480469 430.726562 285.460938 433.175781 285.460938 436.921875 Z M 172.273438 455.753906 C 172.511719 458.347656 169.773438 460.941406 167.226562 460.796875 C 161.21875 460.460938 157.515625 455.175781 153.527344 451.191406 C 149.441406 447.105469 145.40625 443.023438 141.367188 438.84375 C 134.6875 431.878906 128.148438 424.769531 121.855469 417.46875 C 117.863281 423.855469 113.875 430.199219 109.789062 436.492188 C 105.03125 443.742188 100.417969 452.773438 93.207031 457.914062 C 88.738281 461.085938 82.488281 455.800781 84.027344 450.902344 C 86.71875 442.542969 93.976562 435.289062 99.070312 428.324219 C 104.023438 421.503906 108.875 414.632812 113.636719 407.667969 C 101.1875 391.863281 90.707031 374.957031 82.730469 356.316406 C 80.757812 351.707031 87.441406 347.621094 89.601562 352.28125 C 97.292969 369 108.058594 384.226562 119.882812 398.398438 C 128.390625 385.8125 136.707031 373.082031 144.585938 360.113281 C 147.519531 355.308594 154.730469 359.535156 152.085938 364.484375 C 144.394531 379.085938 136.320312 393.449219 127.8125 407.621094 C 135.261719 415.929688 143.050781 423.855469 151.027344 431.640625 C 154.96875 435.480469 158.910156 439.226562 162.898438 443.023438 C 166.9375 446.816406 171.648438 450.035156 172.175781 455.847656 Z M 210.769531 393.691406 C 213.269531 392.34375 216.105469 392.34375 218.894531 392.105469 C 221.875 391.816406 224.855469 391.71875 227.832031 391.578125 C 233.792969 391.289062 239.753906 391.046875 245.714844 390.855469 C 251.625 390.617188 257.488281 390.375 263.402344 390.230469 C 268.976562 390.085938 275.847656 389.894531 280.75 392.824219 C 284.453125 395.035156 284.261719 402 279.453125 402.769531 C 273.878906 403.679688 267.824219 402.480469 262.199219 402.335938 C 256.527344 402.144531 250.808594 402.046875 245.089844 401.953125 C 239.320312 401.808594 233.601562 401.710938 227.832031 401.519531 C 224.855469 401.421875 221.875 401.328125 218.894531 401.136719 C 216.105469 400.941406 213.320312 400.992188 210.769531 399.644531 C 208.511719 398.492188 208.558594 394.9375 210.769531 393.738281 Z M 344.722656 336.09375 C 338.90625 335.996094 338.90625 327.0625 344.722656 327.0625 C 354.625 327.109375 364.429688 326.199219 374.1875 324.613281 C 379.183594 323.796875 384.136719 322.835938 389.085938 321.777344 C 393.75 320.722656 399.46875 318.222656 404.128906 320.195312 C 407.6875 321.683594 408.886719 325.382812 406.339844 328.457031 C 402.832031 332.636719 396.246094 332.78125 391.199219 333.546875 C 386.058594 334.316406 380.867188 334.941406 375.675781 335.324219 C 365.390625 336.140625 355.058594 336.191406 344.773438 336.046875 Z M 430.566406 334.652344 C 430.902344 343.394531 431.863281 352.523438 431.285156 361.3125 C 429.027344 362.128906 427.25 364.003906 427.441406 366.980469 C 428.066406 376.398438 436.042969 382.832031 445.222656 383.507812 C 455.367188 384.273438 464.257812 378.269531 471.226562 371.546875 C 485.550781 357.664062 494.777344 337.632812 495.5 317.648438 C 495.882812 307.800781 491.316406 299.105469 480.933594 297.425781 C 470.984375 295.792969 462.671875 301.890625 456.183594 308.761719 C 450.558594 314.667969 445.847656 321.25 442.003906 328.3125 C 441.425781 320.53125 440.851562 312.796875 440.273438 305.015625 C 438.878906 286.039062 437.390625 267.066406 435.851562 248.042969 C 435.417969 242.566406 427.054688 242.421875 427.199219 248.042969 C 427.824219 267.449219 428.546875 286.808594 429.316406 306.167969 C 429.699219 315.679688 430.085938 325.140625 430.46875 334.652344 Z M 459.402344 327.160156 C 462.863281 322.066406 467.140625 316.589844 472.234375 313.132812 C 474.207031 311.789062 477.761719 309.914062 480.117188 311.5 C 482.472656 313.035156 481.65625 317.121094 481.464844 319.570312 C 480.453125 332.15625 475.3125 344.597656 467.382812 354.347656 C 462.671875 360.160156 451.90625 371.257812 443.878906 367.894531 C 444.597656 366.933594 445.128906 365.734375 445.320312 364.292969 C 447.003906 350.984375 451.808594 338.207031 459.355469 327.109375 Z M 535.582031 297.714844 C 540.148438 297.617188 544.667969 297.519531 549.183594 297.328125 C 549.328125 290.941406 549.953125 284.503906 550.914062 278.160156 C 551.683594 273.070312 560.289062 274.320312 559.855469 279.363281 C 559.375 285.128906 559.277344 290.988281 559.613281 296.753906 C 560.960938 296.65625 562.257812 296.609375 563.605469 296.558594 C 568.363281 296.222656 573.121094 295.886719 577.878906 295.550781 C 582.300781 295.261719 588.308594 294.0625 592.203125 296.558594 C 595.757812 298.867188 595.566406 303.523438 592.203125 305.832031 C 588.355469 308.519531 581.820312 307.367188 577.351562 307.222656 C 572.785156 307.03125 568.171875 306.886719 563.605469 306.695312 C 562.59375 306.695312 561.585938 306.695312 560.625 306.648438 C 561.152344 310.25 561.777344 313.804688 562.546875 317.3125 C 563.554688 321.828125 566.054688 327.734375 562.308594 331.53125 C 561.058594 332.828125 559.085938 333.308594 557.355469 332.828125 C 551.875 331.289062 551.347656 324.421875 550.628906 319.617188 C 549.953125 315.246094 549.472656 310.828125 549.28125 306.359375 C 544.714844 306.359375 540.148438 306.359375 535.582031 306.40625 C 529.910156 306.503906 529.960938 297.714844 535.582031 297.617188 Z M 532.316406 354.203125 C 545.003906 353.242188 557.691406 352.234375 570.429688 351.800781 C 576.917969 351.5625 583.359375 351.464844 589.847656 351.320312 C 596 351.226562 602.824219 350.792969 608.207031 354.203125 C 611.234375 356.125 611.714844 361.121094 608.207031 362.898438 C 602.246094 365.925781 595.566406 365.058594 589.125 364.628906 C 582.878906 364.195312 576.675781 363.957031 570.429688 363.8125 C 557.742188 363.425781 545.003906 363.234375 532.316406 363.667969 C 526.164062 363.90625 526.308594 354.636719 532.316406 354.203125 Z M 630.558594 342.289062 C 628.875 336.191406 638.101562 333.742188 639.976562 339.695312 C 643.820312 351.800781 649.0625 363.234375 655.40625 374.089844 C 661.558594 314.476562 665.59375 254.625 673.476562 195.203125 C 673.957031 191.457031 676.359375 188.046875 680.589844 188.09375 C 717.648438 188.765625 754.703125 189.054688 791.808594 189.246094 C 873.515625 189.679688 955.226562 189.488281 1036.980469 189.007812 C 1111.527344 188.574219 1186.074219 187.996094 1260.621094 186.894531 C 1270.039062 186.75 1270.039062 201.398438 1260.621094 201.542969 C 1221.542969 202.070312 1182.421875 202.410156 1143.34375 202.695312 C 1060.867188 203.320312 978.34375 203.609375 895.820312 203.5625 C 826.125 203.5625 756.484375 203.464844 686.789062 202.359375 C 678.765625 265.816406 675.015625 329.800781 665.304688 393.015625 C 664.441406 398.492188 656.894531 398.253906 654.394531 394.457031 C 643.726562 378.414062 635.699219 360.832031 630.558594 342.289062 Z M 1302.339844 413.242188 C 1267.253906 415.5 1232.070312 415.066406 1196.933594 415.546875 C 1162.1875 415.980469 1127.4375 416.601562 1092.734375 417.371094 C 968.921875 420.015625 845.207031 424.050781 721.394531 426.5 C 659.539062 427.699219 597.632812 428.515625 535.777344 428.46875 C 473.535156 428.46875 411.097656 428.277344 348.953125 424 C 343.328125 423.617188 343.1875 415.164062 348.953125 415.164062 C 418.789062 414.96875 488.671875 416.699219 558.507812 416.410156 C 682.320312 415.882812 806.085938 412.28125 929.800781 408.582031 C 991.703125 406.753906 1053.5625 404.929688 1115.46875 403.488281 C 1146.613281 402.769531 1177.757812 402.097656 1208.902344 401.710938 C 1240.046875 401.328125 1271.242188 400.511719 1302.339844 402.433594 C 1309.355469 402.863281 1309.355469 412.855469 1302.339844 413.335938 Z M 766.816406 565.851562 C 751.722656 569.214844 735.910156 569.503906 720.628906 571.90625 C 705.246094 574.355469 689.964844 577.527344 674.871094 581.367188 C 669.101562 582.808594 664.152344 576.566406 667.179688 571.328125 C 684.820312 540.777344 713.035156 517.335938 728.269531 485.296875 C 730.960938 479.628906 737.640625 466.945312 730.335938 462.335938 C 723.847656 458.25 712.359375 461.613281 705.582031 463.488281 C 688.472656 468.289062 673.1875 478.617188 662.566406 492.933594 C 658.816406 497.976562 650.261719 493.171875 654.011719 487.9375 C 664.488281 473.191406 678.765625 461.710938 695.539062 454.886719 C 708.082031 449.796875 728.316406 443.792969 739.902344 453.878906 C 752.828125 465.167969 743.410156 484.71875 736.96875 496.921875 C 723.945312 521.609375 703.902344 541.449219 687.945312 564.171875 C 697.894531 561.914062 707.890625 559.945312 717.984375 558.3125 C 733.269531 555.859375 749.65625 552.546875 765.132812 553.84375 C 771.671875 554.371094 773.882812 564.269531 766.769531 565.851562 Z M 874.335938 561.242188 C 870.539062 559.222656 866.597656 557.253906 863.90625 553.746094 C 860.972656 549.953125 859.578125 544.957031 859 540.296875 C 858.570312 536.648438 858.472656 532.996094 858.714844 529.296875 C 862.558594 521.660156 864.960938 513.398438 864.769531 505.039062 C 864.671875 501.003906 861.835938 499.128906 858.859375 499.179688 C 857.609375 493.847656 855.925781 488.609375 852.175781 484.429688 C 847.082031 478.761719 839.296875 477.609375 832.328125 480.347656 C 818.484375 485.777344 806.757812 499.273438 800.941406 512.675781 C 794.691406 527.136719 793.875 546.015625 802.863281 559.65625 C 807.332031 566.429688 814.832031 569.886719 822.664062 566.910156 C 829.875 564.171875 836.316406 558.023438 841.652344 552.59375 C 843.765625 550.480469 845.785156 548.175781 847.804688 545.773438 C 850.015625 556.917969 858.714844 571.664062 871.882812 570.222656 C 876.257812 569.742188 878.996094 563.644531 874.332031 561.191406 Z M 839.441406 536.40625 C 835.929688 540.921875 831.847656 545.054688 827.519531 548.800781 C 824.925781 551.058594 818.773438 557.398438 815.167969 554.660156 C 811.5625 551.96875 810.3125 544.714844 809.738281 540.632812 C 809.015625 534.964844 809.496094 529.058594 811.035156 523.582031 C 813.964844 513.109375 820.792969 504.03125 829.25 497.351562 C 832.710938 494.613281 838.382812 489.570312 842.996094 492.261719 C 847.035156 494.566406 849.148438 500.476562 850.496094 504.652344 C 850.734375 505.375 851.070312 505.953125 851.457031 506.429688 C 849.246094 512.292969 847.753906 518.488281 847.035156 524.734375 C 844.824219 528.914062 842.179688 532.851562 839.390625 536.40625 Z M 839.441406 536.40625 " fill-opacity="1" fill-rule="nonzero"/></g></svg>