<svg xmlns="http://www.w3.org/2000/svg" xmlns:xlink="http://www.w3.org/1999/xlink" width="1920" zoomAndPan="magnify" viewBox="0 0 1440 809.999993" height="1080" preserveAspectRatio="xMidYMid meet" version="1.0"><defs><clipPath id="f2b98a93f9"><path d="M 432 230 L 634 230 L 634 445.019531 L 432 445.019531 Z M 432 230 " clip-rule="nonzero"/></clipPath><clipPath id="9932463f38"><path d="M 357.925781 229.769531 L 708.175781 229.769531 L 708.175781 580 L 357.925781 580 Z M 357.925781 229.769531 " clip-rule="nonzero"/></clipPath><clipPath id="ae467a2894"><path d="M 731.609375 229.769531 L 1081.859375 229.769531 L 1081.859375 580 L 731.609375 580 Z M 731.609375 229.769531 " clip-rule="nonzero"/></clipPath><clipPath id="b59adc5c01"><path d="M 806 229.992188 L 1008 229.992188 L 1008 445 L 806 445 Z M 806 229.992188 " clip-rule="nonzero"/></clipPath></defs><g clip-path="url(#f2b98a93f9)"><path fill="#454ddd" d="M 533 445.074219 C 508.902344 445.074219 484.652344 409.578125 460.9375 339.570312 C 443.675781 288.628906 432.785156 237.011719 432.6875 236.492188 C 432.195312 234.148438 433.695312 231.847656 436.039062 231.355469 C 438.398438 230.878906 440.6875 232.367188 441.175781 234.710938 C 452.921875 290.804688 492.316406 436.382812 533 436.382812 C 573.683594 436.382812 613.074219 290.03125 624.820312 233.644531 C 625.3125 231.296875 627.601562 229.78125 629.957031 230.273438 C 632.300781 230.765625 633.804688 233.066406 633.328125 235.414062 C 633.214844 235.933594 622.339844 287.8125 605.078125 339.007812 C 581.359375 409.382812 557.109375 445.058594 533 445.058594 Z M 533 445.074219 " fill-opacity="1" fill-rule="nonzero"/></g><g clip-path="url(#9932463f38)"><path fill="#c1c1c1" d="M 708.175781 404.894531 C 708.175781 406.132812 707.164062 407.144531 705.921875 407.144531 L 685.585938 407.144531 L 685.585938 409.421875 C 685.585938 410.34375 684.816406 411.109375 683.894531 411.109375 C 682.972656 411.109375 682.207031 410.34375 682.207031 409.421875 L 682.207031 407.144531 L 647.832031 407.144531 L 647.832031 409.421875 C 647.832031 410.34375 647.066406 411.109375 646.144531 411.109375 C 645.222656 411.109375 644.457031 410.34375 644.457031 409.421875 L 644.457031 407.144531 L 610.0625 407.144531 L 610.0625 409.421875 C 610.0625 410.34375 609.296875 411.109375 608.371094 411.109375 C 607.449219 411.109375 606.683594 410.34375 606.683594 409.421875 L 606.683594 407.144531 L 572.332031 407.144531 L 572.332031 409.398438 C 572.332031 410.320312 571.566406 411.085938 570.644531 411.085938 C 569.71875 411.085938 568.953125 410.320312 568.953125 409.398438 L 568.953125 407.144531 L 535.324219 407.144531 L 535.324219 440.953125 L 537.578125 440.953125 C 538.5 440.953125 539.265625 441.71875 539.265625 442.644531 C 539.265625 443.566406 538.5 444.332031 537.578125 444.332031 L 535.324219 444.332031 L 535.324219 478.726562 L 537.578125 478.726562 C 538.5 478.726562 539.265625 479.492188 539.265625 480.417969 C 539.265625 481.339844 538.5 482.105469 537.578125 482.105469 L 535.324219 482.105469 L 535.324219 516.476562 L 537.578125 516.476562 C 538.5 516.476562 539.265625 517.242188 539.265625 518.167969 C 539.265625 519.089844 538.5 519.855469 537.578125 519.855469 L 535.324219 519.855469 L 535.324219 554.25 L 537.578125 554.25 C 538.5 554.25 539.265625 555.015625 539.265625 555.941406 C 539.265625 556.863281 538.5 557.628906 537.578125 557.628906 L 535.324219 557.628906 L 535.324219 577.742188 C 535.324219 578.980469 534.3125 579.996094 533.074219 579.996094 C 531.835938 579.996094 530.820312 578.980469 530.820312 577.742188 L 530.820312 557.628906 L 528.570312 557.628906 C 527.644531 557.628906 526.878906 556.863281 526.878906 555.941406 C 526.878906 555.015625 527.644531 554.25 528.570312 554.25 L 530.820312 554.25 L 530.820312 519.855469 L 528.570312 519.855469 C 527.644531 519.855469 526.878906 519.089844 526.878906 518.167969 C 526.878906 517.242188 527.644531 516.476562 528.570312 516.476562 L 530.820312 516.476562 L 530.820312 482.105469 L 528.570312 482.105469 C 527.644531 482.105469 526.878906 481.339844 526.878906 480.417969 C 526.878906 479.492188 527.644531 478.726562 528.570312 478.726562 L 530.820312 478.726562 L 530.820312 444.332031 L 528.570312 444.332031 C 527.644531 444.332031 526.878906 443.566406 526.878906 442.644531 C 526.878906 441.71875 527.644531 440.953125 528.570312 440.953125 L 530.820312 440.953125 L 530.820312 407.144531 L 496.945312 407.144531 L 496.945312 409.421875 C 496.945312 410.34375 496.179688 411.109375 495.253906 411.109375 C 494.332031 411.109375 493.566406 410.34375 493.566406 409.421875 L 493.566406 407.144531 L 459.171875 407.144531 L 459.171875 409.421875 C 459.171875 410.34375 458.40625 411.109375 457.484375 411.109375 C 456.558594 411.109375 455.792969 410.34375 455.792969 409.421875 L 455.792969 407.144531 L 421.421875 407.144531 L 421.421875 409.421875 C 421.421875 410.34375 420.65625 411.109375 419.730469 411.109375 C 418.808594 411.109375 418.042969 410.34375 418.042969 409.421875 L 418.042969 407.144531 L 383.648438 407.144531 L 383.648438 409.421875 C 383.648438 410.34375 382.882812 411.109375 381.960938 411.109375 C 381.035156 411.109375 380.269531 410.34375 380.269531 409.421875 L 380.269531 407.144531 L 360.179688 407.144531 C 358.9375 407.144531 357.925781 406.132812 357.925781 404.894531 C 357.925781 403.652344 358.9375 402.640625 360.179688 402.640625 L 380.226562 402.640625 L 380.226562 400.410156 C 380.226562 399.488281 380.992188 398.722656 381.914062 398.722656 C 382.835938 398.722656 383.601562 399.488281 383.601562 400.410156 L 383.601562 402.640625 L 417.996094 402.640625 L 417.996094 400.410156 C 417.996094 399.488281 418.761719 398.722656 419.6875 398.722656 C 420.609375 398.722656 421.375 399.488281 421.375 400.410156 L 421.375 402.640625 L 455.75 402.640625 L 455.75 400.410156 C 455.75 399.488281 456.515625 398.722656 457.4375 398.722656 C 458.359375 398.722656 459.125 399.488281 459.125 400.410156 L 459.125 402.640625 L 493.519531 402.640625 L 493.519531 400.410156 C 493.519531 399.488281 494.285156 398.722656 495.210938 398.722656 C 496.132812 398.722656 496.898438 399.488281 496.898438 400.410156 L 496.898438 402.640625 L 530.777344 402.640625 L 530.777344 368.109375 L 528.523438 368.109375 C 527.601562 368.109375 526.835938 367.34375 526.835938 366.421875 C 526.835938 365.5 527.601562 364.734375 528.523438 364.734375 L 530.777344 364.734375 L 530.777344 330.339844 L 528.523438 330.339844 C 527.601562 330.339844 526.835938 329.574219 526.835938 328.648438 C 526.835938 327.726562 527.601562 326.960938 528.523438 326.960938 L 530.777344 326.960938 L 530.777344 292.585938 L 528.523438 292.585938 C 527.601562 292.585938 526.835938 291.820312 526.835938 290.898438 C 526.835938 289.976562 527.601562 289.210938 528.523438 289.210938 L 530.777344 289.210938 L 530.777344 254.816406 L 528.523438 254.816406 C 527.601562 254.816406 526.835938 254.050781 526.835938 253.125 C 526.835938 252.203125 527.601562 251.4375 528.523438 251.4375 L 530.777344 251.4375 L 530.777344 232.019531 C 530.777344 230.78125 531.789062 229.769531 533.027344 229.769531 C 534.265625 229.769531 535.28125 230.78125 535.28125 232.019531 L 535.28125 251.414062 L 537.53125 251.414062 C 538.457031 251.414062 539.222656 252.179688 539.222656 253.101562 C 539.222656 254.027344 538.457031 254.792969 537.53125 254.792969 L 535.28125 254.792969 L 535.28125 289.1875 L 537.53125 289.1875 C 538.457031 289.1875 539.222656 289.953125 539.222656 290.875 C 539.222656 291.800781 538.457031 292.566406 537.53125 292.566406 L 535.28125 292.566406 L 535.28125 326.9375 L 537.53125 326.9375 C 538.457031 326.9375 539.222656 327.703125 539.222656 328.625 C 539.222656 329.550781 538.457031 330.316406 537.53125 330.316406 L 535.28125 330.316406 L 535.28125 364.710938 L 537.53125 364.710938 C 538.457031 364.710938 539.222656 365.476562 539.222656 366.398438 C 539.222656 367.324219 538.457031 368.089844 537.53125 368.089844 L 535.28125 368.089844 L 535.28125 402.617188 L 568.910156 402.617188 L 568.910156 400.367188 C 568.910156 399.441406 569.675781 398.675781 570.597656 398.675781 C 571.523438 398.675781 572.289062 399.441406 572.289062 400.367188 L 572.289062 402.617188 L 606.636719 402.617188 L 606.636719 400.386719 C 606.636719 399.464844 607.402344 398.699219 608.328125 398.699219 C 609.25 398.699219 610.015625 399.464844 610.015625 400.386719 L 610.015625 402.617188 L 644.410156 402.617188 L 644.410156 400.386719 C 644.410156 399.464844 645.175781 398.699219 646.097656 398.699219 C 647.023438 398.699219 647.789062 399.464844 647.789062 400.386719 L 647.789062 402.617188 L 682.160156 402.617188 L 682.160156 400.386719 C 682.160156 399.464844 682.925781 398.699219 683.851562 398.699219 C 684.773438 398.699219 685.539062 399.464844 685.539062 400.386719 L 685.539062 402.617188 L 705.878906 402.617188 C 707.117188 402.617188 708.128906 403.632812 708.128906 404.871094 Z M 708.175781 404.894531 " fill-opacity="1" fill-rule="nonzero"/></g><g clip-path="url(#ae467a2894)"><path fill="#c1c1c1" d="M 1081.859375 404.894531 C 1081.859375 406.132812 1080.847656 407.144531 1079.605469 407.144531 L 1059.269531 407.144531 L 1059.269531 409.421875 C 1059.269531 410.34375 1058.503906 411.109375 1057.578125 411.109375 C 1056.65625 411.109375 1055.890625 410.34375 1055.890625 409.421875 L 1055.890625 407.144531 L 1021.519531 407.144531 L 1021.519531 409.421875 C 1021.519531 410.34375 1020.75 411.109375 1019.828125 411.109375 C 1018.90625 411.109375 1018.140625 410.34375 1018.140625 409.421875 L 1018.140625 407.144531 L 983.746094 407.144531 L 983.746094 409.421875 C 983.746094 410.34375 982.980469 411.109375 982.054688 411.109375 C 981.132812 411.109375 980.367188 410.34375 980.367188 409.421875 L 980.367188 407.144531 L 946.015625 407.144531 L 946.015625 409.398438 C 946.015625 410.320312 945.25 411.085938 944.328125 411.085938 C 943.402344 411.085938 942.636719 410.320312 942.636719 409.398438 L 942.636719 407.144531 L 909.011719 407.144531 L 909.011719 440.953125 L 911.261719 440.953125 C 912.1875 440.953125 912.953125 441.71875 912.953125 442.644531 C 912.953125 443.566406 912.1875 444.332031 911.261719 444.332031 L 909.011719 444.332031 L 909.011719 478.726562 L 911.261719 478.726562 C 912.1875 478.726562 912.953125 479.492188 912.953125 480.417969 C 912.953125 481.339844 912.1875 482.105469 911.261719 482.105469 L 909.011719 482.105469 L 909.011719 516.476562 L 911.261719 516.476562 C 912.1875 516.476562 912.953125 517.242188 912.953125 518.167969 C 912.953125 519.089844 912.1875 519.855469 911.261719 519.855469 L 909.011719 519.855469 L 909.011719 554.25 L 911.261719 554.25 C 912.1875 554.25 912.953125 555.015625 912.953125 555.941406 C 912.953125 556.863281 912.1875 557.628906 911.261719 557.628906 L 909.011719 557.628906 L 909.011719 577.742188 C 909.011719 578.980469 907.996094 579.996094 906.757812 579.996094 C 905.519531 579.996094 904.503906 578.980469 904.503906 577.742188 L 904.503906 557.628906 L 902.253906 557.628906 C 901.328125 557.628906 900.5625 556.863281 900.5625 555.941406 C 900.5625 555.015625 901.328125 554.25 902.253906 554.25 L 904.503906 554.25 L 904.503906 519.855469 L 902.253906 519.855469 C 901.328125 519.855469 900.5625 519.089844 900.5625 518.167969 C 900.5625 517.242188 901.328125 516.476562 902.253906 516.476562 L 904.503906 516.476562 L 904.503906 482.105469 L 902.253906 482.105469 C 901.328125 482.105469 900.5625 481.339844 900.5625 480.417969 C 900.5625 479.492188 901.328125 478.726562 902.253906 478.726562 L 904.503906 478.726562 L 904.503906 444.332031 L 902.253906 444.332031 C 901.328125 444.332031 900.5625 443.566406 900.5625 442.644531 C 900.5625 441.71875 901.328125 440.953125 902.253906 440.953125 L 904.503906 440.953125 L 904.503906 407.144531 L 870.628906 407.144531 L 870.628906 409.421875 C 870.628906 410.34375 869.863281 411.109375 868.9375 411.109375 C 868.015625 411.109375 867.25 410.34375 867.25 409.421875 L 867.25 407.144531 L 832.855469 407.144531 L 832.855469 409.421875 C 832.855469 410.34375 832.089844 411.109375 831.167969 411.109375 C 830.242188 411.109375 829.476562 410.34375 829.476562 409.421875 L 829.476562 407.144531 L 795.105469 407.144531 L 795.105469 409.421875 C 795.105469 410.34375 794.339844 411.109375 793.417969 411.109375 C 792.492188 411.109375 791.726562 410.34375 791.726562 409.421875 L 791.726562 407.144531 L 757.332031 407.144531 L 757.332031 409.421875 C 757.332031 410.34375 756.566406 411.109375 755.644531 411.109375 C 754.71875 411.109375 753.953125 410.34375 753.953125 409.421875 L 753.953125 407.144531 L 733.863281 407.144531 C 732.625 407.144531 731.609375 406.132812 731.609375 404.894531 C 731.609375 403.652344 732.625 402.640625 733.863281 402.640625 L 753.910156 402.640625 L 753.910156 400.410156 C 753.910156 399.488281 754.675781 398.722656 755.597656 398.722656 C 756.523438 398.722656 757.289062 399.488281 757.289062 400.410156 L 757.289062 402.640625 L 791.683594 402.640625 L 791.683594 400.410156 C 791.683594 399.488281 792.449219 398.722656 793.371094 398.722656 C 794.292969 398.722656 795.058594 399.488281 795.058594 400.410156 L 795.058594 402.640625 L 829.433594 402.640625 L 829.433594 400.410156 C 829.433594 399.488281 830.199219 398.722656 831.121094 398.722656 C 832.042969 398.722656 832.8125 399.488281 832.8125 400.410156 L 832.8125 402.640625 L 867.203125 402.640625 L 867.203125 400.410156 C 867.203125 399.488281 867.972656 398.722656 868.894531 398.722656 C 869.816406 398.722656 870.582031 399.488281 870.582031 400.410156 L 870.582031 402.640625 L 904.460938 402.640625 L 904.460938 368.109375 L 902.207031 368.109375 C 901.285156 368.109375 900.519531 367.34375 900.519531 366.421875 C 900.519531 365.5 901.285156 364.734375 902.207031 364.734375 L 904.460938 364.734375 L 904.460938 330.339844 L 902.207031 330.339844 C 901.285156 330.339844 900.519531 329.574219 900.519531 328.648438 C 900.519531 327.726562 901.285156 326.960938 902.207031 326.960938 L 904.460938 326.960938 L 904.460938 292.585938 L 902.207031 292.585938 C 901.285156 292.585938 900.519531 291.820312 900.519531 290.898438 C 900.519531 289.976562 901.285156 289.210938 902.207031 289.210938 L 904.460938 289.210938 L 904.460938 254.816406 L 902.207031 254.816406 C 901.285156 254.816406 900.519531 254.050781 900.519531 253.125 C 900.519531 252.203125 901.285156 251.4375 902.207031 251.4375 L 904.460938 251.4375 L 904.460938 232.019531 C 904.460938 230.78125 905.472656 229.769531 906.710938 229.769531 C 907.949219 229.769531 908.964844 230.78125 908.964844 232.019531 L 908.964844 251.414062 L 911.21875 251.414062 C 912.140625 251.414062 912.90625 252.179688 912.90625 253.101562 C 912.90625 254.027344 912.140625 254.792969 911.21875 254.792969 L 908.964844 254.792969 L 908.964844 289.1875 L 911.21875 289.1875 C 912.140625 289.1875 912.90625 289.953125 912.90625 290.875 C 912.90625 291.800781 912.140625 292.566406 911.21875 292.566406 L 908.964844 292.566406 L 908.964844 326.9375 L 911.21875 326.9375 C 912.140625 326.9375 912.90625 327.703125 912.90625 328.625 C 912.90625 329.550781 912.140625 330.316406 911.21875 330.316406 L 908.964844 330.316406 L 908.964844 364.710938 L 911.21875 364.710938 C 912.140625 364.710938 912.90625 365.476562 912.90625 366.398438 C 912.90625 367.324219 912.140625 368.089844 911.21875 368.089844 L 908.964844 368.089844 L 908.964844 402.617188 L 942.59375 402.617188 L 942.59375 400.367188 C 942.59375 399.441406 943.359375 398.675781 944.28125 398.675781 C 945.207031 398.675781 945.972656 399.441406 945.972656 400.367188 L 945.972656 402.617188 L 980.320312 402.617188 L 980.320312 400.386719 C 980.320312 399.464844 981.085938 398.699219 982.011719 398.699219 C 982.933594 398.699219 983.699219 399.464844 983.699219 400.386719 L 983.699219 402.617188 L 1018.09375 402.617188 L 1018.09375 400.386719 C 1018.09375 399.464844 1018.859375 398.699219 1019.785156 398.699219 C 1020.707031 398.699219 1021.472656 399.464844 1021.472656 400.386719 L 1021.472656 402.617188 L 1055.84375 402.617188 L 1055.84375 400.386719 C 1055.84375 399.464844 1056.609375 398.699219 1057.535156 398.699219 C 1058.457031 398.699219 1059.222656 399.464844 1059.222656 400.386719 L 1059.222656 402.617188 L 1079.5625 402.617188 C 1080.800781 402.617188 1081.816406 403.632812 1081.816406 404.871094 Z M 1081.859375 404.894531 " fill-opacity="1" fill-rule="nonzero"/></g><g clip-path="url(#b59adc5c01)"><path fill="#454ddd" d="M 907 229.933594 C 931.097656 229.933594 955.347656 265.429688 979.0625 335.4375 C 996.324219 386.378906 1007.214844 437.996094 1007.3125 438.515625 C 1007.804688 440.859375 1006.300781 443.164062 1003.957031 443.652344 C 1001.601562 444.132812 999.3125 442.644531 998.824219 440.296875 C 987.078125 384.203125 947.683594 238.625 907 238.625 C 866.316406 238.625 826.921875 384.976562 815.175781 441.363281 C 814.6875 443.710938 812.398438 445.226562 810.042969 444.734375 C 807.699219 444.242188 806.195312 441.941406 806.671875 439.597656 C 806.785156 439.078125 817.660156 387.195312 834.921875 336 C 858.640625 265.625 882.890625 229.949219 907 229.949219 Z M 907 229.933594 " fill-opacity="1" fill-rule="nonzero"/></g></svg>