<svg xmlns="http://www.w3.org/2000/svg" xmlns:xlink="http://www.w3.org/1999/xlink" width="1920" zoomAndPan="magnify" viewBox="0 0 1440 809.999993" height="1080" preserveAspectRatio="xMidYMid meet" version="1.0"><defs><g/><clipPath id="0237a178b4"><path d="M 315.515625 81 L 938.765625 81 L 938.765625 704.25 L 315.515625 704.25 Z M 315.515625 81 " clip-rule="nonzero"/></clipPath><clipPath id="a197554852"><path d="M 695.074219 184.226562 L 891 184.226562 L 891 392.726562 L 695.074219 392.726562 Z M 695.074219 184.226562 " clip-rule="nonzero"/></clipPath></defs><g clip-path="url(#0237a178b4)"><path fill="#c1c1c1" d="M 938.765625 392.625 C 938.765625 394.828125 936.960938 396.632812 934.757812 396.632812 L 898.5625 396.632812 L 898.5625 400.679688 C 898.5625 402.324219 897.199219 403.6875 895.558594 403.6875 C 893.914062 403.6875 892.550781 402.324219 892.550781 400.679688 L 892.550781 396.632812 L 831.390625 396.632812 L 831.390625 400.679688 C 831.390625 402.324219 830.027344 403.6875 828.382812 403.6875 C 826.738281 403.6875 825.378906 402.324219 825.378906 400.679688 L 825.378906 396.632812 L 764.175781 396.632812 L 764.175781 400.679688 C 764.175781 402.324219 762.8125 403.6875 761.167969 403.6875 C 759.523438 403.6875 758.164062 402.324219 758.164062 400.679688 L 758.164062 396.632812 L 697.039062 396.632812 L 697.039062 400.640625 C 697.039062 402.285156 695.675781 403.648438 694.035156 403.648438 C 692.390625 403.648438 691.027344 402.285156 691.027344 400.640625 L 691.027344 396.632812 L 631.1875 396.632812 L 631.1875 456.792969 L 635.195312 456.792969 C 636.839844 456.792969 638.203125 458.15625 638.203125 459.800781 C 638.203125 461.441406 636.839844 462.804688 635.195312 462.804688 L 631.1875 462.804688 L 631.1875 524.007812 L 635.195312 524.007812 C 636.839844 524.007812 638.203125 525.371094 638.203125 527.015625 C 638.203125 528.65625 636.839844 530.019531 635.195312 530.019531 L 631.1875 530.019531 L 631.1875 591.183594 L 635.195312 591.183594 C 636.839844 591.183594 638.203125 592.546875 638.203125 594.1875 C 638.203125 595.832031 636.839844 597.195312 635.195312 597.195312 L 631.1875 597.195312 L 631.1875 658.398438 L 635.195312 658.398438 C 636.839844 658.398438 638.203125 659.761719 638.203125 661.402344 C 638.203125 663.046875 636.839844 664.410156 635.195312 664.410156 L 631.1875 664.410156 L 631.1875 700.203125 C 631.1875 702.40625 629.382812 704.210938 627.179688 704.210938 C 624.976562 704.210938 623.171875 702.40625 623.171875 700.203125 L 623.171875 664.410156 L 619.164062 664.410156 C 617.519531 664.410156 616.15625 663.046875 616.15625 661.402344 C 616.15625 659.761719 617.519531 658.398438 619.164062 658.398438 L 623.171875 658.398438 L 623.171875 597.195312 L 619.164062 597.195312 C 617.519531 597.195312 616.15625 595.832031 616.15625 594.1875 C 616.15625 592.546875 617.519531 591.183594 619.164062 591.183594 L 623.171875 591.183594 L 623.171875 530.019531 L 619.164062 530.019531 C 617.519531 530.019531 616.15625 528.65625 616.15625 527.015625 C 616.15625 525.371094 617.519531 524.007812 619.164062 524.007812 L 623.171875 524.007812 L 623.171875 462.804688 L 619.164062 462.804688 C 617.519531 462.804688 616.15625 461.441406 616.15625 459.800781 C 616.15625 458.15625 617.519531 456.792969 619.164062 456.792969 L 623.171875 456.792969 L 623.171875 396.632812 L 562.890625 396.632812 L 562.890625 400.679688 C 562.890625 402.324219 561.527344 403.6875 559.882812 403.6875 C 558.242188 403.6875 556.878906 402.324219 556.878906 400.679688 L 556.878906 396.632812 L 495.675781 396.632812 L 495.675781 400.679688 C 495.675781 402.324219 494.3125 403.6875 492.667969 403.6875 C 491.027344 403.6875 489.664062 402.324219 489.664062 400.679688 L 489.664062 396.632812 L 428.5 396.632812 L 428.5 400.679688 C 428.5 402.324219 427.136719 403.6875 425.496094 403.6875 C 423.851562 403.6875 422.488281 402.324219 422.488281 400.679688 L 422.488281 396.632812 L 361.285156 396.632812 L 361.285156 400.679688 C 361.285156 402.324219 359.921875 403.6875 358.28125 403.6875 C 356.636719 403.6875 355.273438 402.324219 355.273438 400.679688 L 355.273438 396.632812 L 319.523438 396.632812 C 317.316406 396.632812 315.515625 394.828125 315.515625 392.625 C 315.515625 390.421875 317.316406 388.617188 319.523438 388.617188 L 355.195312 388.617188 L 355.195312 384.648438 C 355.195312 383.003906 356.558594 381.644531 358.199219 381.644531 C 359.84375 381.644531 361.207031 383.003906 361.207031 384.648438 L 361.207031 388.617188 L 422.410156 388.617188 L 422.410156 384.648438 C 422.410156 383.003906 423.773438 381.644531 425.414062 381.644531 C 427.058594 381.644531 428.421875 383.003906 428.421875 384.648438 L 428.421875 388.617188 L 489.582031 388.617188 L 489.582031 384.648438 C 489.582031 383.003906 490.945312 381.644531 492.589844 381.644531 C 494.234375 381.644531 495.59375 383.003906 495.59375 384.648438 L 495.59375 388.617188 L 556.796875 388.617188 L 556.796875 384.648438 C 556.796875 383.003906 558.160156 381.644531 559.804688 381.644531 C 561.449219 381.644531 562.808594 383.003906 562.808594 384.648438 L 562.808594 388.617188 L 623.089844 388.617188 L 623.089844 327.171875 L 619.082031 327.171875 C 617.441406 327.171875 616.078125 325.8125 616.078125 324.167969 C 616.078125 322.523438 617.441406 321.160156 619.082031 321.160156 L 623.089844 321.160156 L 623.089844 259.960938 L 619.082031 259.960938 C 617.441406 259.960938 616.078125 258.597656 616.078125 256.953125 C 616.078125 255.308594 617.441406 253.945312 619.082031 253.945312 L 623.089844 253.945312 L 623.089844 192.785156 L 619.082031 192.785156 C 617.441406 192.785156 616.078125 191.421875 616.078125 189.777344 C 616.078125 188.136719 617.441406 186.773438 619.082031 186.773438 L 623.089844 186.773438 L 623.089844 125.570312 L 619.082031 125.570312 C 617.441406 125.570312 616.078125 124.207031 616.078125 122.5625 C 616.078125 120.921875 617.441406 119.558594 619.082031 119.558594 L 623.089844 119.558594 L 623.089844 85.007812 C 623.089844 82.804688 624.894531 81 627.097656 81 C 629.304688 81 631.105469 82.804688 631.105469 85.007812 L 631.105469 119.515625 L 635.117188 119.515625 C 636.757812 119.515625 638.121094 120.878906 638.121094 122.523438 C 638.121094 124.167969 636.757812 125.53125 635.117188 125.53125 L 631.105469 125.53125 L 631.105469 186.730469 L 635.117188 186.730469 C 636.757812 186.730469 638.121094 188.09375 638.121094 189.738281 C 638.121094 191.382812 636.757812 192.742188 635.117188 192.742188 L 631.105469 192.742188 L 631.105469 253.90625 L 635.117188 253.90625 C 636.757812 253.90625 638.121094 255.269531 638.121094 256.914062 C 638.121094 258.554688 636.757812 259.917969 635.117188 259.917969 L 631.105469 259.917969 L 631.105469 321.121094 L 635.117188 321.121094 C 636.757812 321.121094 638.121094 322.484375 638.121094 324.128906 C 638.121094 325.769531 636.757812 327.132812 635.117188 327.132812 L 631.105469 327.132812 L 631.105469 388.578125 L 690.949219 388.578125 L 690.949219 384.570312 C 690.949219 382.925781 692.308594 381.5625 693.953125 381.5625 C 695.597656 381.5625 696.960938 382.925781 696.960938 384.570312 L 696.960938 388.578125 L 758.082031 388.578125 L 758.082031 384.609375 C 758.082031 382.964844 759.445312 381.601562 761.089844 381.601562 C 762.730469 381.601562 764.09375 382.964844 764.09375 384.609375 L 764.09375 388.578125 L 825.296875 388.578125 L 825.296875 384.609375 C 825.296875 382.964844 826.660156 381.601562 828.304688 381.601562 C 829.945312 381.601562 831.308594 382.964844 831.308594 384.609375 L 831.308594 388.578125 L 892.472656 388.578125 L 892.472656 384.609375 C 892.472656 382.964844 893.835938 381.601562 895.476562 381.601562 C 897.121094 381.601562 898.484375 382.964844 898.484375 384.609375 L 898.484375 388.578125 L 934.675781 388.578125 C 936.878906 388.578125 938.683594 390.378906 938.683594 392.585938 Z M 938.765625 392.625 " fill-opacity="1" fill-rule="nonzero"/></g><g clip-path="url(#a197554852)"><path fill="#454ddd" d="M 793.324219 184.171875 C 816.703125 184.171875 840.234375 218.554688 863.25 286.367188 C 880 335.710938 890.566406 385.707031 890.664062 386.210938 C 891.140625 388.480469 889.683594 390.710938 887.410156 391.1875 C 885.121094 391.648438 882.902344 390.207031 882.425781 387.9375 C 871.027344 333.601562 832.800781 192.589844 793.324219 192.589844 C 753.84375 192.589844 715.617188 334.351562 704.222656 388.972656 C 703.746094 391.242188 701.523438 392.710938 699.238281 392.234375 C 696.960938 391.757812 695.503906 389.527344 695.96875 387.257812 C 696.078125 386.753906 706.632812 336.5 723.382812 286.910156 C 746.394531 218.742188 769.925781 184.183594 793.324219 184.183594 Z M 793.324219 184.171875 " fill-opacity="1" fill-rule="nonzero"/></g><g fill="#545454" fill-opacity="1"><g transform="translate(638.528826, 421.307807)"><g><path d="M 8.921875 0 L 8.046875 -2.875 L 3.640625 -2.875 L 2.765625 0 L 0 0 L 4.265625 -12.125 L 7.390625 -12.125 L 11.671875 0 Z M 7.421875 -5.03125 C 6.617188 -7.632812 6.164062 -9.101562 6.0625 -9.4375 C 5.957031 -9.78125 5.882812 -10.050781 5.84375 -10.25 C 5.65625 -9.550781 5.132812 -7.8125 4.28125 -5.03125 Z M 7.421875 -5.03125 "/></g></g></g><g fill="#545454" fill-opacity="1"><g transform="translate(650.195848, 421.307807)"><g/></g></g><g fill="#545454" fill-opacity="1"><g transform="translate(654.588525, 421.307807)"><g><path d="M 4.25 0.171875 C 3.164062 0.171875 2.3125 -0.25 1.6875 -1.09375 C 1.070312 -1.9375 0.765625 -3.109375 0.765625 -4.609375 C 0.765625 -6.117188 1.078125 -7.296875 1.703125 -8.140625 C 2.335938 -8.984375 3.207031 -9.40625 4.3125 -9.40625 C 5.476562 -9.40625 6.363281 -8.957031 6.96875 -8.0625 L 7.0625 -8.0625 C 6.925781 -8.75 6.859375 -9.363281 6.859375 -9.90625 L 6.859375 -12.859375 L 9.390625 -12.859375 L 9.390625 0 L 7.46875 0 L 6.96875 -1.203125 L 6.859375 -1.203125 C 6.285156 -0.285156 5.414062 0.171875 4.25 0.171875 Z M 5.125 -1.84375 C 5.769531 -1.84375 6.242188 -2.03125 6.546875 -2.40625 C 6.847656 -2.78125 7.015625 -3.414062 7.046875 -4.3125 L 7.046875 -4.578125 C 7.046875 -5.578125 6.890625 -6.289062 6.578125 -6.71875 C 6.273438 -7.144531 5.78125 -7.359375 5.09375 -7.359375 C 4.53125 -7.359375 4.09375 -7.117188 3.78125 -6.640625 C 3.46875 -6.171875 3.3125 -5.476562 3.3125 -4.5625 C 3.3125 -3.65625 3.46875 -2.972656 3.78125 -2.515625 C 4.09375 -2.066406 4.539062 -1.84375 5.125 -1.84375 Z M 5.125 -1.84375 "/></g></g></g><g fill="#545454" fill-opacity="1"><g transform="translate(665.289483, 421.307807)"><g><path d="M 1.21875 -11.625 C 1.21875 -12.445312 1.675781 -12.859375 2.59375 -12.859375 C 3.5 -12.859375 3.953125 -12.445312 3.953125 -11.625 C 3.953125 -11.226562 3.835938 -10.921875 3.609375 -10.703125 C 3.378906 -10.492188 3.039062 -10.390625 2.59375 -10.390625 C 1.675781 -10.390625 1.21875 -10.800781 1.21875 -11.625 Z M 3.84375 0 L 1.328125 0 L 1.328125 -9.234375 L 3.84375 -9.234375 Z M 3.84375 0 "/></g></g></g><g fill="#545454" fill-opacity="1"><g transform="translate(670.450058, 421.307807)"><g><path d="M 7.765625 -2.75 C 7.765625 -1.800781 7.4375 -1.078125 6.78125 -0.578125 C 6.125 -0.078125 5.140625 0.171875 3.828125 0.171875 C 3.148438 0.171875 2.570312 0.125 2.09375 0.03125 C 1.625 -0.0625 1.1875 -0.195312 0.78125 -0.375 L 0.78125 -2.453125 C 1.25 -2.234375 1.773438 -2.046875 2.359375 -1.890625 C 2.941406 -1.742188 3.457031 -1.671875 3.90625 -1.671875 C 4.820312 -1.671875 5.28125 -1.9375 5.28125 -2.46875 C 5.28125 -2.664062 5.21875 -2.828125 5.09375 -2.953125 C 4.976562 -3.078125 4.769531 -3.21875 4.46875 -3.375 C 4.175781 -3.53125 3.78125 -3.710938 3.28125 -3.921875 C 2.570312 -4.222656 2.050781 -4.5 1.71875 -4.75 C 1.382812 -5 1.140625 -5.285156 0.984375 -5.609375 C 0.835938 -5.941406 0.765625 -6.347656 0.765625 -6.828125 C 0.765625 -7.648438 1.082031 -8.285156 1.71875 -8.734375 C 2.351562 -9.179688 3.253906 -9.40625 4.421875 -9.40625 C 5.535156 -9.40625 6.617188 -9.164062 7.671875 -8.6875 L 6.90625 -6.859375 C 6.445312 -7.054688 6.015625 -7.21875 5.609375 -7.34375 C 5.203125 -7.476562 4.789062 -7.546875 4.375 -7.546875 C 3.632812 -7.546875 3.265625 -7.34375 3.265625 -6.9375 C 3.265625 -6.71875 3.382812 -6.523438 3.625 -6.359375 C 3.863281 -6.191406 4.390625 -5.945312 5.203125 -5.625 C 5.921875 -5.332031 6.445312 -5.054688 6.78125 -4.796875 C 7.113281 -4.546875 7.359375 -4.253906 7.515625 -3.921875 C 7.679688 -3.585938 7.765625 -3.195312 7.765625 -2.75 Z M 7.765625 -2.75 "/></g></g></g><g fill="#545454" fill-opacity="1"><g transform="translate(678.855594, 421.307807)"><g><path d="M 5.21875 -1.84375 C 5.65625 -1.84375 6.179688 -1.9375 6.796875 -2.125 L 6.796875 -0.25 C 6.171875 0.03125 5.398438 0.171875 4.484375 0.171875 C 3.472656 0.171875 2.738281 -0.0820312 2.28125 -0.59375 C 1.820312 -1.101562 1.59375 -1.867188 1.59375 -2.890625 L 1.59375 -7.34375 L 0.390625 -7.34375 L 0.390625 -8.40625 L 1.78125 -9.25 L 2.5 -11.203125 L 4.109375 -11.203125 L 4.109375 -9.234375 L 6.703125 -9.234375 L 6.703125 -7.34375 L 4.109375 -7.34375 L 4.109375 -2.890625 C 4.109375 -2.535156 4.207031 -2.269531 4.40625 -2.09375 C 4.613281 -1.925781 4.882812 -1.84375 5.21875 -1.84375 Z M 5.21875 -1.84375 "/></g></g></g><g fill="#545454" fill-opacity="1"><g transform="translate(686.195995, 421.307807)"><g><path d="M 7.1875 0 L 6.703125 -1.25 L 6.640625 -1.25 C 6.210938 -0.71875 5.773438 -0.347656 5.328125 -0.140625 C 4.878906 0.0664062 4.289062 0.171875 3.5625 0.171875 C 2.675781 0.171875 1.976562 -0.0820312 1.46875 -0.59375 C 0.957031 -1.101562 0.703125 -1.828125 0.703125 -2.765625 C 0.703125 -3.742188 1.046875 -4.460938 1.734375 -4.921875 C 2.421875 -5.390625 3.457031 -5.648438 4.84375 -5.703125 L 6.4375 -5.75 L 6.4375 -6.15625 C 6.4375 -7.09375 5.957031 -7.5625 5 -7.5625 C 4.269531 -7.5625 3.40625 -7.335938 2.40625 -6.890625 L 1.5625 -8.59375 C 2.632812 -9.144531 3.816406 -9.421875 5.109375 -9.421875 C 6.347656 -9.421875 7.296875 -9.148438 7.953125 -8.609375 C 8.617188 -8.078125 8.953125 -7.257812 8.953125 -6.15625 L 8.953125 0 Z M 6.4375 -4.28125 L 5.46875 -4.25 C 4.738281 -4.226562 4.191406 -4.09375 3.828125 -3.84375 C 3.472656 -3.601562 3.296875 -3.238281 3.296875 -2.75 C 3.296875 -2.03125 3.703125 -1.671875 4.515625 -1.671875 C 5.097656 -1.671875 5.5625 -1.835938 5.90625 -2.171875 C 6.257812 -2.515625 6.4375 -2.960938 6.4375 -3.515625 Z M 6.96875 -10.234375 C 6.101562 -10.742188 5.457031 -11.226562 5.03125 -11.6875 C 4.601562 -11.238281 3.972656 -10.753906 3.140625 -10.234375 L 1.453125 -10.234375 L 1.453125 -10.46875 C 2.492188 -11.5 3.203125 -12.328125 3.578125 -12.953125 L 6.53125 -12.953125 C 6.695312 -12.660156 6.988281 -12.269531 7.40625 -11.78125 C 7.832031 -11.289062 8.242188 -10.851562 8.640625 -10.46875 L 8.640625 -10.234375 Z M 6.96875 -10.234375 "/></g></g></g><g fill="#545454" fill-opacity="1"><g transform="translate(696.4098, 421.307807)"><g><path d="M 9.84375 0 L 7.328125 0 L 7.328125 -5.390625 C 7.328125 -6.054688 7.207031 -6.554688 6.96875 -6.890625 C 6.738281 -7.222656 6.363281 -7.390625 5.84375 -7.390625 C 5.132812 -7.390625 4.625 -7.15625 4.3125 -6.6875 C 4 -6.21875 3.84375 -5.4375 3.84375 -4.34375 L 3.84375 0 L 1.328125 0 L 1.328125 -9.234375 L 3.25 -9.234375 L 3.59375 -8.0625 L 3.71875 -8.0625 C 4 -8.5 4.382812 -8.832031 4.875 -9.0625 C 5.375 -9.289062 5.9375 -9.40625 6.5625 -9.40625 C 7.644531 -9.40625 8.460938 -9.113281 9.015625 -8.53125 C 9.566406 -7.957031 9.84375 -7.125 9.84375 -6.03125 Z M 9.84375 0 "/></g></g></g><g fill="#545454" fill-opacity="1"><g transform="translate(707.523604, 421.307807)"><g><path d="M 5.078125 0.171875 C 2.203125 0.171875 0.765625 -1.40625 0.765625 -4.5625 C 0.765625 -6.132812 1.15625 -7.332031 1.9375 -8.15625 C 2.71875 -8.988281 3.835938 -9.40625 5.296875 -9.40625 C 6.367188 -9.40625 7.328125 -9.195312 8.171875 -8.78125 L 7.421875 -6.828125 C 7.023438 -6.992188 6.65625 -7.125 6.3125 -7.21875 C 5.976562 -7.320312 5.640625 -7.375 5.296875 -7.375 C 3.984375 -7.375 3.328125 -6.441406 3.328125 -4.578125 C 3.328125 -2.773438 3.984375 -1.875 5.296875 -1.875 C 5.785156 -1.875 6.234375 -1.9375 6.640625 -2.0625 C 7.054688 -2.195312 7.46875 -2.398438 7.875 -2.671875 L 7.875 -0.515625 C 7.46875 -0.253906 7.054688 -0.078125 6.640625 0.015625 C 6.234375 0.117188 5.710938 0.171875 5.078125 0.171875 Z M 5.078125 0.171875 "/></g></g></g><g fill="#545454" fill-opacity="1"><g transform="translate(716.218137, 421.307807)"><g><path d="M 1.21875 -11.625 C 1.21875 -12.445312 1.675781 -12.859375 2.59375 -12.859375 C 3.5 -12.859375 3.953125 -12.445312 3.953125 -11.625 C 3.953125 -11.226562 3.835938 -10.921875 3.609375 -10.703125 C 3.378906 -10.492188 3.039062 -10.390625 2.59375 -10.390625 C 1.675781 -10.390625 1.21875 -10.800781 1.21875 -11.625 Z M 3.84375 0 L 1.328125 0 L 1.328125 -9.234375 L 3.84375 -9.234375 Z M 3.84375 0 "/></g></g></g><g fill="#545454" fill-opacity="1"><g transform="translate(721.378713, 421.307807)"><g><path d="M 7.1875 0 L 6.703125 -1.25 L 6.640625 -1.25 C 6.210938 -0.71875 5.773438 -0.347656 5.328125 -0.140625 C 4.878906 0.0664062 4.289062 0.171875 3.5625 0.171875 C 2.675781 0.171875 1.976562 -0.0820312 1.46875 -0.59375 C 0.957031 -1.101562 0.703125 -1.828125 0.703125 -2.765625 C 0.703125 -3.742188 1.046875 -4.460938 1.734375 -4.921875 C 2.421875 -5.390625 3.457031 -5.648438 4.84375 -5.703125 L 6.4375 -5.75 L 6.4375 -6.15625 C 6.4375 -7.09375 5.957031 -7.5625 5 -7.5625 C 4.269531 -7.5625 3.40625 -7.335938 2.40625 -6.890625 L 1.5625 -8.59375 C 2.632812 -9.144531 3.816406 -9.421875 5.109375 -9.421875 C 6.347656 -9.421875 7.296875 -9.148438 7.953125 -8.609375 C 8.617188 -8.078125 8.953125 -7.257812 8.953125 -6.15625 L 8.953125 0 Z M 6.4375 -4.28125 L 5.46875 -4.25 C 4.738281 -4.226562 4.191406 -4.09375 3.828125 -3.84375 C 3.472656 -3.601562 3.296875 -3.238281 3.296875 -2.75 C 3.296875 -2.03125 3.703125 -1.671875 4.515625 -1.671875 C 5.097656 -1.671875 5.5625 -1.835938 5.90625 -2.171875 C 6.257812 -2.515625 6.4375 -2.960938 6.4375 -3.515625 Z M 6.4375 -4.28125 "/></g></g></g><g fill="#545454" fill-opacity="1"><g transform="translate(731.592519, 421.307807)"><g/></g></g><g fill="#545454" fill-opacity="1"><g transform="translate(735.985196, 421.307807)"><g><path d="M 5.140625 -1.8125 C 5.785156 -1.8125 6.253906 -1.992188 6.546875 -2.359375 C 6.847656 -2.722656 7.015625 -3.363281 7.046875 -4.28125 L 7.046875 -4.578125 C 7.046875 -5.578125 6.890625 -6.289062 6.578125 -6.71875 C 6.273438 -7.144531 5.785156 -7.359375 5.109375 -7.359375 C 3.921875 -7.359375 3.328125 -6.425781 3.328125 -4.5625 C 3.328125 -3.644531 3.472656 -2.957031 3.765625 -2.5 C 4.066406 -2.039062 4.523438 -1.8125 5.140625 -1.8125 Z M 4.25 0.171875 C 3.15625 0.171875 2.300781 -0.25 1.6875 -1.09375 C 1.070312 -1.9375 0.765625 -3.109375 0.765625 -4.609375 C 0.765625 -6.109375 1.078125 -7.28125 1.703125 -8.125 C 2.335938 -8.976562 3.203125 -9.40625 4.296875 -9.40625 C 4.878906 -9.40625 5.390625 -9.296875 5.828125 -9.078125 C 6.265625 -8.859375 6.644531 -8.519531 6.96875 -8.0625 L 7.046875 -8.0625 L 7.265625 -9.234375 L 9.390625 -9.234375 L 9.390625 4.0625 L 6.859375 4.0625 L 6.859375 0.1875 C 6.859375 -0.144531 6.894531 -0.609375 6.96875 -1.203125 L 6.859375 -1.203125 C 6.597656 -0.753906 6.242188 -0.410156 5.796875 -0.171875 C 5.347656 0.0546875 4.832031 0.171875 4.25 0.171875 Z M 4.25 0.171875 "/></g></g></g><g fill="#545454" fill-opacity="1"><g transform="translate(746.686154, 421.307807)"><g><path d="M 7.859375 0 L 7.53125 -1.1875 L 7.390625 -1.1875 C 7.117188 -0.75 6.734375 -0.410156 6.234375 -0.171875 C 5.742188 0.0546875 5.179688 0.171875 4.546875 0.171875 C 3.460938 0.171875 2.644531 -0.117188 2.09375 -0.703125 C 1.539062 -1.285156 1.265625 -2.125 1.265625 -3.21875 L 1.265625 -9.234375 L 3.796875 -9.234375 L 3.796875 -3.84375 C 3.796875 -3.175781 3.910156 -2.675781 4.140625 -2.34375 C 4.378906 -2.007812 4.757812 -1.84375 5.28125 -1.84375 C 5.988281 -1.84375 6.5 -2.078125 6.8125 -2.546875 C 7.125 -3.015625 7.28125 -3.796875 7.28125 -4.890625 L 7.28125 -9.234375 L 9.796875 -9.234375 L 9.796875 0 Z M 7.859375 0 "/></g></g></g><g fill="#545454" fill-opacity="1"><g transform="translate(757.799957, 421.307807)"><g><path d="M 5.140625 -7.625 C 4.609375 -7.625 4.191406 -7.453125 3.890625 -7.109375 C 3.585938 -6.773438 3.414062 -6.296875 3.375 -5.671875 L 6.90625 -5.671875 C 6.894531 -6.296875 6.734375 -6.773438 6.421875 -7.109375 C 6.109375 -7.453125 5.679688 -7.625 5.140625 -7.625 Z M 5.5 0.171875 C 4.007812 0.171875 2.847656 -0.238281 2.015625 -1.0625 C 1.179688 -1.882812 0.765625 -3.046875 0.765625 -4.546875 C 0.765625 -6.097656 1.148438 -7.296875 1.921875 -8.140625 C 2.691406 -8.984375 3.757812 -9.40625 5.125 -9.40625 C 6.4375 -9.40625 7.453125 -9.035156 8.171875 -8.296875 C 8.898438 -7.554688 9.265625 -6.53125 9.265625 -5.21875 L 9.265625 -3.984375 L 3.3125 -3.984375 C 3.34375 -3.273438 3.554688 -2.71875 3.953125 -2.3125 C 4.347656 -1.90625 4.90625 -1.703125 5.625 -1.703125 C 6.175781 -1.703125 6.695312 -1.757812 7.1875 -1.875 C 7.6875 -2 8.207031 -2.1875 8.75 -2.4375 L 8.75 -0.484375 C 8.3125 -0.265625 7.835938 -0.101562 7.328125 0 C 6.828125 0.113281 6.21875 0.171875 5.5 0.171875 Z M 5.5 0.171875 "/></g></g></g><g fill="#545454" fill-opacity="1"><g transform="translate(767.79082, 421.307807)"><g/></g></g><g fill="#545454" fill-opacity="1"><g transform="translate(772.183497, 421.307807)"><g><path d="M 7.765625 -2.75 C 7.765625 -1.800781 7.4375 -1.078125 6.78125 -0.578125 C 6.125 -0.078125 5.140625 0.171875 3.828125 0.171875 C 3.148438 0.171875 2.570312 0.125 2.09375 0.03125 C 1.625 -0.0625 1.1875 -0.195312 0.78125 -0.375 L 0.78125 -2.453125 C 1.25 -2.234375 1.773438 -2.046875 2.359375 -1.890625 C 2.941406 -1.742188 3.457031 -1.671875 3.90625 -1.671875 C 4.820312 -1.671875 5.28125 -1.9375 5.28125 -2.46875 C 5.28125 -2.664062 5.21875 -2.828125 5.09375 -2.953125 C 4.976562 -3.078125 4.769531 -3.21875 4.46875 -3.375 C 4.175781 -3.53125 3.78125 -3.710938 3.28125 -3.921875 C 2.570312 -4.222656 2.050781 -4.5 1.71875 -4.75 C 1.382812 -5 1.140625 -5.285156 0.984375 -5.609375 C 0.835938 -5.941406 0.765625 -6.347656 0.765625 -6.828125 C 0.765625 -7.648438 1.082031 -8.285156 1.71875 -8.734375 C 2.351562 -9.179688 3.253906 -9.40625 4.421875 -9.40625 C 5.535156 -9.40625 6.617188 -9.164062 7.671875 -8.6875 L 6.90625 -6.859375 C 6.445312 -7.054688 6.015625 -7.21875 5.609375 -7.34375 C 5.203125 -7.476562 4.789062 -7.546875 4.375 -7.546875 C 3.632812 -7.546875 3.265625 -7.34375 3.265625 -6.9375 C 3.265625 -6.71875 3.382812 -6.523438 3.625 -6.359375 C 3.863281 -6.191406 4.390625 -5.945312 5.203125 -5.625 C 5.921875 -5.332031 6.445312 -5.054688 6.78125 -4.796875 C 7.113281 -4.546875 7.359375 -4.253906 7.515625 -3.921875 C 7.679688 -3.585938 7.765625 -3.195312 7.765625 -2.75 Z M 7.765625 -2.75 "/></g></g></g><g fill="#545454" fill-opacity="1"><g transform="translate(780.589033, 421.307807)"><g><path d="M 5.140625 -7.625 C 4.609375 -7.625 4.191406 -7.453125 3.890625 -7.109375 C 3.585938 -6.773438 3.414062 -6.296875 3.375 -5.671875 L 6.90625 -5.671875 C 6.894531 -6.296875 6.734375 -6.773438 6.421875 -7.109375 C 6.109375 -7.453125 5.679688 -7.625 5.140625 -7.625 Z M 5.5 0.171875 C 4.007812 0.171875 2.847656 -0.238281 2.015625 -1.0625 C 1.179688 -1.882812 0.765625 -3.046875 0.765625 -4.546875 C 0.765625 -6.097656 1.148438 -7.296875 1.921875 -8.140625 C 2.691406 -8.984375 3.757812 -9.40625 5.125 -9.40625 C 6.4375 -9.40625 7.453125 -9.035156 8.171875 -8.296875 C 8.898438 -7.554688 9.265625 -6.53125 9.265625 -5.21875 L 9.265625 -3.984375 L 3.3125 -3.984375 C 3.34375 -3.273438 3.554688 -2.71875 3.953125 -2.3125 C 4.347656 -1.90625 4.90625 -1.703125 5.625 -1.703125 C 6.175781 -1.703125 6.695312 -1.757812 7.1875 -1.875 C 7.6875 -2 8.207031 -2.1875 8.75 -2.4375 L 8.75 -0.484375 C 8.3125 -0.265625 7.835938 -0.101562 7.328125 0 C 6.828125 0.113281 6.21875 0.171875 5.5 0.171875 Z M 5.5 0.171875 "/></g></g></g><g fill="#545454" fill-opacity="1"><g transform="translate(790.579897, 421.307807)"><g><path d="M 7.859375 0 L 7.53125 -1.1875 L 7.390625 -1.1875 C 7.117188 -0.75 6.734375 -0.410156 6.234375 -0.171875 C 5.742188 0.0546875 5.179688 0.171875 4.546875 0.171875 C 3.460938 0.171875 2.644531 -0.117188 2.09375 -0.703125 C 1.539062 -1.285156 1.265625 -2.125 1.265625 -3.21875 L 1.265625 -9.234375 L 3.796875 -9.234375 L 3.796875 -3.84375 C 3.796875 -3.175781 3.910156 -2.675781 4.140625 -2.34375 C 4.378906 -2.007812 4.757812 -1.84375 5.28125 -1.84375 C 5.988281 -1.84375 6.5 -2.078125 6.8125 -2.546875 C 7.125 -3.015625 7.28125 -3.796875 7.28125 -4.890625 L 7.28125 -9.234375 L 9.796875 -9.234375 L 9.796875 0 Z M 7.859375 0 "/></g></g></g><g fill="#545454" fill-opacity="1"><g transform="translate(801.6937, 421.307807)"><g/></g></g><g fill="#545454" fill-opacity="1"><g transform="translate(806.086377, 421.307807)"><g><path d="M 6.421875 -7.34375 L 4.25 -7.34375 L 4.25 0 L 1.734375 0 L 1.734375 -7.34375 L 0.34375 -7.34375 L 0.34375 -8.5625 L 1.734375 -9.234375 L 1.734375 -9.921875 C 1.734375 -10.972656 1.988281 -11.738281 2.5 -12.21875 C 3.019531 -12.707031 3.847656 -12.953125 4.984375 -12.953125 C 5.859375 -12.953125 6.632812 -12.820312 7.3125 -12.5625 L 6.671875 -10.703125 C 6.160156 -10.867188 5.691406 -10.953125 5.265625 -10.953125 C 4.898438 -10.953125 4.640625 -10.84375 4.484375 -10.625 C 4.328125 -10.414062 4.25 -10.144531 4.25 -9.8125 L 4.25 -9.234375 L 6.421875 -9.234375 Z M 6.421875 -7.34375 "/></g></g></g><g fill="#545454" fill-opacity="1"><g transform="translate(812.634114, 421.307807)"><g><path d="M 3.328125 -4.640625 C 3.328125 -3.722656 3.476562 -3.03125 3.78125 -2.5625 C 4.082031 -2.09375 4.570312 -1.859375 5.25 -1.859375 C 5.914062 -1.859375 6.394531 -2.085938 6.6875 -2.546875 C 6.988281 -3.015625 7.140625 -3.710938 7.140625 -4.640625 C 7.140625 -5.546875 6.988281 -6.226562 6.6875 -6.6875 C 6.394531 -7.144531 5.910156 -7.375 5.234375 -7.375 C 4.554688 -7.375 4.066406 -7.144531 3.765625 -6.6875 C 3.472656 -6.238281 3.328125 -5.554688 3.328125 -4.640625 Z M 9.71875 -4.640625 C 9.71875 -3.128906 9.320312 -1.945312 8.53125 -1.09375 C 7.738281 -0.25 6.632812 0.171875 5.21875 0.171875 C 4.332031 0.171875 3.546875 -0.0195312 2.859375 -0.40625 C 2.179688 -0.800781 1.660156 -1.363281 1.296875 -2.09375 C 0.941406 -2.820312 0.765625 -3.671875 0.765625 -4.640625 C 0.765625 -6.148438 1.15625 -7.320312 1.9375 -8.15625 C 2.726562 -8.988281 3.835938 -9.40625 5.265625 -9.40625 C 6.148438 -9.40625 6.929688 -9.210938 7.609375 -8.828125 C 8.285156 -8.441406 8.804688 -7.890625 9.171875 -7.171875 C 9.535156 -6.453125 9.71875 -5.609375 9.71875 -4.640625 Z M 9.71875 -4.640625 "/></g></g></g><g fill="#545454" fill-opacity="1"><g transform="translate(823.103878, 421.307807)"><g><path d="M 9.359375 -9.234375 L 9.359375 -7.953125 L 7.921875 -7.578125 C 8.179688 -7.171875 8.3125 -6.710938 8.3125 -6.203125 C 8.3125 -5.203125 7.960938 -4.425781 7.265625 -3.875 C 6.578125 -3.320312 5.617188 -3.046875 4.390625 -3.046875 L 3.9375 -3.078125 L 3.5625 -3.109375 C 3.3125 -2.910156 3.1875 -2.691406 3.1875 -2.453125 C 3.1875 -2.085938 3.644531 -1.90625 4.5625 -1.90625 L 6.140625 -1.90625 C 7.148438 -1.90625 7.921875 -1.6875 8.453125 -1.25 C 8.984375 -0.820312 9.25 -0.1875 9.25 0.65625 C 9.25 1.738281 8.796875 2.578125 7.890625 3.171875 C 6.992188 3.765625 5.707031 4.0625 4.03125 4.0625 C 2.738281 4.0625 1.75 3.835938 1.0625 3.390625 C 0.382812 2.941406 0.046875 2.3125 0.046875 1.5 C 0.046875 0.945312 0.21875 0.484375 0.5625 0.109375 C 0.914062 -0.265625 1.425781 -0.53125 2.09375 -0.6875 C 1.832031 -0.800781 1.601562 -0.984375 1.40625 -1.234375 C 1.21875 -1.484375 1.125 -1.75 1.125 -2.03125 C 1.125 -2.382812 1.226562 -2.675781 1.4375 -2.90625 C 1.644531 -3.144531 1.941406 -3.378906 2.328125 -3.609375 C 1.835938 -3.816406 1.453125 -4.148438 1.171875 -4.609375 C 0.890625 -5.066406 0.75 -5.613281 0.75 -6.25 C 0.75 -7.257812 1.070312 -8.035156 1.71875 -8.578125 C 2.375 -9.128906 3.3125 -9.40625 4.53125 -9.40625 C 4.789062 -9.40625 5.097656 -9.378906 5.453125 -9.328125 C 5.804688 -9.285156 6.035156 -9.253906 6.140625 -9.234375 Z M 2.234375 1.3125 C 2.234375 1.65625 2.398438 1.925781 2.734375 2.125 C 3.066406 2.320312 3.53125 2.421875 4.125 2.421875 C 5.03125 2.421875 5.738281 2.296875 6.25 2.046875 C 6.757812 1.796875 7.015625 1.457031 7.015625 1.03125 C 7.015625 0.6875 6.863281 0.445312 6.5625 0.3125 C 6.257812 0.175781 5.796875 0.109375 5.171875 0.109375 L 3.859375 0.109375 C 3.398438 0.109375 3.015625 0.21875 2.703125 0.4375 C 2.390625 0.65625 2.234375 0.945312 2.234375 1.3125 Z M 3.140625 -6.21875 C 3.140625 -5.71875 3.253906 -5.316406 3.484375 -5.015625 C 3.710938 -4.722656 4.0625 -4.578125 4.53125 -4.578125 C 5.007812 -4.578125 5.359375 -4.722656 5.578125 -5.015625 C 5.796875 -5.316406 5.90625 -5.71875 5.90625 -6.21875 C 5.90625 -7.320312 5.445312 -7.875 4.53125 -7.875 C 3.601562 -7.875 3.140625 -7.320312 3.140625 -6.21875 Z M 3.140625 -6.21875 "/></g></g></g><g fill="#545454" fill-opacity="1"><g transform="translate(832.657142, 421.307807)"><g><path d="M 7.859375 0 L 7.53125 -1.1875 L 7.390625 -1.1875 C 7.117188 -0.75 6.734375 -0.410156 6.234375 -0.171875 C 5.742188 0.0546875 5.179688 0.171875 4.546875 0.171875 C 3.460938 0.171875 2.644531 -0.117188 2.09375 -0.703125 C 1.539062 -1.285156 1.265625 -2.125 1.265625 -3.21875 L 1.265625 -9.234375 L 3.796875 -9.234375 L 3.796875 -3.84375 C 3.796875 -3.175781 3.910156 -2.675781 4.140625 -2.34375 C 4.378906 -2.007812 4.757812 -1.84375 5.28125 -1.84375 C 5.988281 -1.84375 6.5 -2.078125 6.8125 -2.546875 C 7.125 -3.015625 7.28125 -3.796875 7.28125 -4.890625 L 7.28125 -9.234375 L 9.796875 -9.234375 L 9.796875 0 Z M 7.859375 0 "/></g></g></g><g fill="#545454" fill-opacity="1"><g transform="translate(843.770957, 421.307807)"><g><path d="M 5.140625 -7.625 C 4.609375 -7.625 4.191406 -7.453125 3.890625 -7.109375 C 3.585938 -6.773438 3.414062 -6.296875 3.375 -5.671875 L 6.90625 -5.671875 C 6.894531 -6.296875 6.734375 -6.773438 6.421875 -7.109375 C 6.109375 -7.453125 5.679688 -7.625 5.140625 -7.625 Z M 5.5 0.171875 C 4.007812 0.171875 2.847656 -0.238281 2.015625 -1.0625 C 1.179688 -1.882812 0.765625 -3.046875 0.765625 -4.546875 C 0.765625 -6.097656 1.148438 -7.296875 1.921875 -8.140625 C 2.691406 -8.984375 3.757812 -9.40625 5.125 -9.40625 C 6.4375 -9.40625 7.453125 -9.035156 8.171875 -8.296875 C 8.898438 -7.554688 9.265625 -6.53125 9.265625 -5.21875 L 9.265625 -3.984375 L 3.3125 -3.984375 C 3.34375 -3.273438 3.554688 -2.71875 3.953125 -2.3125 C 4.347656 -1.90625 4.90625 -1.703125 5.625 -1.703125 C 6.175781 -1.703125 6.695312 -1.757812 7.1875 -1.875 C 7.6875 -2 8.207031 -2.1875 8.75 -2.4375 L 8.75 -0.484375 C 8.3125 -0.265625 7.835938 -0.101562 7.328125 0 C 6.828125 0.113281 6.21875 0.171875 5.5 0.171875 Z M 5.5 0.171875 "/></g></g></g><g fill="#545454" fill-opacity="1"><g transform="translate(853.761832, 421.307807)"><g><path d="M 5.21875 -1.84375 C 5.65625 -1.84375 6.179688 -1.9375 6.796875 -2.125 L 6.796875 -0.25 C 6.171875 0.03125 5.398438 0.171875 4.484375 0.171875 C 3.472656 0.171875 2.738281 -0.0820312 2.28125 -0.59375 C 1.820312 -1.101562 1.59375 -1.867188 1.59375 -2.890625 L 1.59375 -7.34375 L 0.390625 -7.34375 L 0.390625 -8.40625 L 1.78125 -9.25 L 2.5 -11.203125 L 4.109375 -11.203125 L 4.109375 -9.234375 L 6.703125 -9.234375 L 6.703125 -7.34375 L 4.109375 -7.34375 L 4.109375 -2.890625 C 4.109375 -2.535156 4.207031 -2.269531 4.40625 -2.09375 C 4.613281 -1.925781 4.882812 -1.84375 5.21875 -1.84375 Z M 5.21875 -1.84375 "/></g></g></g><g fill="#545454" fill-opacity="1"><g transform="translate(861.102232, 421.307807)"><g><path d="M 5.140625 -7.625 C 4.609375 -7.625 4.191406 -7.453125 3.890625 -7.109375 C 3.585938 -6.773438 3.414062 -6.296875 3.375 -5.671875 L 6.90625 -5.671875 C 6.894531 -6.296875 6.734375 -6.773438 6.421875 -7.109375 C 6.109375 -7.453125 5.679688 -7.625 5.140625 -7.625 Z M 5.5 0.171875 C 4.007812 0.171875 2.847656 -0.238281 2.015625 -1.0625 C 1.179688 -1.882812 0.765625 -3.046875 0.765625 -4.546875 C 0.765625 -6.097656 1.148438 -7.296875 1.921875 -8.140625 C 2.691406 -8.984375 3.757812 -9.40625 5.125 -9.40625 C 6.4375 -9.40625 7.453125 -9.035156 8.171875 -8.296875 C 8.898438 -7.554688 9.265625 -6.53125 9.265625 -5.21875 L 9.265625 -3.984375 L 3.3125 -3.984375 C 3.34375 -3.273438 3.554688 -2.71875 3.953125 -2.3125 C 4.347656 -1.90625 4.90625 -1.703125 5.625 -1.703125 C 6.175781 -1.703125 6.695312 -1.757812 7.1875 -1.875 C 7.6875 -2 8.207031 -2.1875 8.75 -2.4375 L 8.75 -0.484375 C 8.3125 -0.265625 7.835938 -0.101562 7.328125 0 C 6.828125 0.113281 6.21875 0.171875 5.5 0.171875 Z M 5.5 0.171875 "/></g></g></g><g fill="#545454" fill-opacity="1"><g transform="translate(871.093084, 421.307807)"><g/></g></g><g fill="#545454" fill-opacity="1"><g transform="translate(875.485761, 421.307807)"><g><path d="M 6.390625 0.171875 C 5.304688 0.171875 4.457031 -0.222656 3.84375 -1.015625 L 3.703125 -1.015625 C 3.796875 -0.242188 3.84375 0.203125 3.84375 0.328125 L 3.84375 4.0625 L 1.328125 4.0625 L 1.328125 -9.234375 L 3.375 -9.234375 L 3.71875 -8.046875 L 3.84375 -8.046875 C 4.425781 -8.953125 5.300781 -9.40625 6.46875 -9.40625 C 7.550781 -9.40625 8.398438 -8.984375 9.015625 -8.140625 C 9.640625 -7.296875 9.953125 -6.128906 9.953125 -4.640625 C 9.953125 -3.648438 9.804688 -2.789062 9.515625 -2.0625 C 9.222656 -1.332031 8.8125 -0.773438 8.28125 -0.390625 C 7.75 -0.015625 7.117188 0.171875 6.390625 0.171875 Z M 5.65625 -7.390625 C 5.03125 -7.390625 4.570312 -7.195312 4.28125 -6.8125 C 4 -6.4375 3.851562 -5.804688 3.84375 -4.921875 L 3.84375 -4.65625 C 3.84375 -3.664062 3.988281 -2.953125 4.28125 -2.515625 C 4.570312 -2.085938 5.039062 -1.875 5.6875 -1.875 C 6.8125 -1.875 7.375 -2.804688 7.375 -4.671875 C 7.375 -5.578125 7.234375 -6.253906 6.953125 -6.703125 C 6.679688 -7.160156 6.25 -7.390625 5.65625 -7.390625 Z M 5.65625 -7.390625 "/></g></g></g><g fill="#545454" fill-opacity="1"><g transform="translate(886.186719, 421.307807)"><g><path d="M 5.140625 -7.625 C 4.609375 -7.625 4.191406 -7.453125 3.890625 -7.109375 C 3.585938 -6.773438 3.414062 -6.296875 3.375 -5.671875 L 6.90625 -5.671875 C 6.894531 -6.296875 6.734375 -6.773438 6.421875 -7.109375 C 6.109375 -7.453125 5.679688 -7.625 5.140625 -7.625 Z M 5.5 0.171875 C 4.007812 0.171875 2.847656 -0.238281 2.015625 -1.0625 C 1.179688 -1.882812 0.765625 -3.046875 0.765625 -4.546875 C 0.765625 -6.097656 1.148438 -7.296875 1.921875 -8.140625 C 2.691406 -8.984375 3.757812 -9.40625 5.125 -9.40625 C 6.4375 -9.40625 7.453125 -9.035156 8.171875 -8.296875 C 8.898438 -7.554688 9.265625 -6.53125 9.265625 -5.21875 L 9.265625 -3.984375 L 3.3125 -3.984375 C 3.34375 -3.273438 3.554688 -2.71875 3.953125 -2.3125 C 4.347656 -1.90625 4.90625 -1.703125 5.625 -1.703125 C 6.175781 -1.703125 6.695312 -1.757812 7.1875 -1.875 C 7.6875 -2 8.207031 -2.1875 8.75 -2.4375 L 8.75 -0.484375 C 8.3125 -0.265625 7.835938 -0.101562 7.328125 0 C 6.828125 0.113281 6.21875 0.171875 5.5 0.171875 Z M 5.5 0.171875 "/></g></g></g><g fill="#545454" fill-opacity="1"><g transform="translate(896.177571, 421.307807)"><g><path d="M 6.484375 -9.40625 C 6.816406 -9.40625 7.097656 -9.382812 7.328125 -9.34375 L 7.140625 -6.96875 C 6.929688 -7.03125 6.679688 -7.0625 6.390625 -7.0625 C 5.585938 -7.0625 4.960938 -6.851562 4.515625 -6.4375 C 4.066406 -6.019531 3.84375 -5.441406 3.84375 -4.703125 L 3.84375 0 L 1.328125 0 L 1.328125 -9.234375 L 3.234375 -9.234375 L 3.609375 -7.6875 L 3.71875 -7.6875 C 4.007812 -8.207031 4.398438 -8.625 4.890625 -8.9375 C 5.378906 -9.25 5.910156 -9.40625 6.484375 -9.40625 Z M 6.484375 -9.40625 "/></g></g></g><g fill="#545454" fill-opacity="1"><g transform="translate(903.85651, 421.307807)"><g><path d="M 5.078125 0.171875 C 2.203125 0.171875 0.765625 -1.40625 0.765625 -4.5625 C 0.765625 -6.132812 1.15625 -7.332031 1.9375 -8.15625 C 2.71875 -8.988281 3.835938 -9.40625 5.296875 -9.40625 C 6.367188 -9.40625 7.328125 -9.195312 8.171875 -8.78125 L 7.421875 -6.828125 C 7.023438 -6.992188 6.65625 -7.125 6.3125 -7.21875 C 5.976562 -7.320312 5.640625 -7.375 5.296875 -7.375 C 3.984375 -7.375 3.328125 -6.441406 3.328125 -4.578125 C 3.328125 -2.773438 3.984375 -1.875 5.296875 -1.875 C 5.785156 -1.875 6.234375 -1.9375 6.640625 -2.0625 C 7.054688 -2.195312 7.46875 -2.398438 7.875 -2.671875 L 7.875 -0.515625 C 7.46875 -0.253906 7.054688 -0.078125 6.640625 0.015625 C 6.234375 0.117188 5.710938 0.171875 5.078125 0.171875 Z M 5.078125 0.171875 "/></g></g></g><g fill="#545454" fill-opacity="1"><g transform="translate(912.551044, 421.307807)"><g><path d="M 3.328125 -4.640625 C 3.328125 -3.722656 3.476562 -3.03125 3.78125 -2.5625 C 4.082031 -2.09375 4.570312 -1.859375 5.25 -1.859375 C 5.914062 -1.859375 6.394531 -2.085938 6.6875 -2.546875 C 6.988281 -3.015625 7.140625 -3.710938 7.140625 -4.640625 C 7.140625 -5.546875 6.988281 -6.226562 6.6875 -6.6875 C 6.394531 -7.144531 5.910156 -7.375 5.234375 -7.375 C 4.554688 -7.375 4.066406 -7.144531 3.765625 -6.6875 C 3.472656 -6.238281 3.328125 -5.554688 3.328125 -4.640625 Z M 9.71875 -4.640625 C 9.71875 -3.128906 9.320312 -1.945312 8.53125 -1.09375 C 7.738281 -0.25 6.632812 0.171875 5.21875 0.171875 C 4.332031 0.171875 3.546875 -0.0195312 2.859375 -0.40625 C 2.179688 -0.800781 1.660156 -1.363281 1.296875 -2.09375 C 0.941406 -2.820312 0.765625 -3.671875 0.765625 -4.640625 C 0.765625 -6.148438 1.15625 -7.320312 1.9375 -8.15625 C 2.726562 -8.988281 3.835938 -9.40625 5.265625 -9.40625 C 6.148438 -9.40625 6.929688 -9.210938 7.609375 -8.828125 C 8.285156 -8.441406 8.804688 -7.890625 9.171875 -7.171875 C 9.535156 -6.453125 9.71875 -5.609375 9.71875 -4.640625 Z M 9.71875 -4.640625 "/></g></g></g><g fill="#545454" fill-opacity="1"><g transform="translate(923.020808, 421.307807)"><g><path d="M 6.484375 -9.40625 C 6.816406 -9.40625 7.097656 -9.382812 7.328125 -9.34375 L 7.140625 -6.96875 C 6.929688 -7.03125 6.679688 -7.0625 6.390625 -7.0625 C 5.585938 -7.0625 4.960938 -6.851562 4.515625 -6.4375 C 4.066406 -6.019531 3.84375 -5.441406 3.84375 -4.703125 L 3.84375 0 L 1.328125 0 L 1.328125 -9.234375 L 3.234375 -9.234375 L 3.609375 -7.6875 L 3.71875 -7.6875 C 4.007812 -8.207031 4.398438 -8.625 4.890625 -8.9375 C 5.378906 -9.25 5.910156 -9.40625 6.484375 -9.40625 Z M 6.484375 -9.40625 "/></g></g></g><g fill="#545454" fill-opacity="1"><g transform="translate(930.699725, 421.307807)"><g><path d="M 6.484375 -9.40625 C 6.816406 -9.40625 7.097656 -9.382812 7.328125 -9.34375 L 7.140625 -6.96875 C 6.929688 -7.03125 6.679688 -7.0625 6.390625 -7.0625 C 5.585938 -7.0625 4.960938 -6.851562 4.515625 -6.4375 C 4.066406 -6.019531 3.84375 -5.441406 3.84375 -4.703125 L 3.84375 0 L 1.328125 0 L 1.328125 -9.234375 L 3.234375 -9.234375 L 3.609375 -7.6875 L 3.71875 -7.6875 C 4.007812 -8.207031 4.398438 -8.625 4.890625 -8.9375 C 5.378906 -9.25 5.910156 -9.40625 6.484375 -9.40625 Z M 6.484375 -9.40625 "/></g></g></g><g fill="#545454" fill-opacity="1"><g transform="translate(938.378664, 421.307807)"><g><path d="M 5.140625 -7.625 C 4.609375 -7.625 4.191406 -7.453125 3.890625 -7.109375 C 3.585938 -6.773438 3.414062 -6.296875 3.375 -5.671875 L 6.90625 -5.671875 C 6.894531 -6.296875 6.734375 -6.773438 6.421875 -7.109375 C 6.109375 -7.453125 5.679688 -7.625 5.140625 -7.625 Z M 5.5 0.171875 C 4.007812 0.171875 2.847656 -0.238281 2.015625 -1.0625 C 1.179688 -1.882812 0.765625 -3.046875 0.765625 -4.546875 C 0.765625 -6.097656 1.148438 -7.296875 1.921875 -8.140625 C 2.691406 -8.984375 3.757812 -9.40625 5.125 -9.40625 C 6.4375 -9.40625 7.453125 -9.035156 8.171875 -8.296875 C 8.898438 -7.554688 9.265625 -6.53125 9.265625 -5.21875 L 9.265625 -3.984375 L 3.3125 -3.984375 C 3.34375 -3.273438 3.554688 -2.71875 3.953125 -2.3125 C 4.347656 -1.90625 4.90625 -1.703125 5.625 -1.703125 C 6.175781 -1.703125 6.695312 -1.757812 7.1875 -1.875 C 7.6875 -2 8.207031 -2.1875 8.75 -2.4375 L 8.75 -0.484375 C 8.3125 -0.265625 7.835938 -0.101562 7.328125 0 C 6.828125 0.113281 6.21875 0.171875 5.5 0.171875 Z M 5.5 0.171875 "/></g></g></g><g fill="#004aad" fill-opacity="1"><g transform="translate(656.756157, 384.840469)"><g><path d="M 0 -9.4375 L -3.046875 -8.515625 L -3.046875 -3.84375 L 0 -2.921875 L 0 0 L -12.84375 -4.515625 L -12.84375 -7.828125 L 0 -12.359375 Z M -5.328125 -7.859375 C -8.078125 -7.003906 -9.632812 -6.519531 -10 -6.40625 C -10.363281 -6.300781 -10.648438 -6.226562 -10.859375 -6.1875 C -10.109375 -5.988281 -8.265625 -5.4375 -5.328125 -4.53125 Z M -5.328125 -7.859375 "/></g></g></g><g fill="#004aad" fill-opacity="1"><g transform="translate(656.756157, 372.486206)"><g/></g></g><g fill="#004aad" fill-opacity="1"><g transform="translate(656.756157, 367.834778)"><g><path d="M 0 -9.4375 L -3.046875 -8.515625 L -3.046875 -3.84375 L 0 -2.921875 L 0 0 L -12.84375 -4.515625 L -12.84375 -7.828125 L 0 -12.359375 Z M -5.328125 -7.859375 C -8.078125 -7.003906 -9.632812 -6.519531 -10 -6.40625 C -10.363281 -6.300781 -10.648438 -6.226562 -10.859375 -6.1875 C -10.109375 -5.988281 -8.265625 -5.4375 -5.328125 -4.53125 Z M -5.328125 -7.859375 "/></g></g></g><g fill="#004aad" fill-opacity="1"><g transform="translate(656.756157, 355.480516)"><g><path d="M 0 -4.0625 L 0 -1.40625 L -13.609375 -1.40625 L -13.609375 -4.0625 Z M 0 -4.0625 "/></g></g></g><g fill="#004aad" fill-opacity="1"><g transform="translate(656.756157, 350.015962)"><g><path d="M -1.953125 -5.515625 C -1.953125 -5.984375 -2.050781 -6.546875 -2.25 -7.203125 L -0.265625 -7.203125 C 0.0234375 -6.535156 0.171875 -5.71875 0.171875 -4.75 C 0.171875 -3.6875 -0.09375 -2.910156 -0.625 -2.421875 C -1.164062 -1.929688 -1.976562 -1.6875 -3.0625 -1.6875 L -7.78125 -1.6875 L -7.78125 -0.40625 L -8.90625 -0.40625 L -9.796875 -1.875 L -11.859375 -2.65625 L -11.859375 -4.359375 L -9.78125 -4.359375 L -9.78125 -7.09375 L -7.78125 -7.09375 L -7.78125 -4.359375 L -3.0625 -4.359375 C -2.6875 -4.359375 -2.40625 -4.460938 -2.21875 -4.671875 C -2.039062 -4.890625 -1.953125 -5.171875 -1.953125 -5.515625 Z M -1.953125 -5.515625 "/></g></g></g><g fill="#004aad" fill-opacity="1"><g transform="translate(656.756157, 342.243181)"><g><path d="M 0 -8.328125 L -1.25 -7.96875 L -1.25 -7.828125 C -0.789062 -7.546875 -0.4375 -7.140625 -0.1875 -6.609375 C 0.0507812 -6.085938 0.171875 -5.492188 0.171875 -4.828125 C 0.171875 -3.671875 -0.132812 -2.800781 -0.75 -2.21875 C -1.363281 -1.632812 -2.25 -1.34375 -3.40625 -1.34375 L -9.78125 -1.34375 L -9.78125 -4.015625 L -4.0625 -4.015625 C -3.363281 -4.015625 -2.835938 -4.140625 -2.484375 -4.390625 C -2.128906 -4.640625 -1.953125 -5.039062 -1.953125 -5.59375 C -1.953125 -6.34375 -2.203125 -6.878906 -2.703125 -7.203125 C -3.203125 -7.535156 -4.03125 -7.703125 -5.1875 -7.703125 L -9.78125 -7.703125 L -9.78125 -10.375 L 0 -10.375 Z M 0 -8.328125 "/></g></g></g><g fill="#004aad" fill-opacity="1"><g transform="translate(656.756157, 330.474719)"><g><path d="M -9.96875 -6.859375 C -9.96875 -7.222656 -9.941406 -7.523438 -9.890625 -7.765625 L -7.390625 -7.5625 C -7.441406 -7.34375 -7.46875 -7.078125 -7.46875 -6.765625 C -7.46875 -5.921875 -7.25 -5.257812 -6.8125 -4.78125 C -6.375 -4.300781 -5.765625 -4.0625 -4.984375 -4.0625 L 0 -4.0625 L 0 -1.40625 L -9.78125 -1.40625 L -9.78125 -3.421875 L -8.140625 -3.8125 L -8.140625 -3.953125 C -8.691406 -4.253906 -9.132812 -4.660156 -9.46875 -5.171875 C -9.800781 -5.691406 -9.96875 -6.253906 -9.96875 -6.859375 Z M -9.96875 -6.859375 "/></g></g></g><g fill="#004aad" fill-opacity="1"><g transform="translate(656.756157, 322.343463)"><g><path d="M 0 -7.609375 L -1.328125 -7.09375 L -1.328125 -7.03125 C -0.765625 -6.582031 -0.375 -6.117188 -0.15625 -5.640625 C 0.0625 -5.160156 0.171875 -4.539062 0.171875 -3.78125 C 0.171875 -2.84375 -0.09375 -2.101562 -0.625 -1.5625 C -1.164062 -1.019531 -1.929688 -0.75 -2.921875 -0.75 C -3.960938 -0.75 -4.726562 -1.113281 -5.21875 -1.84375 C -5.707031 -2.570312 -5.976562 -3.664062 -6.03125 -5.125 L -6.09375 -6.828125 L -6.515625 -6.828125 C -7.503906 -6.828125 -8 -6.316406 -8 -5.296875 C -8 -4.515625 -7.765625 -3.597656 -7.296875 -2.546875 L -9.09375 -1.65625 C -9.6875 -2.789062 -9.984375 -4.039062 -9.984375 -5.40625 C -9.984375 -6.71875 -9.695312 -7.722656 -9.125 -8.421875 C -8.550781 -9.128906 -7.679688 -9.484375 -6.515625 -9.484375 L 0 -9.484375 Z M -4.53125 -6.828125 L -4.5 -5.796875 C -4.476562 -5.015625 -4.335938 -4.429688 -4.078125 -4.046875 C -3.816406 -3.671875 -3.425781 -3.484375 -2.90625 -3.484375 C -2.15625 -3.484375 -1.78125 -3.914062 -1.78125 -4.78125 C -1.78125 -5.40625 -1.957031 -5.898438 -2.3125 -6.265625 C -2.664062 -6.640625 -3.140625 -6.828125 -3.734375 -6.828125 Z M -4.53125 -6.828125 "/></g></g></g><g fill="#004aad" fill-opacity="1"><g transform="translate(656.756157, 311.528018)"><g/></g></g><g fill="#004aad" fill-opacity="1"><g transform="translate(656.756157, 306.87659)"><g><path d="M -1.921875 -5.453125 C -1.921875 -6.128906 -2.113281 -6.625 -2.5 -6.9375 C -2.882812 -7.25 -3.5625 -7.421875 -4.53125 -7.453125 L -4.859375 -7.453125 C -5.910156 -7.453125 -6.660156 -7.289062 -7.109375 -6.96875 C -7.566406 -6.644531 -7.796875 -6.125 -7.796875 -5.40625 C -7.796875 -4.15625 -6.8125 -3.53125 -4.84375 -3.53125 C -3.863281 -3.53125 -3.128906 -3.6875 -2.640625 -4 C -2.160156 -4.3125 -1.921875 -4.796875 -1.921875 -5.453125 Z M 0.171875 -4.5 C 0.171875 -3.34375 -0.269531 -2.4375 -1.15625 -1.78125 C -2.050781 -1.132812 -3.289062 -0.8125 -4.875 -0.8125 C -6.46875 -0.8125 -7.710938 -1.144531 -8.609375 -1.8125 C -9.515625 -2.476562 -9.96875 -3.390625 -9.96875 -4.546875 C -9.96875 -5.171875 -9.847656 -5.710938 -9.609375 -6.171875 C -9.378906 -6.628906 -9.019531 -7.035156 -8.53125 -7.390625 L -8.53125 -7.453125 L -9.78125 -7.6875 L -9.78125 -9.953125 L 4.3125 -9.953125 L 4.3125 -7.265625 L 0.203125 -7.265625 C -0.148438 -7.265625 -0.640625 -7.304688 -1.265625 -7.390625 L -1.265625 -7.265625 C -0.796875 -6.984375 -0.4375 -6.601562 -0.1875 -6.125 C 0.0507812 -5.65625 0.171875 -5.113281 0.171875 -4.5 Z M 0.171875 -4.5 "/></g></g></g><g fill="#004aad" fill-opacity="1"><g transform="translate(656.756157, 295.545292)"><g><path d="M 0 -8.328125 L -1.25 -7.96875 L -1.25 -7.828125 C -0.789062 -7.546875 -0.4375 -7.140625 -0.1875 -6.609375 C 0.0507812 -6.085938 0.171875 -5.492188 0.171875 -4.828125 C 0.171875 -3.671875 -0.132812 -2.800781 -0.75 -2.21875 C -1.363281 -1.632812 -2.25 -1.34375 -3.40625 -1.34375 L -9.78125 -1.34375 L -9.78125 -4.015625 L -4.0625 -4.015625 C -3.363281 -4.015625 -2.835938 -4.140625 -2.484375 -4.390625 C -2.128906 -4.640625 -1.953125 -5.039062 -1.953125 -5.59375 C -1.953125 -6.34375 -2.203125 -6.878906 -2.703125 -7.203125 C -3.203125 -7.535156 -4.03125 -7.703125 -5.1875 -7.703125 L -9.78125 -7.703125 L -9.78125 -10.375 L 0 -10.375 Z M 0 -8.328125 "/></g></g></g><g fill="#004aad" fill-opacity="1"><g transform="translate(656.756157, 283.77683)"><g><path d="M -8.0625 -5.453125 C -8.0625 -4.890625 -7.878906 -4.445312 -7.515625 -4.125 C -7.160156 -3.800781 -6.65625 -3.617188 -6 -3.578125 L -6 -7.3125 C -6.65625 -7.300781 -7.160156 -7.128906 -7.515625 -6.796875 C -7.878906 -6.460938 -8.0625 -6.015625 -8.0625 -5.453125 Z M 0.171875 -5.828125 C 0.171875 -4.253906 -0.257812 -3.023438 -1.125 -2.140625 C -2 -1.253906 -3.234375 -0.8125 -4.828125 -0.8125 C -6.460938 -0.8125 -7.726562 -1.21875 -8.625 -2.03125 C -9.519531 -2.851562 -9.96875 -3.988281 -9.96875 -5.4375 C -9.96875 -6.820312 -9.570312 -7.894531 -8.78125 -8.65625 C -8 -9.425781 -6.910156 -9.8125 -5.515625 -9.8125 L -4.234375 -9.8125 L -4.234375 -3.515625 C -3.472656 -3.535156 -2.878906 -3.753906 -2.453125 -4.171875 C -2.023438 -4.597656 -1.8125 -5.191406 -1.8125 -5.953125 C -1.8125 -6.535156 -1.867188 -7.085938 -1.984375 -7.609375 C -2.109375 -8.140625 -2.304688 -8.691406 -2.578125 -9.265625 L -0.515625 -9.265625 C -0.285156 -8.796875 -0.113281 -8.296875 0 -7.765625 C 0.113281 -7.234375 0.171875 -6.585938 0.171875 -5.828125 Z M 0.171875 -5.828125 "/></g></g></g><g fill="#004aad" fill-opacity="1"><g transform="translate(656.756157, 273.197454)"><g/></g></g><g fill="#004aad" fill-opacity="1"><g transform="translate(656.756157, 268.546026)"><g><path d="M -8.0625 -5.453125 C -8.0625 -4.890625 -7.878906 -4.445312 -7.515625 -4.125 C -7.160156 -3.800781 -6.65625 -3.617188 -6 -3.578125 L -6 -7.3125 C -6.65625 -7.300781 -7.160156 -7.128906 -7.515625 -6.796875 C -7.878906 -6.460938 -8.0625 -6.015625 -8.0625 -5.453125 Z M 0.171875 -5.828125 C 0.171875 -4.253906 -0.257812 -3.023438 -1.125 -2.140625 C -2 -1.253906 -3.234375 -0.8125 -4.828125 -0.8125 C -6.460938 -0.8125 -7.726562 -1.21875 -8.625 -2.03125 C -9.519531 -2.851562 -9.96875 -3.988281 -9.96875 -5.4375 C -9.96875 -6.820312 -9.570312 -7.894531 -8.78125 -8.65625 C -8 -9.425781 -6.910156 -9.8125 -5.515625 -9.8125 L -4.234375 -9.8125 L -4.234375 -3.515625 C -3.472656 -3.535156 -2.878906 -3.753906 -2.453125 -4.171875 C -2.023438 -4.597656 -1.8125 -5.191406 -1.8125 -5.953125 C -1.8125 -6.535156 -1.867188 -7.085938 -1.984375 -7.609375 C -2.109375 -8.140625 -2.304688 -8.691406 -2.578125 -9.265625 L -0.515625 -9.265625 C -0.285156 -8.796875 -0.113281 -8.296875 0 -7.765625 C 0.113281 -7.234375 0.171875 -6.585938 0.171875 -5.828125 Z M 0.171875 -5.828125 "/></g></g></g><g fill="#004aad" fill-opacity="1"><g transform="translate(656.756157, 257.96665)"><g><path d="M 0 -4.0625 L 0 -1.40625 L -13.609375 -1.40625 L -13.609375 -4.0625 Z M 0 -4.0625 "/></g></g></g><g fill="#004aad" fill-opacity="1"><g transform="translate(656.756157, 252.502097)"><g><path d="M -8.0625 -5.453125 C -8.0625 -4.890625 -7.878906 -4.445312 -7.515625 -4.125 C -7.160156 -3.800781 -6.65625 -3.617188 -6 -3.578125 L -6 -7.3125 C -6.65625 -7.300781 -7.160156 -7.128906 -7.515625 -6.796875 C -7.878906 -6.460938 -8.0625 -6.015625 -8.0625 -5.453125 Z M 0.171875 -5.828125 C 0.171875 -4.253906 -0.257812 -3.023438 -1.125 -2.140625 C -2 -1.253906 -3.234375 -0.8125 -4.828125 -0.8125 C -6.460938 -0.8125 -7.726562 -1.21875 -8.625 -2.03125 C -9.519531 -2.851562 -9.96875 -3.988281 -9.96875 -5.4375 C -9.96875 -6.820312 -9.570312 -7.894531 -8.78125 -8.65625 C -8 -9.425781 -6.910156 -9.8125 -5.515625 -9.8125 L -4.234375 -9.8125 L -4.234375 -3.515625 C -3.472656 -3.535156 -2.878906 -3.753906 -2.453125 -4.171875 C -2.023438 -4.597656 -1.8125 -5.191406 -1.8125 -5.953125 C -1.8125 -6.535156 -1.867188 -7.085938 -1.984375 -7.609375 C -2.109375 -8.140625 -2.304688 -8.691406 -2.578125 -9.265625 L -0.515625 -9.265625 C -0.285156 -8.796875 -0.113281 -8.296875 0 -7.765625 C 0.113281 -7.234375 0.171875 -6.585938 0.171875 -5.828125 Z M 0.171875 -5.828125 "/></g></g></g><g fill="#004aad" fill-opacity="1"><g transform="translate(656.756157, 241.922721)"><g/></g></g><g fill="#004aad" fill-opacity="1"><g transform="translate(656.756157, 237.271293)"><g><path d="M 0 -7.609375 L -1.328125 -7.09375 L -1.328125 -7.03125 C -0.765625 -6.582031 -0.375 -6.117188 -0.15625 -5.640625 C 0.0625 -5.160156 0.171875 -4.539062 0.171875 -3.78125 C 0.171875 -2.84375 -0.09375 -2.101562 -0.625 -1.5625 C -1.164062 -1.019531 -1.929688 -0.75 -2.921875 -0.75 C -3.960938 -0.75 -4.726562 -1.113281 -5.21875 -1.84375 C -5.707031 -2.570312 -5.976562 -3.664062 -6.03125 -5.125 L -6.09375 -6.828125 L -6.515625 -6.828125 C -7.503906 -6.828125 -8 -6.316406 -8 -5.296875 C -8 -4.515625 -7.765625 -3.597656 -7.296875 -2.546875 L -9.09375 -1.65625 C -9.6875 -2.789062 -9.984375 -4.039062 -9.984375 -5.40625 C -9.984375 -6.71875 -9.695312 -7.722656 -9.125 -8.421875 C -8.550781 -9.128906 -7.679688 -9.484375 -6.515625 -9.484375 L 0 -9.484375 Z M -4.53125 -6.828125 L -4.5 -5.796875 C -4.476562 -5.015625 -4.335938 -4.429688 -4.078125 -4.046875 C -3.816406 -3.671875 -3.425781 -3.484375 -2.90625 -3.484375 C -2.15625 -3.484375 -1.78125 -3.914062 -1.78125 -4.78125 C -1.78125 -5.40625 -1.957031 -5.898438 -2.3125 -6.265625 C -2.664062 -6.640625 -3.140625 -6.828125 -3.734375 -6.828125 Z M -4.53125 -6.828125 "/></g></g></g><g fill="#004aad" fill-opacity="1"><g transform="translate(656.756157, 226.455849)"><g><path d="M 0 -4.0625 L 0 -1.40625 L -13.609375 -1.40625 L -13.609375 -4.0625 Z M 0 -4.0625 "/></g></g></g><g fill="#004aad" fill-opacity="1"><g transform="translate(656.756157, 220.991295)"><g><path d="M 0.171875 -5.375 C 0.171875 -2.332031 -1.5 -0.8125 -4.84375 -0.8125 C -6.5 -0.8125 -7.765625 -1.222656 -8.640625 -2.046875 C -9.523438 -2.878906 -9.96875 -4.066406 -9.96875 -5.609375 C -9.96875 -6.742188 -9.742188 -7.757812 -9.296875 -8.65625 L -7.234375 -7.859375 C -7.398438 -7.441406 -7.535156 -7.050781 -7.640625 -6.6875 C -7.753906 -6.332031 -7.8125 -5.972656 -7.8125 -5.609375 C -7.8125 -4.222656 -6.828125 -3.53125 -4.859375 -3.53125 C -2.941406 -3.53125 -1.984375 -4.222656 -1.984375 -5.609375 C -1.984375 -6.117188 -2.050781 -6.59375 -2.1875 -7.03125 C -2.320312 -7.46875 -2.535156 -7.90625 -2.828125 -8.34375 L -0.546875 -8.34375 C -0.273438 -7.914062 -0.0859375 -7.476562 0.015625 -7.03125 C 0.117188 -6.59375 0.171875 -6.039062 0.171875 -5.375 Z M 0.171875 -5.375 "/></g></g></g><g fill="#004aad" fill-opacity="1"><g transform="translate(656.756157, 211.784615)"><g><path d="M 0 -7.609375 L -1.328125 -7.09375 L -1.328125 -7.03125 C -0.765625 -6.582031 -0.375 -6.117188 -0.15625 -5.640625 C 0.0625 -5.160156 0.171875 -4.539062 0.171875 -3.78125 C 0.171875 -2.84375 -0.09375 -2.101562 -0.625 -1.5625 C -1.164062 -1.019531 -1.929688 -0.75 -2.921875 -0.75 C -3.960938 -0.75 -4.726562 -1.113281 -5.21875 -1.84375 C -5.707031 -2.570312 -5.976562 -3.664062 -6.03125 -5.125 L -6.09375 -6.828125 L -6.515625 -6.828125 C -7.503906 -6.828125 -8 -6.316406 -8 -5.296875 C -8 -4.515625 -7.765625 -3.597656 -7.296875 -2.546875 L -9.09375 -1.65625 C -9.6875 -2.789062 -9.984375 -4.039062 -9.984375 -5.40625 C -9.984375 -6.71875 -9.695312 -7.722656 -9.125 -8.421875 C -8.550781 -9.128906 -7.679688 -9.484375 -6.515625 -9.484375 L 0 -9.484375 Z M -4.53125 -6.828125 L -4.5 -5.796875 C -4.476562 -5.015625 -4.335938 -4.429688 -4.078125 -4.046875 C -3.816406 -3.671875 -3.425781 -3.484375 -2.90625 -3.484375 C -2.15625 -3.484375 -1.78125 -3.914062 -1.78125 -4.78125 C -1.78125 -5.40625 -1.957031 -5.898438 -2.3125 -6.265625 C -2.664062 -6.640625 -3.140625 -6.828125 -3.734375 -6.828125 Z M -4.53125 -6.828125 "/></g></g></g><g fill="#004aad" fill-opacity="1"><g transform="translate(656.756157, 200.969171)"><g><path d="M 0 -10.4375 L 0 -7.765625 L -5.71875 -7.765625 C -6.414062 -7.765625 -6.941406 -7.640625 -7.296875 -7.390625 C -7.648438 -7.140625 -7.828125 -6.738281 -7.828125 -6.1875 C -7.828125 -5.4375 -7.578125 -4.894531 -7.078125 -4.5625 C -6.578125 -4.226562 -5.753906 -4.0625 -4.609375 -4.0625 L 0 -4.0625 L 0 -1.40625 L -9.78125 -1.40625 L -9.78125 -3.4375 L -8.53125 -3.796875 L -8.53125 -3.953125 C -9 -4.242188 -9.351562 -4.648438 -9.59375 -5.171875 C -9.84375 -5.691406 -9.96875 -6.285156 -9.96875 -6.953125 C -9.96875 -8.085938 -9.660156 -8.953125 -9.046875 -9.546875 C -8.429688 -10.140625 -7.539062 -10.4375 -6.375 -10.4375 Z M 0 -10.4375 "/></g></g></g><g fill="#004aad" fill-opacity="1"><g transform="translate(656.756157, 189.200708)"><g><path d="M 0.171875 -5.375 C 0.171875 -2.332031 -1.5 -0.8125 -4.84375 -0.8125 C -6.5 -0.8125 -7.765625 -1.222656 -8.640625 -2.046875 C -9.523438 -2.878906 -9.96875 -4.066406 -9.96875 -5.609375 C -9.96875 -6.742188 -9.742188 -7.757812 -9.296875 -8.65625 L -7.234375 -7.859375 C -7.398438 -7.441406 -7.535156 -7.050781 -7.640625 -6.6875 C -7.753906 -6.332031 -7.8125 -5.972656 -7.8125 -5.609375 C -7.8125 -4.222656 -6.828125 -3.53125 -4.859375 -3.53125 C -2.941406 -3.53125 -1.984375 -4.222656 -1.984375 -5.609375 C -1.984375 -6.117188 -2.050781 -6.59375 -2.1875 -7.03125 C -2.320312 -7.46875 -2.535156 -7.90625 -2.828125 -8.34375 L -0.546875 -8.34375 C -0.273438 -7.914062 -0.0859375 -7.476562 0.015625 -7.03125 C 0.117188 -6.59375 0.171875 -6.039062 0.171875 -5.375 Z M 2.1875 -7.046875 C 2.9375 -7.046875 3.476562 -6.828125 3.8125 -6.390625 C 4.144531 -5.953125 4.3125 -5.269531 4.3125 -4.34375 C 4.3125 -3.882812 4.25 -3.457031 4.125 -3.0625 L 2.65625 -3.0625 C 2.695312 -3.21875 2.734375 -3.425781 2.765625 -3.6875 C 2.804688 -3.957031 2.828125 -4.164062 2.828125 -4.3125 C 2.828125 -4.738281 2.648438 -4.953125 2.296875 -4.953125 C 1.804688 -4.953125 1.488281 -4.46875 1.34375 -3.5 L 0 -4.171875 L 0 -5.859375 L 0.53125 -5.625 C 0.675781 -6.0625 0.894531 -6.40625 1.1875 -6.65625 C 1.476562 -6.914062 1.8125 -7.046875 2.1875 -7.046875 Z M 2.1875 -7.046875 "/></g></g></g><g fill="#004aad" fill-opacity="1"><g transform="translate(656.756157, 179.994028)"><g><path d="M 0 -7.609375 L -1.328125 -7.09375 L -1.328125 -7.03125 C -0.765625 -6.582031 -0.375 -6.117188 -0.15625 -5.640625 C 0.0625 -5.160156 0.171875 -4.539062 0.171875 -3.78125 C 0.171875 -2.84375 -0.09375 -2.101562 -0.625 -1.5625 C -1.164062 -1.019531 -1.929688 -0.75 -2.921875 -0.75 C -3.960938 -0.75 -4.726562 -1.113281 -5.21875 -1.84375 C -5.707031 -2.570312 -5.976562 -3.664062 -6.03125 -5.125 L -6.09375 -6.828125 L -6.515625 -6.828125 C -7.503906 -6.828125 -8 -6.316406 -8 -5.296875 C -8 -4.515625 -7.765625 -3.597656 -7.296875 -2.546875 L -9.09375 -1.65625 C -9.6875 -2.789062 -9.984375 -4.039062 -9.984375 -5.40625 C -9.984375 -6.71875 -9.695312 -7.722656 -9.125 -8.421875 C -8.550781 -9.128906 -7.679688 -9.484375 -6.515625 -9.484375 L 0 -9.484375 Z M -4.53125 -6.828125 L -4.5 -5.796875 C -4.476562 -5.015625 -4.335938 -4.429688 -4.078125 -4.046875 C -3.816406 -3.671875 -3.425781 -3.484375 -2.90625 -3.484375 C -2.15625 -3.484375 -1.78125 -3.914062 -1.78125 -4.78125 C -1.78125 -5.40625 -1.957031 -5.898438 -2.3125 -6.265625 C -2.664062 -6.640625 -3.140625 -6.828125 -3.734375 -6.828125 Z M -4.53125 -6.828125 "/></g></g></g></svg>