<svg xmlns="http://www.w3.org/2000/svg" xmlns:xlink="http://www.w3.org/1999/xlink" width="1366" zoomAndPan="magnify" viewBox="0 0 1024.5 576" height="768" preserveAspectRatio="xMidYMid meet" version="1.0"><defs><clipPath id="1f23f8a577"><path d="M 127 0.140625 L 521 0.140625 L 521 126 L 127 126 Z M 127 0.140625 " clip-rule="nonzero"/></clipPath><clipPath id="9d090e20b5"><path d="M 531.652344 113.777344 L 137.414062 139.1875 L 123.625 -74.761719 L 517.863281 -100.171875 Z M 531.652344 113.777344 " clip-rule="nonzero"/></clipPath><clipPath id="5b4caead20"><path d="M 531.652344 113.777344 L 137.414062 139.1875 L 123.625 -74.761719 L 517.863281 -100.171875 Z M 531.652344 113.777344 " clip-rule="nonzero"/></clipPath><clipPath id="cb055883e1"><path d="M 0 0.140625 L 289.195312 0.140625 L 289.195312 163.308594 L 0 163.308594 Z M 0 0.140625 " clip-rule="nonzero"/></clipPath><clipPath id="982cfb9c67"><path d="M 675 0.140625 L 1024 0.140625 L 1024 160 L 675 160 Z M 675 0.140625 " clip-rule="nonzero"/></clipPath><clipPath id="ef279d96da"><path d="M 1069.171875 144.65625 L 689.023438 177.460938 L 671.167969 -29.417969 L 1051.320312 -62.222656 Z M 1069.171875 144.65625 " clip-rule="nonzero"/></clipPath><clipPath id="9501fb22c4"><path d="M 1069.171875 144.65625 L 689.023438 177.460938 L 671.167969 -29.417969 L 1051.320312 -62.222656 Z M 1069.171875 144.65625 " clip-rule="nonzero"/></clipPath><clipPath id="e9239630b9"><path d="M 154 240 L 369 240 L 369 454 L 154 454 Z M 154 240 " clip-rule="nonzero"/></clipPath><clipPath id="4fa47fd518"><path d="M 368.78125 335.109375 C 368.78125 342.640625 368.066406 350.023438 366.722656 357.164062 C 364.058594 371.253906 358.890625 384.457031 351.703125 396.273438 C 331.011719 430.320312 293.570312 453.066406 250.820312 453.066406 C 247.074219 453.066406 243.375 452.894531 239.738281 452.546875 C 231.6875 451.8125 223.898438 450.253906 216.40625 447.960938 C 206.253906 444.886719 196.664062 440.453125 187.878906 434.910156 C 183.421875 432.09375 179.160156 428.976562 175.128906 425.578125 C 171.621094 420.496094 168.503906 415.082031 165.820312 409.453125 C 162.722656 402.894531 160.191406 395.988281 158.332031 388.824219 C 156.796875 383 155.710938 377.007812 155.105469 370.859375 L 155.085938 370.859375 C 154.695312 366.941406 154.5 362.960938 154.5 358.9375 C 154.5 354.5 154.738281 350.128906 155.234375 345.839844 C 156.75 331.878906 160.734375 318.675781 166.707031 306.644531 C 166.707031 306.621094 166.726562 306.621094 166.726562 306.621094 C 185.988281 267.726562 226.097656 240.972656 272.457031 240.972656 C 279.125 240.972656 285.640625 241.515625 292.003906 242.59375 C 303.171875 244.460938 313.820312 247.875 323.691406 252.636719 C 331.828125 256.578125 339.445312 261.402344 346.414062 267.03125 C 347.019531 267.527344 347.625 268.027344 348.234375 268.566406 C 349.335938 270.164062 350.402344 271.8125 351.417969 273.457031 C 359.101562 285.988281 364.535156 300.058594 367.085938 315.121094 C 368.199219 321.625 368.78125 328.292969 368.78125 335.109375 Z M 368.78125 335.109375 " clip-rule="nonzero"/></clipPath><radialGradient gradientTransform="matrix(0.999998, 0, 0, 1.000002, 60.65652, 72.09721)" gradientUnits="userSpaceOnUse" r="106.591526" cx="200.98759" id="afaea57503" cy="274.927498" fx="200.98759" fy="274.927498"><stop stop-opacity="1" stop-color="rgb(99.972534%, 53.167725%, 0.128174%)" offset="0"/><stop stop-opacity="1" stop-color="rgb(99.923706%, 52.937317%, 0.352478%)" offset="0.015625"/><stop stop-opacity="1" stop-color="rgb(99.882507%, 52.740479%, 0.546265%)" offset="0.0273438"/><stop stop-opacity="1" stop-color="rgb(99.841309%, 52.54364%, 0.740051%)" offset="0.0390625"/><stop stop-opacity="1" stop-color="rgb(99.80011%, 52.346802%, 0.933838%)" offset="0.0507812"/><stop stop-opacity="1" stop-color="rgb(99.758911%, 52.149963%, 1.126099%)" offset="0.0625"/><stop stop-opacity="1" stop-color="rgb(99.717712%, 51.953125%, 1.319885%)" offset="0.0742188"/><stop stop-opacity="1" stop-color="rgb(99.67804%, 51.756287%, 1.513672%)" offset="0.0859375"/><stop stop-opacity="1" stop-color="rgb(99.636841%, 51.559448%, 1.707458%)" offset="0.0976562"/><stop stop-opacity="1" stop-color="rgb(99.595642%, 51.36261%, 1.899719%)" offset="0.109375"/><stop stop-opacity="1" stop-color="rgb(99.554443%, 51.165771%, 2.093506%)" offset="0.121094"/><stop stop-opacity="1" stop-color="rgb(99.513245%, 50.968933%, 2.287292%)" offset="0.132812"/><stop stop-opacity="1" stop-color="rgb(99.472046%, 50.772095%, 2.479553%)" offset="0.144531"/><stop stop-opacity="1" stop-color="rgb(99.430847%, 50.575256%, 2.67334%)" offset="0.15625"/><stop stop-opacity="1" stop-color="rgb(99.389648%, 50.378418%, 2.867126%)" offset="0.167969"/><stop stop-opacity="1" stop-color="rgb(99.34845%, 50.18158%, 3.060913%)" offset="0.179688"/><stop stop-opacity="1" stop-color="rgb(99.308777%, 49.984741%, 3.253174%)" offset="0.191406"/><stop stop-opacity="1" stop-color="rgb(99.267578%, 49.787903%, 3.44696%)" offset="0.203125"/><stop stop-opacity="1" stop-color="rgb(99.226379%, 49.591064%, 3.640747%)" offset="0.214844"/><stop stop-opacity="1" stop-color="rgb(99.185181%, 49.394226%, 3.833008%)" offset="0.226562"/><stop stop-opacity="1" stop-color="rgb(99.143982%, 49.197388%, 4.026794%)" offset="0.238281"/><stop stop-opacity="1" stop-color="rgb(99.102783%, 49.000549%, 4.220581%)" offset="0.25"/><stop stop-opacity="1" stop-color="rgb(99.047852%, 48.738098%, 4.478455%)" offset="0.261719"/><stop stop-opacity="1" stop-color="rgb(98.980713%, 48.410034%, 4.800415%)" offset="0.28125"/><stop stop-opacity="1" stop-color="rgb(98.912048%, 48.08197%, 5.122375%)" offset="0.300781"/><stop stop-opacity="1" stop-color="rgb(98.843384%, 47.753906%, 5.444336%)" offset="0.320312"/><stop stop-opacity="1" stop-color="rgb(98.774719%, 47.424316%, 5.767822%)" offset="0.339844"/><stop stop-opacity="1" stop-color="rgb(98.706055%, 47.096252%, 6.089783%)" offset="0.359375"/><stop stop-opacity="1" stop-color="rgb(98.64502%, 46.801758%, 6.3797%)" offset="0.378906"/><stop stop-opacity="1" stop-color="rgb(98.591614%, 46.539307%, 6.637573%)" offset="0.394531"/><stop stop-opacity="1" stop-color="rgb(98.536682%, 46.276855%, 6.895447%)" offset="0.410156"/><stop stop-opacity="1" stop-color="rgb(98.48175%, 46.014404%, 7.15332%)" offset="0.425781"/><stop stop-opacity="1" stop-color="rgb(98.426819%, 45.751953%, 7.411194%)" offset="0.441406"/><stop stop-opacity="1" stop-color="rgb(98.371887%, 45.489502%, 7.669067%)" offset="0.457031"/><stop stop-opacity="1" stop-color="rgb(98.316956%, 45.227051%, 7.926941%)" offset="0.472656"/><stop stop-opacity="1" stop-color="rgb(98.26355%, 44.9646%, 8.184814%)" offset="0.488281"/><stop stop-opacity="1" stop-color="rgb(98.214722%, 44.734192%, 8.409119%)" offset="0.503906"/><stop stop-opacity="1" stop-color="rgb(98.173523%, 44.537354%, 8.602905%)" offset="0.515625"/><stop stop-opacity="1" stop-color="rgb(98.132324%, 44.340515%, 8.796692%)" offset="0.527344"/><stop stop-opacity="1" stop-color="rgb(98.091125%, 44.143677%, 8.990479%)" offset="0.539062"/><stop stop-opacity="1" stop-color="rgb(98.049927%, 43.946838%, 9.182739%)" offset="0.550781"/><stop stop-opacity="1" stop-color="rgb(98.008728%, 43.75%, 9.376526%)" offset="0.5625"/><stop stop-opacity="1" stop-color="rgb(97.969055%, 43.553162%, 9.570312%)" offset="0.574219"/><stop stop-opacity="1" stop-color="rgb(97.927856%, 43.356323%, 9.764099%)" offset="0.585938"/><stop stop-opacity="1" stop-color="rgb(97.886658%, 43.159485%, 9.95636%)" offset="0.597656"/><stop stop-opacity="1" stop-color="rgb(97.845459%, 42.962646%, 10.150146%)" offset="0.609375"/><stop stop-opacity="1" stop-color="rgb(97.80426%, 42.765808%, 10.343933%)" offset="0.621094"/><stop stop-opacity="1" stop-color="rgb(97.749329%, 42.503357%, 10.601807%)" offset="0.632812"/><stop stop-opacity="1" stop-color="rgb(97.680664%, 42.175293%, 10.923767%)" offset="0.652344"/><stop stop-opacity="1" stop-color="rgb(97.613525%, 41.847229%, 11.245728%)" offset="0.671875"/><stop stop-opacity="1" stop-color="rgb(97.55249%, 41.552734%, 11.535645%)" offset="0.691406"/><stop stop-opacity="1" stop-color="rgb(97.497559%, 41.290283%, 11.793518%)" offset="0.707031"/><stop stop-opacity="1" stop-color="rgb(97.442627%, 41.027832%, 12.051392%)" offset="0.722656"/><stop stop-opacity="1" stop-color="rgb(97.387695%, 40.765381%, 12.309265%)" offset="0.738281"/><stop stop-opacity="1" stop-color="rgb(97.338867%, 40.534973%, 12.535095%)" offset="0.753906"/><stop stop-opacity="1" stop-color="rgb(97.297668%, 40.338135%, 12.728882%)" offset="0.765625"/><stop stop-opacity="1" stop-color="rgb(97.257996%, 40.141296%, 12.921143%)" offset="0.777344"/><stop stop-opacity="1" stop-color="rgb(97.216797%, 39.944458%, 13.114929%)" offset="0.789062"/><stop stop-opacity="1" stop-color="rgb(97.175598%, 39.74762%, 13.308716%)" offset="0.800781"/><stop stop-opacity="1" stop-color="rgb(97.134399%, 39.550781%, 13.500977%)" offset="0.8125"/><stop stop-opacity="1" stop-color="rgb(97.079468%, 39.28833%, 13.75885%)" offset="0.824219"/><stop stop-opacity="1" stop-color="rgb(97.010803%, 38.95874%, 14.082336%)" offset="0.84375"/><stop stop-opacity="1" stop-color="rgb(96.949768%, 38.664246%, 14.372253%)" offset="0.863281"/><stop stop-opacity="1" stop-color="rgb(96.902466%, 38.433838%, 14.598083%)" offset="0.878906"/><stop stop-opacity="1" stop-color="rgb(96.861267%, 38.237%, 14.790344%)" offset="0.890625"/><stop stop-opacity="1" stop-color="rgb(96.820068%, 38.040161%, 14.984131%)" offset="0.902344"/><stop stop-opacity="1" stop-color="rgb(96.765137%, 37.77771%, 15.242004%)" offset="0.914062"/><stop stop-opacity="1" stop-color="rgb(96.704102%, 37.483215%, 15.531921%)" offset="0.933594"/><stop stop-opacity="1" stop-color="rgb(96.655273%, 37.252808%, 15.757751%)" offset="0.949219"/><stop stop-opacity="1" stop-color="rgb(96.601868%, 36.990356%, 16.015625%)" offset="0.960938"/><stop stop-opacity="1" stop-color="rgb(96.533203%, 36.662292%, 16.337585%)" offset="0.980469"/><stop stop-opacity="1" stop-color="rgb(96.499634%, 36.499023%, 16.499329%)" offset="1"/></radialGradient><clipPath id="464cb6dfc3"><path d="M 164 99.269531 L 270 99.269531 L 270 205 L 164 205 Z M 164 99.269531 " clip-rule="nonzero"/></clipPath><clipPath id="bcae13d3ad"><path d="M 171 99.269531 L 230 99.269531 L 230 126 L 171 126 Z M 171 99.269531 " clip-rule="nonzero"/></clipPath></defs><g clip-path="url(#1f23f8a577)"><g clip-path="url(#9d090e20b5)"><g clip-path="url(#5b4caead20)"><path fill="#e6e6e6" d="M 183.308594 27.152344 C 183.894531 27.113281 184.472656 27.050781 185.054688 26.996094 C 185.070312 27.667969 185.089844 28.34375 185.132812 29.019531 C 186.984375 57.6875 211.71875 79.433594 240.390625 77.585938 C 246.972656 77.160156 253.1875 75.515625 258.835938 72.90625 C 275.511719 106.109375 310.878906 127.875 350.289062 125.332031 C 384.304688 123.140625 412.984375 103.371094 428.097656 75.457031 C 434.25 76.75 440.671875 77.257812 447.25 76.835938 C 486.277344 74.320312 515.871094 40.644531 513.355469 1.625 C 512.855469 -6.121094 511.113281 -13.480469 508.363281 -20.304688 C 516.796875 -29.222656 521.644531 -41.484375 520.792969 -54.699219 C 519.28125 -78.160156 500.347656 -96.347656 477.414062 -97.476562 L 477.367188 -97.78125 L 476.546875 -97.570312 L 475.800781 -97.523438 C 474.59375 -97.539062 473.382812 -97.523438 472.160156 -97.445312 C 470.933594 -97.367188 469.730469 -97.226562 468.539062 -97.054688 L 180 -78.457031 C 178.84375 -78.457031 177.679688 -78.433594 176.507812 -78.359375 C 147.371094 -76.480469 125.273438 -51.339844 127.152344 -22.203125 C 129.03125 6.933594 154.171875 29.03125 183.308594 27.152344 Z M 183.308594 27.152344 " fill-opacity="1" fill-rule="nonzero"/></g></g></g><g clip-path="url(#cb055883e1)"><path fill="#e6e6e6" d="M -33.507812 60.613281 C -32.953125 60.613281 -32.40625 60.589844 -31.855469 60.570312 C -31.882812 61.207031 -31.902344 61.839844 -31.902344 62.480469 C -31.902344 89.585938 -9.933594 111.558594 17.171875 111.558594 C 23.394531 111.558594 29.34375 110.382812 34.824219 108.269531 C 48.507812 140.542969 80.480469 163.179688 117.742188 163.179688 C 149.902344 163.179688 178.101562 146.308594 194.023438 120.945312 C 199.738281 122.535156 205.753906 123.40625 211.972656 123.40625 C 248.867188 123.40625 278.773438 93.496094 278.773438 56.605469 C 278.773438 49.285156 277.578125 42.25 275.40625 35.65625 C 283.882812 27.769531 289.195312 16.523438 289.195312 4.027344 C 289.195312 -18.152344 272.472656 -36.421875 250.949219 -38.875 L 250.925781 -39.167969 L 250.140625 -39.019531 L 249.433594 -39.019531 C 248.296875 -39.105469 247.15625 -39.167969 246 -39.167969 C 244.84375 -39.167969 243.699219 -39.105469 242.566406 -39.019531 L -30.214844 -39.019531 C -31.304688 -39.089844 -32.402344 -39.136719 -33.507812 -39.136719 C -61.054688 -39.136719 -83.386719 -16.808594 -83.386719 10.734375 C -83.386719 38.28125 -61.054688 60.613281 -33.507812 60.613281 Z M -33.507812 60.613281 " fill-opacity="1" fill-rule="nonzero"/></g><g clip-path="url(#982cfb9c67)"><g clip-path="url(#ef279d96da)"><g clip-path="url(#9501fb22c4)"><path fill="#e6e6e6" d="M 730.921875 68.296875 C 731.488281 68.25 732.042969 68.175781 732.601562 68.109375 C 732.632812 68.757812 732.667969 69.410156 732.722656 70.0625 C 735.109375 97.710938 759.457031 118.195312 787.105469 115.808594 C 793.457031 115.261719 799.421875 113.539062 804.824219 110.902344 C 821.628906 142.621094 856.238281 162.898438 894.25 159.621094 C 927.058594 156.789062 954.34375 137.09375 968.355469 109.816406 C 974.324219 110.9375 980.535156 111.292969 986.882812 110.746094 C 1024.519531 107.496094 1052.394531 74.355469 1049.148438 36.71875 C 1048.503906 29.25 1046.664062 22.179688 1043.867188 15.644531 C 1051.824219 6.851562 1056.25 -5.089844 1055.152344 -17.835938 C 1053.199219 -40.464844 1034.527344 -57.628906 1012.355469 -58.238281 L 1012.304688 -58.535156 L 1011.519531 -58.3125 L 1010.796875 -58.25 C 1009.632812 -58.242188 1008.460938 -58.203125 1007.28125 -58.101562 C 1006.101562 -58 1004.941406 -57.835938 1003.792969 -57.648438 L 725.507812 -33.632812 C 724.390625 -33.609375 723.269531 -33.5625 722.140625 -33.464844 C 694.035156 -31.039062 673.222656 -6.292969 675.648438 21.804688 C 678.074219 49.90625 702.820312 70.722656 730.921875 68.296875 Z M 730.921875 68.296875 " fill-opacity="1" fill-rule="nonzero"/></g></g></g><path fill="#dd2c14" d="M 390.425781 358.941406 C 390.425781 366.472656 389.710938 373.851562 388.367188 380.996094 C 385.703125 395.085938 380.53125 408.289062 373.347656 420.105469 C 352.65625 454.152344 315.214844 476.898438 272.460938 476.898438 C 268.71875 476.898438 265.019531 476.726562 261.382812 476.378906 C 253.332031 475.644531 245.542969 474.082031 238.046875 471.792969 C 227.894531 468.71875 218.304688 464.285156 209.523438 458.738281 C 196.792969 450.691406 185.710938 440.277344 176.90625 428.113281 C 176.300781 427.269531 175.695312 426.449219 175.128906 425.578125 C 171.621094 420.496094 168.503906 415.082031 165.820312 409.453125 C 162.722656 402.894531 160.191406 395.988281 158.332031 388.824219 C 156.796875 383 155.710938 377.007812 155.105469 370.859375 L 155.085938 370.859375 C 154.695312 366.941406 154.5 362.960938 154.5 358.9375 C 154.5 354.5 154.738281 350.128906 155.234375 345.839844 C 156.75 331.878906 160.734375 318.675781 166.707031 306.644531 C 166.707031 306.621094 166.726562 306.621094 166.726562 306.621094 C 185.988281 267.726562 226.097656 240.972656 272.457031 240.972656 C 279.125 240.972656 285.640625 241.515625 292.003906 242.59375 C 303.171875 244.460938 313.820312 247.875 323.691406 252.636719 C 331.828125 256.578125 339.445312 261.402344 346.414062 267.03125 C 347.019531 267.527344 347.625 268.027344 348.234375 268.566406 C 352.84375 272.375 357.15625 276.59375 361.113281 281.121094 C 363.109375 283.375 365.011719 285.707031 366.808594 288.113281 C 369.039062 291.058594 371.117188 294.132812 373.066406 297.292969 C 380.75 309.824219 386.183594 323.894531 388.734375 338.957031 C 389.839844 345.457031 390.425781 352.125 390.425781 358.941406 Z M 390.425781 358.941406 " fill-opacity="1" fill-rule="nonzero"/><g clip-path="url(#e9239630b9)"><g clip-path="url(#4fa47fd518)"><path fill="url(#afaea57503)" d="M 154.5 240.972656 L 154.5 453.066406 L 368.78125 453.066406 L 368.78125 240.972656 Z M 154.5 240.972656 " fill-rule="nonzero"/></g></g><path fill="#fcb89d" d="M 323.695312 252.648438 C 315.601562 263.40625 299.648438 278.425781 277.875 288.597656 C 245.410156 303.746094 228.097656 310.242188 206.453125 325.390625 C 189.914062 336.949219 168.359375 344.714844 155.246094 345.84375 C 156.757812 331.886719 160.746094 318.679688 166.714844 306.648438 C 166.714844 306.628906 166.738281 306.628906 166.738281 306.628906 C 176.78125 300.824219 238.917969 279.9375 262.726562 264.789062 C 274.800781 257.105469 284.671875 248.863281 292.007812 242.605469 C 303.175781 244.464844 313.824219 247.882812 323.695312 252.648438 Z M 323.695312 252.648438 " fill-opacity="0.3" fill-rule="nonzero"/><path fill="#fcb89d" d="M 361.121094 281.132812 C 355.253906 290.09375 345.605469 300.960938 334.148438 312.410156 C 312.507812 334.050781 303.847656 334.050781 277.875 351.367188 C 251.90625 368.683594 251.90625 347.039062 254.066406 327.558594 C 256.234375 308.074219 286.53125 312.410156 312.507812 297.253906 C 327.632812 288.421875 339.089844 275.933594 346.425781 267.035156 C 351.726562 271.304688 356.636719 276.019531 361.121094 281.132812 Z M 361.121094 281.132812 " fill-opacity="0.3" fill-rule="nonzero"/><path fill="#fcb89d" d="M 225.929688 347.035156 C 225.929688 347.035156 217.273438 364.351562 186.972656 381.664062 C 169.4375 391.6875 164.226562 391.558594 158.335938 388.828125 C 156.800781 383.003906 155.714844 377.015625 155.109375 370.867188 C 168.683594 368.699219 202.125 349.199219 225.929688 347.035156 Z M 225.929688 347.035156 " fill-opacity="0.3" fill-rule="nonzero"/><path fill="#fcb89d" d="M 373.066406 297.296875 C 372.460938 306.015625 370.8125 315.824219 366.613281 321.0625 C 357.960938 331.886719 355.792969 349.199219 319 377.339844 C 282.210938 405.476562 273.546875 388.160156 249.738281 403.308594 C 227.964844 417.160156 202.601562 423.785156 176.90625 428.113281 C 172.664062 422.289062 168.964844 416.039062 165.824219 409.457031 C 167.445312 407.679688 168.878906 406.253906 169.65625 405.476562 C 173.984375 401.148438 210.78125 392.488281 232.421875 388.160156 C 254.066406 383.832031 299.519531 351.367188 323.328125 334.050781 C 340.558594 321.515625 357.785156 299.917969 366.808594 288.125 C 369.039062 291.066406 371.117188 294.136719 373.066406 297.296875 Z M 373.066406 297.296875 " fill-opacity="0.3" fill-rule="nonzero"/><path fill="#fcb89d" d="M 390.425781 358.941406 C 390.425781 366.472656 389.710938 373.851562 388.367188 380.996094 C 381.785156 387.273438 370.8125 391.105469 357.953125 396.816406 C 338.472656 405.46875 340.640625 411.964844 323.324219 424.953125 C 306.007812 437.941406 308.175781 446.59375 282.199219 450.921875 C 262.542969 454.191406 250.316406 464.90625 238.046875 471.789062 C 227.894531 468.714844 218.304688 464.277344 209.523438 458.734375 C 213.15625 454.949219 218.417969 450.769531 225.929688 446.59375 C 245.410156 435.773438 273.542969 427.113281 288.699219 424.953125 C 303.847656 422.785156 329.824219 396.816406 338.476562 381.664062 C 347.132812 366.515625 360.121094 351.363281 373.109375 347.035156 C 379.558594 344.890625 384.945312 341.664062 388.734375 338.960938 C 389.839844 345.457031 390.425781 352.125 390.425781 358.941406 Z M 390.425781 358.941406 " fill-opacity="0.3" fill-rule="nonzero"/><path fill="#fcb89d" d="M 373.347656 420.105469 C 352.65625 454.152344 315.214844 476.898438 272.460938 476.898438 C 268.71875 476.898438 265.019531 476.726562 261.382812 476.378906 C 263.09375 470.273438 282.789062 467.789062 303.847656 450.929688 C 325.496094 433.613281 353.625 431.445312 373.347656 420.105469 Z M 373.347656 420.105469 " fill-opacity="0.3" fill-rule="nonzero"/><path fill="#8eb4f4" d="M 290.464844 407.210938 C 194.828125 448.660156 111.144531 468.128906 103.589844 450.667969 C 103.058594 449.441406 102.921875 448.082031 103.148438 446.566406 C 104.335938 438.539062 116.023438 426.621094 135.34375 412.746094 C 137.183594 411.421875 139.097656 410.082031 141.089844 408.722656 C 139.503906 410.484375 138.292969 412.09375 137.585938 413.53125 C 136.605469 415.390625 136.378906 416.976562 136.929688 418.261719 C 141.835938 429.585938 206.339844 412.515625 280.972656 380.167969 C 355.609375 347.800781 412.136719 312.390625 407.230469 301.085938 C 406.617188 299.683594 405.101562 298.707031 402.746094 298.152344 C 402.078125 297.976562 401.347656 297.863281 400.566406 297.765625 C 401.429688 297.59375 402.289062 297.421875 403.152344 297.269531 C 424.347656 293.28125 439.695312 292.957031 446.535156 296.945312 C 448.164062 297.886719 449.3125 299.074219 449.929688 300.511719 C 457.5 317.972656 386.101562 365.742188 290.464844 407.210938 Z M 290.464844 407.210938 " fill-opacity="1" fill-rule="nonzero"/><path fill="#7b8fc7" d="M 446.542969 296.953125 C 443.53125 316.972656 375.566406 360.972656 286.632812 399.546875 C 198.890625 437.566406 121.203125 457.09375 103.152344 446.574219 C 104.34375 438.542969 116.027344 426.625 135.347656 412.753906 C 135.980469 413.078125 136.726562 413.324219 137.589844 413.535156 C 136.613281 415.394531 136.386719 416.984375 136.9375 418.269531 C 141.84375 429.59375 206.34375 412.519531 280.976562 380.175781 C 355.613281 347.808594 412.144531 312.398438 407.238281 301.089844 C 406.621094 299.691406 405.109375 298.710938 402.753906 298.15625 C 402.925781 297.847656 403.0625 297.5625 403.152344 297.277344 C 424.347656 293.289062 439.695312 292.964844 446.542969 296.953125 Z M 446.542969 296.953125 " fill-opacity="1" fill-rule="nonzero"/><path fill="#c69297" d="M 287.027344 250.332031 C 283.988281 256.421875 274.546875 261.289062 268.765625 259.160156 C 262.988281 257.03125 256.699219 187.476562 256.699219 187.476562 C 256.699219 187.476562 273.9375 184.628906 281.738281 191.355469 C 282.496094 192.007812 283.164062 192.75 283.714844 193.59375 C 284.058594 194.105469 284.347656 194.652344 284.597656 195.242188 C 289.464844 206.800781 290.074219 244.242188 287.027344 250.332031 Z M 287.027344 250.332031 " fill-opacity="1" fill-rule="nonzero"/><path fill="#f9e6ce" d="M 286.726562 250.027344 C 283.683594 256.117188 274.246094 260.984375 268.464844 258.855469 C 262.683594 256.726562 256.394531 187.175781 256.394531 187.175781 C 256.394531 187.175781 273.636719 184.328125 281.4375 191.054688 C 282.191406 191.707031 282.863281 192.449219 283.414062 193.289062 C 283.753906 193.804688 284.046875 194.347656 284.292969 194.9375 C 289.164062 206.5 289.765625 243.941406 286.726562 250.027344 Z M 286.726562 250.027344 " fill-opacity="1" fill-rule="nonzero"/><path fill="#dfbeb5" d="M 246.042969 190.210938 C 246.042969 190.210938 269.070312 186.40625 273.941406 197.972656 C 278.8125 209.542969 279.421875 246.980469 276.378906 253.066406 C 273.335938 259.152344 263.898438 264.023438 258.117188 261.894531 C 252.335938 259.765625 246.042969 190.210938 246.042969 190.210938 Z M 246.042969 190.210938 " fill-opacity="1" fill-rule="nonzero"/><path fill="#dfbeb5" d="M 290.367188 240.617188 L 281.960938 240.996094 C 281.808594 241 281.664062 240.996094 281.515625 240.980469 C 280.1875 240.824219 279.125 239.722656 279.066406 238.347656 L 278.492188 225.664062 C 278.425781 224.140625 279.617188 222.835938 281.144531 222.765625 L 289.546875 222.390625 C 290.835938 222.328125 291.964844 223.171875 292.328125 224.355469 C 292.394531 224.570312 292.429688 224.796875 292.445312 225.035156 L 293.015625 237.722656 C 293.078125 239.246094 291.890625 240.554688 290.367188 240.617188 Z M 290.367188 240.617188 " fill-opacity="1" fill-rule="nonzero"/><path fill="#f9e6ce" d="M 290.367188 240.617188 L 281.960938 240.996094 C 281.808594 241 281.664062 240.996094 281.515625 240.980469 C 281.453125 240.761719 281.410156 240.53125 281.398438 240.300781 L 280.824219 227.613281 C 280.761719 226.089844 281.949219 224.789062 283.480469 224.71875 L 291.878906 224.339844 C 292.03125 224.332031 292.183594 224.339844 292.328125 224.355469 C 292.394531 224.570312 292.429688 224.796875 292.445312 225.035156 L 293.015625 237.722656 C 293.078125 239.246094 291.890625 240.554688 290.367188 240.617188 Z M 290.367188 240.617188 " fill-opacity="1" fill-rule="nonzero"/><path fill="#c69297" d="M 273.050781 251.617188 C 273.007812 251.941406 272.964844 252.269531 272.917969 252.585938 C 272.367188 256.117188 271.359375 259.160156 270.042969 261.785156 C 265.054688 271.742188 255.617188 275.742188 249.902344 278.105469 C 237.421875 283.28125 241.984375 293.9375 243.660156 307.171875 C 244.21875 311.578125 232.992188 325.40625 221.753906 327.558594 C 219.488281 327.996094 217.21875 327.953125 215.046875 327.261719 C 214.199219 326.992188 213.59375 326.363281 212.988281 325.910156 C 203.707031 319.066406 212.195312 312.386719 215.046875 308.390625 C 215.523438 307.722656 215.878906 307.070312 216.140625 306.449219 C 216.292969 306.105469 216.40625 305.769531 216.496094 305.445312 C 217 303.679688 216.800781 302.207031 216.566406 301.339844 C 216.527344 301.191406 216.484375 301.0625 216.453125 300.949219 C 216.351562 300.648438 216.269531 300.480469 216.269531 300.480469 C 216.269531 300.789062 216.082031 301.207031 215.730469 301.710938 C 213.332031 305.136719 203.304688 312.289062 194.136719 313.246094 C 192.941406 313.375 191.757812 313.398438 190.613281 313.285156 C 190.535156 313.277344 190.464844 313.273438 190.402344 313.265625 C 190.222656 313.25 190.050781 313.222656 189.878906 313.203125 C 189.730469 313.179688 189.585938 313.160156 189.441406 313.132812 C 189.121094 313.078125 188.824219 313.007812 188.539062 312.9375 C 188.472656 312.921875 188.40625 312.90625 188.347656 312.882812 C 188.335938 312.882812 188.332031 312.878906 188.328125 312.878906 C 188.21875 312.851562 188.117188 312.820312 188.019531 312.785156 C 187.964844 312.769531 187.917969 312.753906 187.867188 312.738281 C 187.777344 312.707031 187.683594 312.679688 187.59375 312.644531 C 187.488281 312.609375 187.386719 312.570312 187.289062 312.53125 C 187.261719 312.523438 187.246094 312.515625 187.226562 312.503906 C 187.1875 312.488281 187.15625 312.472656 187.117188 312.460938 C 187.015625 312.417969 186.917969 312.375 186.820312 312.332031 C 186.734375 312.289062 186.640625 312.246094 186.558594 312.199219 C 186.496094 312.164062 186.429688 312.132812 186.367188 312.09375 C 186.304688 312.066406 186.253906 312.035156 186.191406 311.996094 C 186.09375 311.945312 186.003906 311.890625 185.910156 311.824219 C 185.796875 311.75 185.691406 311.679688 185.585938 311.597656 C 185.480469 311.523438 185.382812 311.441406 185.28125 311.359375 C 185.183594 311.28125 185.089844 311.199219 185 311.113281 C 184.90625 311.027344 184.816406 310.9375 184.730469 310.851562 C 184.621094 310.746094 184.519531 310.625 184.421875 310.507812 C 184.394531 310.472656 184.367188 310.441406 184.339844 310.402344 C 184.3125 310.367188 184.285156 310.332031 184.257812 310.300781 C 184.265625 310.300781 184.265625 310.300781 184.265625 310.300781 C 181.113281 306.195312 183.390625 300.792969 184.773438 297.898438 C 186.445312 294.394531 189.335938 292.722656 191.164062 291.203125 C 191.421875 290.988281 191.621094 290.78125 191.769531 290.59375 C 192.078125 290.203125 192.179688 289.890625 192.210938 289.707031 C 192.238281 289.59375 192.226562 289.527344 192.226562 289.527344 C 192.171875 289.414062 192.121094 289.300781 192.070312 289.1875 C 178.347656 259.964844 194.070312 255.125 197.707031 253 C 201.359375 250.871094 203.335938 246.148438 200.292969 233.066406 C 197.253906 219.972656 204.859375 200.800781 204.859375 200.800781 L 250.453125 190.625 L 254.851562 189.644531 C 254.851562 189.644531 257.742188 190.59375 264.34375 209.011719 C 264.371094 209.082031 264.398438 209.152344 264.417969 209.226562 C 266.085938 213.894531 267.996094 219.671875 270.144531 226.820312 C 273.203125 237.003906 273.890625 245.113281 273.050781 251.617188 Z M 273.050781 251.617188 " fill-opacity="1" fill-rule="nonzero"/><path fill="#f9e6ce" d="M 272.441406 251.007812 C 272.398438 251.332031 272.355469 251.660156 272.304688 251.972656 C 271.753906 255.507812 270.75 258.550781 269.433594 261.175781 C 264.445312 271.132812 255.007812 275.128906 249.289062 277.496094 C 236.808594 282.671875 241.375 293.328125 243.050781 306.5625 C 243.605469 310.964844 232.378906 324.796875 221.144531 326.945312 C 218.878906 327.382812 216.609375 327.339844 214.4375 326.648438 C 213.589844 326.378906 212.984375 325.753906 212.378906 325.300781 C 203.097656 318.453125 211.585938 311.777344 214.4375 307.777344 C 214.914062 307.113281 215.269531 306.460938 215.53125 305.839844 C 215.679688 305.492188 215.792969 305.15625 215.886719 304.832031 C 216.386719 303.066406 216.1875 301.597656 215.957031 300.726562 C 215.917969 300.582031 215.875 300.453125 215.84375 300.339844 C 215.738281 300.035156 215.660156 299.867188 215.660156 299.867188 C 215.660156 300.175781 215.46875 300.597656 215.117188 301.101562 C 212.71875 304.527344 202.691406 311.679688 193.523438 312.636719 C 192.332031 312.765625 191.148438 312.785156 190 312.671875 C 189.925781 312.667969 189.855469 312.664062 189.792969 312.65625 C 189.613281 312.640625 189.441406 312.613281 189.265625 312.59375 C 189.121094 312.570312 188.976562 312.550781 188.828125 312.523438 C 188.511719 312.46875 188.214844 312.398438 187.925781 312.328125 C 187.863281 312.3125 187.796875 312.296875 187.738281 312.273438 C 187.726562 312.273438 187.722656 312.269531 187.714844 312.269531 C 187.609375 312.242188 187.503906 312.207031 187.410156 312.175781 C 187.355469 312.160156 187.304688 312.144531 187.257812 312.128906 C 187.164062 312.09375 187.074219 312.066406 186.980469 312.035156 C 186.878906 311.996094 186.777344 311.960938 186.679688 311.921875 C 186.652344 311.910156 186.636719 311.90625 186.613281 311.894531 C 186.578125 311.878906 186.542969 311.863281 186.507812 311.851562 C 186.402344 311.808594 186.304688 311.765625 186.210938 311.722656 C 186.121094 311.679688 186.03125 311.636719 185.949219 311.585938 C 185.886719 311.554688 185.820312 311.523438 185.753906 311.484375 C 185.695312 311.457031 185.640625 311.425781 185.582031 311.386719 C 185.484375 311.332031 185.394531 311.28125 185.300781 311.214844 C 185.1875 311.140625 185.078125 311.070312 184.976562 310.988281 C 184.871094 310.910156 184.773438 310.832031 184.667969 310.75 C 184.570312 310.667969 184.480469 310.585938 184.386719 310.5 C 184.296875 310.414062 184.203125 310.328125 184.117188 310.242188 C 184.011719 310.132812 183.90625 310.015625 183.808594 309.894531 C 183.785156 309.863281 183.757812 309.832031 183.730469 309.792969 C 183.703125 309.753906 183.675781 309.722656 183.648438 309.691406 C 183.652344 309.691406 183.652344 309.691406 183.652344 309.691406 C 180.503906 305.585938 182.777344 300.183594 184.160156 297.285156 C 185.835938 293.785156 188.726562 292.109375 190.554688 290.59375 C 190.8125 290.375 191.011719 290.171875 191.15625 289.980469 C 191.464844 289.59375 191.570312 289.28125 191.601562 289.097656 C 191.628906 288.984375 191.617188 288.917969 191.617188 288.917969 C 191.5625 288.804688 191.507812 288.691406 191.460938 288.578125 C 177.738281 259.355469 193.460938 254.511719 197.09375 252.390625 C 200.746094 250.261719 202.726562 245.539062 199.683594 232.453125 C 198.734375 228.355469 198.824219 223.652344 199.398438 219.136719 C 200.503906 210.480469 203.378906 202.484375 204.09375 200.605469 C 204.195312 200.335938 204.25 200.1875 204.25 200.1875 L 249.839844 190.015625 L 254.238281 189.03125 C 254.238281 189.03125 257.128906 189.984375 263.730469 208.402344 C 263.757812 208.472656 263.785156 208.542969 263.808594 208.617188 C 265.476562 213.285156 267.382812 219.0625 269.535156 226.207031 C 272.597656 236.394531 273.277344 244.507812 272.441406 251.007812 Z M 272.441406 251.007812 " fill-opacity="1" fill-rule="nonzero"/><path fill="#fcf0e3" d="M 204.082031 200.601562 C 203.515625 205.992188 202.507812 214.332031 201.5 216.546875 C 201.007812 217.625 200.238281 218.476562 199.386719 219.132812 C 200.492188 210.46875 203.375 202.476562 204.082031 200.601562 Z M 204.082031 200.601562 " fill-opacity="1" fill-rule="nonzero"/><path fill="#dfbeb5" d="M 272.441406 251.007812 C 272.398438 251.332031 272.355469 251.660156 272.304688 251.972656 C 269.214844 255.273438 262.710938 256.722656 254.460938 253.375 C 244.71875 249.417969 203.933594 248.199219 203.933594 248.199219 C 203.933594 248.199219 203.023438 231.453125 203.167969 224.058594 C 203.308594 216.667969 205.851562 205.355469 205.851562 205.355469 L 206.101562 205.277344 L 241.738281 194.9375 L 247.414062 193.289062 C 247.414062 193.289062 257.367188 201.816406 263.800781 208.613281 C 265.472656 213.28125 267.378906 219.054688 269.527344 226.203125 C 272.597656 236.394531 273.277344 244.507812 272.441406 251.007812 Z M 272.441406 251.007812 " fill-opacity="1" fill-rule="nonzero"/><path fill="#f9e6ce" d="M 234.980469 228.722656 C 229.199219 230.007812 212.71875 232.953125 206.738281 223.664062 C 204.300781 219.882812 203.609375 214.070312 206.097656 205.285156 L 238.980469 195.738281 L 241.726562 194.9375 C 246.058594 202.042969 251.53125 211.84375 251.710938 216.234375 C 252.023438 223.546875 243.195312 226.894531 234.980469 228.722656 Z M 234.980469 228.722656 " fill-opacity="1" fill-rule="nonzero"/><path fill="#fcf0e3" d="M 228.894531 223.847656 C 224.550781 224.816406 214.171875 226.710938 206.746094 223.664062 C 204.308594 219.882812 203.617188 214.070312 206.101562 205.285156 L 238.988281 195.738281 C 242.371094 201.707031 245.496094 208.066406 245.632812 211.367188 C 245.941406 218.675781 237.113281 222.023438 228.894531 223.847656 Z M 228.894531 223.847656 " fill-opacity="1" fill-rule="nonzero"/><path fill="#dfbeb5" d="M 215.265625 300.691406 C 215.183594 300.839844 215.082031 301.007812 214.960938 301.183594 C 212.5625 304.605469 202.535156 311.761719 193.367188 312.714844 C 191.929688 312.808594 190.710938 312.824219 189.84375 312.753906 C 189.769531 312.75 189.699219 312.742188 189.632812 312.738281 C 189.457031 312.722656 189.28125 312.695312 189.109375 312.671875 C 188.964844 312.652344 188.820312 312.628906 188.671875 312.601562 C 188.355469 312.550781 188.058594 312.480469 187.769531 312.410156 C 187.707031 312.390625 187.640625 312.375 187.582031 312.355469 C 187.570312 312.355469 187.566406 312.347656 187.558594 312.347656 C 187.453125 312.320312 187.347656 312.289062 187.25 312.257812 C 187.199219 312.242188 187.148438 312.226562 187.101562 312.207031 C 187.007812 312.175781 186.917969 312.148438 186.824219 312.117188 C 186.722656 312.078125 186.621094 312.042969 186.523438 312.003906 C 186.496094 311.992188 186.480469 311.988281 186.457031 311.976562 C 186.417969 311.960938 186.386719 311.945312 186.347656 311.933594 C 186.246094 311.890625 186.148438 311.847656 186.050781 311.804688 C 185.960938 311.761719 185.875 311.71875 185.792969 311.667969 C 185.726562 311.636719 185.664062 311.605469 185.597656 311.566406 C 185.539062 311.539062 185.484375 311.507812 185.425781 311.46875 C 185.328125 311.414062 185.238281 311.359375 185.144531 311.296875 C 185.03125 311.21875 184.921875 311.148438 184.820312 311.070312 C 184.710938 310.992188 184.617188 310.910156 184.511719 310.832031 C 184.414062 310.75 184.324219 310.667969 184.230469 310.582031 C 184.140625 310.496094 184.046875 310.410156 183.960938 310.324219 C 183.789062 310.148438 183.636719 309.964844 183.492188 309.777344 C 193.269531 310.117188 204.453125 307.800781 209.425781 301.175781 C 212.164062 297.523438 212.265625 296.6875 214.308594 294.078125 C 214.835938 296.4375 215.265625 298.894531 215.265625 300.691406 Z M 215.265625 300.691406 " fill-opacity="1" fill-rule="nonzero"/><path fill="#fcfcc3" d="M 181.714844 210.761719 L 182.277344 214.445312 L 204.6875 224.761719 L 231.328125 215.070312 L 230.144531 211.058594 C 230.144531 211.058594 214.886719 215.625 205.160156 221.5625 C 205.160156 221.566406 195.105469 213.804688 181.714844 210.761719 Z M 181.714844 210.761719 " fill-opacity="1" fill-rule="nonzero"/><path fill="#d8d4a8" d="M 181.714844 211.675781 L 182.277344 215.359375 L 204.6875 225.675781 L 231.328125 215.980469 L 230.144531 211.972656 C 230.144531 211.972656 214.886719 216.539062 205.160156 222.476562 C 205.160156 222.480469 195.105469 214.71875 181.714844 211.675781 Z M 181.714844 211.675781 " fill-opacity="1" fill-rule="nonzero"/><path fill="#ef5463" d="M 247.15625 252.460938 C 235.449219 249.800781 221.179688 256.675781 217.777344 258.445312 C 217.675781 258.5 217.585938 258.550781 217.5 258.59375 C 217.1875 258.753906 217.019531 258.851562 217.019531 258.851562 L 214.632812 257.929688 L 214.277344 257.789062 L 194.195312 250.023438 L 192.324219 244.546875 L 181.105469 211.671875 L 204 221.8125 L 204.363281 221.972656 L 205.152344 222.324219 L 206.632812 221.8125 L 206.921875 221.714844 L 232.546875 212.886719 L 235.488281 220.683594 L 239.550781 231.453125 Z M 247.15625 252.460938 " fill-opacity="1" fill-rule="nonzero"/><path fill="#c69297" d="M 251.585938 247.191406 C 251.175781 247.160156 250.882812 246.835938 250.65625 246.285156 C 250.140625 245.015625 249.964844 242.53125 249.441406 239.660156 C 248.683594 235.523438 247.179688 230.589844 242.808594 227.347656 C 242.808594 227.347656 245.847656 227.261719 252.160156 224.34375 C 258.46875 221.425781 259.75 223.519531 253.667969 213.03125 C 243.246094 195.0625 250.285156 194.855469 258.578125 190.183594 C 258.625 190.15625 258.679688 190.125 258.730469 190.097656 C 258.757812 190.082031 258.78125 190.066406 258.808594 190.054688 C 258.808594 190.054688 274.792969 206.039062 277.742188 224.230469 C 280.683594 242.410156 254.332031 247.417969 251.585938 247.191406 Z M 251.585938 247.191406 " fill-opacity="1" fill-rule="nonzero"/><path fill="#dfbeb5" d="M 250.65625 246.285156 C 250.140625 245.015625 249.964844 242.53125 249.441406 239.660156 C 248.683594 235.523438 247.179688 230.589844 242.808594 227.347656 C 242.808594 227.347656 245.847656 227.261719 252.160156 224.34375 C 258.46875 221.425781 259.75 223.519531 253.667969 213.03125 C 243.246094 195.0625 250.285156 194.855469 258.578125 190.183594 C 262.117188 194.015625 274.011719 207.871094 276.519531 223.3125 C 279.382812 240.984375 254.578125 246.214844 250.65625 246.285156 Z M 250.65625 246.285156 " fill-opacity="1" fill-rule="nonzero"/><path fill="#f9e6ce" d="M 249.4375 239.660156 C 249.160156 238.136719 248.777344 236.507812 248.1875 234.890625 C 247.183594 232.121094 245.5625 229.394531 242.800781 227.347656 C 242.800781 227.347656 245.84375 227.261719 252.152344 224.34375 C 258.464844 221.425781 259.746094 223.519531 253.660156 213.03125 C 244.429688 197.105469 248.902344 195.132812 255.8125 191.636719 C 256.746094 191.167969 257.722656 190.664062 258.722656 190.097656 C 263.585938 196.460938 269.894531 206.457031 271.648438 217.222656 C 274.019531 231.84375 257.453125 237.949219 249.4375 239.660156 Z M 249.4375 239.660156 " fill-opacity="1" fill-rule="nonzero"/><path fill="#fcf0e3" d="M 248.1875 234.886719 C 247.183594 232.113281 245.5625 229.390625 242.800781 227.34375 C 242.800781 227.34375 245.84375 227.257812 252.152344 224.339844 C 258.464844 221.421875 259.746094 223.511719 253.660156 213.027344 C 244.429688 197.097656 248.902344 195.128906 255.8125 191.632812 C 259.832031 197.710938 263.898438 205.558594 265.25 213.875 C 267.191406 225.792969 256.535156 232.054688 248.1875 234.886719 Z M 248.1875 234.886719 " fill-opacity="1" fill-rule="nonzero"/><path fill="#e52972" d="M 257.601562 186.066406 C 258.378906 187.429688 259.398438 189.417969 258.890625 191.554688 C 257.277344 198.335938 235.664062 205.636719 232.730469 206.414062 C 216.90625 210.609375 209.152344 208.027344 200.109375 203.289062 C 206.058594 203.542969 213.296875 203.054688 221.46875 201.703125 C 233.375 199.742188 247.746094 195.433594 257.601562 186.066406 Z M 257.601562 186.066406 " fill-opacity="1" fill-rule="nonzero"/><path fill="#fc357b" d="M 256.988281 185.152344 C 257.765625 186.515625 258.789062 188.503906 258.28125 190.644531 C 256.664062 197.421875 235.054688 204.722656 232.121094 205.5 C 216.296875 209.699219 208.542969 207.117188 199.5 202.378906 C 205.449219 202.632812 212.6875 202.140625 220.855469 200.789062 C 232.765625 198.828125 247.140625 194.523438 256.988281 185.152344 Z M 256.988281 185.152344 " fill-opacity="1" fill-rule="nonzero"/><path fill="#c69297" d="M 270.441406 152.546875 C 270.441406 161.046875 268.421875 169.074219 264.835938 176.167969 C 264.835938 176.175781 264.828125 176.175781 264.828125 176.179688 C 258.957031 187.785156 248.894531 196.910156 236.636719 201.574219 C 236.632812 201.578125 236.621094 201.578125 236.617188 201.578125 C 230.835938 203.777344 224.5625 204.976562 218.007812 204.976562 C 190.011719 204.976562 167.144531 183.03125 165.65625 155.40625 C 165.601562 154.460938 165.582031 153.503906 165.582031 152.546875 C 165.582031 151.289062 165.625 150.042969 165.710938 148.808594 C 167.628906 121.597656 190.308594 100.121094 218.007812 100.121094 C 246.96875 100.121094 270.441406 123.589844 270.441406 152.546875 Z M 270.441406 152.546875 " fill-opacity="1" fill-rule="nonzero"/><g clip-path="url(#464cb6dfc3)"><path fill="#f9e6ce" d="M 269.527344 151.9375 C 269.527344 160.4375 267.507812 168.464844 263.921875 175.558594 C 263.921875 175.5625 263.914062 175.5625 263.914062 175.570312 C 258.042969 187.175781 247.984375 196.300781 235.722656 200.960938 C 235.71875 200.96875 235.707031 200.96875 235.703125 200.96875 C 229.921875 203.167969 223.648438 204.367188 217.097656 204.367188 C 189.097656 204.367188 166.230469 182.421875 164.746094 154.796875 C 164.691406 153.851562 164.667969 152.894531 164.667969 151.9375 C 164.667969 150.679688 164.710938 149.429688 164.796875 148.199219 C 165.382812 139.964844 167.863281 132.261719 171.804688 125.507812 C 180.898438 109.953125 197.777344 99.511719 217.097656 99.511719 C 221.332031 99.511719 225.453125 100.011719 229.398438 100.964844 C 252.425781 106.496094 269.527344 127.222656 269.527344 151.9375 Z M 269.527344 151.9375 " fill-opacity="1" fill-rule="nonzero"/></g><path fill="#dfbeb5" d="M 265.875 162.363281 C 265.875 166.941406 265.195312 171.371094 263.921875 175.5625 C 263.921875 175.570312 263.914062 175.570312 263.914062 175.574219 C 258.042969 187.179688 247.984375 196.304688 235.722656 200.96875 C 252.304688 193.164062 263.742188 176.632812 263.742188 157.496094 C 263.742188 152.269531 262.890625 147.230469 261.304688 142.511719 C 264.246094 148.566406 265.875 155.289062 265.875 162.363281 Z M 265.875 162.363281 " fill-opacity="1" fill-rule="nonzero"/><path fill="#033d75" d="M 261.613281 142.511719 C 263.191406 147.226562 264.050781 152.261719 264.050781 157.496094 C 264.050781 176.632812 252.613281 193.164062 236.03125 200.96875 C 236.027344 200.972656 236.015625 200.972656 236.011719 200.972656 C 229.511719 204.03125 222.21875 205.742188 214.511719 205.742188 C 187.15625 205.742188 164.976562 184.144531 164.976562 157.496094 C 164.976562 156.59375 165.003906 155.691406 165.050781 154.800781 C 165.296875 150.535156 166.105469 146.417969 167.414062 142.515625 C 167.414062 142.511719 167.417969 142.511719 167.417969 142.511719 C 175.523438 125.765625 193.566406 114.125 214.519531 114.125 C 235.46875 114.125 253.511719 125.765625 261.613281 142.511719 C 261.609375 142.503906 261.613281 142.503906 261.613281 142.511719 Z M 261.613281 142.511719 " fill-opacity="1" fill-rule="nonzero"/><path fill="#22457c" d="M 252.78125 144.648438 C 254.164062 148.789062 254.914062 153.203125 254.914062 157.792969 C 254.914062 174.582031 244.882812 189.074219 230.339844 195.921875 C 230.332031 195.921875 230.328125 195.925781 230.320312 195.925781 C 224.621094 198.605469 218.226562 200.109375 211.464844 200.109375 C 187.472656 200.109375 168.019531 181.167969 168.019531 157.792969 C 168.019531 157 168.039062 156.210938 168.082031 155.429688 C 168.292969 151.683594 169.007812 148.074219 170.152344 144.648438 C 177.257812 129.964844 193.085938 119.753906 211.460938 119.753906 C 229.835938 119.753906 245.671875 129.964844 252.78125 144.648438 C 252.773438 144.648438 252.78125 144.648438 252.78125 144.648438 Z M 252.78125 144.648438 " fill-opacity="1" fill-rule="nonzero"/><path fill="#dfbeb5" d="M 261.304688 142.503906 C 253.203125 125.761719 235.15625 114.121094 214.207031 114.121094 C 197.910156 114.121094 183.378906 121.160156 173.914062 132.164062 C 170.777344 135.421875 167.996094 138.9375 165.582031 142.503906 C 172.15625 123.195312 191.105469 109.246094 213.445312 109.246094 C 235.785156 109.25 254.730469 123.199219 261.304688 142.503906 Z M 261.304688 142.503906 " fill-opacity="1" fill-rule="nonzero"/><path fill="#c69297" d="M 268.257812 155.105469 C 267.863281 155.203125 267.464844 155.265625 267.066406 155.296875 C 261.847656 155.71875 256.464844 150.683594 254.671875 143.40625 C 252.738281 135.574219 255.683594 128.105469 261.253906 126.734375 C 262.050781 126.535156 262.855469 126.476562 263.660156 126.539062 C 268.476562 126.914062 273.179688 131.714844 274.839844 138.429688 C 276.773438 146.265625 273.828125 153.730469 268.257812 155.105469 Z M 268.257812 155.105469 " fill-opacity="1" fill-rule="nonzero"/><path fill="#dfbeb5" d="M 268.257812 155.105469 C 267.863281 155.203125 267.464844 155.265625 267.066406 155.296875 C 262.25 154.925781 257.546875 150.121094 255.886719 143.40625 C 253.953125 135.574219 256.898438 128.105469 262.46875 126.734375 C 262.863281 126.636719 263.261719 126.574219 263.660156 126.539062 C 268.476562 126.914062 273.179688 131.714844 274.839844 138.429688 C 276.773438 146.265625 273.828125 153.730469 268.257812 155.105469 Z M 268.257812 155.105469 " fill-opacity="1" fill-rule="nonzero"/><path fill="#f9e6ce" d="M 274.785156 138.347656 C 274.980469 139.140625 275.125 139.9375 275.222656 140.738281 C 275.316406 141.539062 275.359375 142.328125 275.347656 143.109375 C 275.339844 143.886719 275.277344 144.640625 275.160156 145.371094 C 275.046875 146.097656 274.882812 146.785156 274.667969 147.429688 C 274.453125 148.078125 274.195312 148.675781 273.886719 149.21875 C 273.582031 149.761719 273.234375 150.238281 272.847656 150.65625 C 272.464844 151.074219 272.042969 151.421875 271.59375 151.695312 C 271.140625 151.972656 270.667969 152.171875 270.167969 152.292969 C 269.667969 152.417969 269.15625 152.460938 268.628906 152.429688 C 268.101562 152.394531 267.570312 152.285156 267.03125 152.09375 C 266.496094 151.90625 265.96875 151.640625 265.441406 151.304688 C 264.917969 150.964844 264.410156 150.5625 263.921875 150.085938 C 263.429688 149.613281 262.964844 149.082031 262.523438 148.492188 C 262.082031 147.902344 261.675781 147.265625 261.304688 146.578125 C 260.933594 145.894531 260.601562 145.175781 260.3125 144.421875 C 260.023438 143.667969 259.78125 142.894531 259.585938 142.105469 C 259.390625 141.3125 259.246094 140.515625 259.148438 139.714844 C 259.054688 138.910156 259.011719 138.121094 259.023438 137.34375 C 259.035156 136.5625 259.09375 135.808594 259.210938 135.082031 C 259.324219 134.355469 259.488281 133.667969 259.703125 133.019531 C 259.917969 132.371094 260.179688 131.777344 260.484375 131.234375 C 260.789062 130.691406 261.136719 130.210938 261.523438 129.792969 C 261.910156 129.378906 262.328125 129.03125 262.777344 128.753906 C 263.230469 128.480469 263.703125 128.28125 264.203125 128.15625 C 264.703125 128.035156 265.214844 127.988281 265.742188 128.023438 C 266.269531 128.054688 266.804688 128.167969 267.339844 128.355469 C 267.875 128.546875 268.40625 128.808594 268.929688 129.148438 C 269.453125 129.484375 269.960938 129.890625 270.449219 130.363281 C 270.941406 130.835938 271.40625 131.367188 271.847656 131.960938 C 272.289062 132.550781 272.695312 133.1875 273.066406 133.871094 C 273.4375 134.558594 273.769531 135.277344 274.058594 136.03125 C 274.347656 136.78125 274.589844 137.554688 274.785156 138.347656 Z M 274.785156 138.347656 " fill-opacity="1" fill-rule="nonzero"/><path fill="#dfbeb5" d="M 271.328125 139.203125 C 271.4375 139.632812 271.515625 140.066406 271.566406 140.503906 C 271.617188 140.941406 271.640625 141.371094 271.636719 141.796875 C 271.628906 142.222656 271.597656 142.632812 271.535156 143.027344 C 271.472656 143.425781 271.382812 143.800781 271.265625 144.152344 C 271.148438 144.503906 271.007812 144.828125 270.839844 145.125 C 270.671875 145.421875 270.484375 145.683594 270.273438 145.910156 C 270.0625 146.136719 269.835938 146.328125 269.589844 146.476562 C 269.34375 146.628906 269.082031 146.734375 268.8125 146.804688 C 268.539062 146.871094 268.257812 146.894531 267.972656 146.875 C 267.683594 146.859375 267.394531 146.796875 267.101562 146.695312 C 266.808594 146.589844 266.519531 146.449219 266.234375 146.261719 C 265.949219 146.078125 265.671875 145.859375 265.40625 145.601562 C 265.136719 145.34375 264.882812 145.054688 264.644531 144.730469 C 264.402344 144.410156 264.183594 144.0625 263.980469 143.6875 C 263.777344 143.316406 263.597656 142.921875 263.4375 142.511719 C 263.28125 142.101562 263.148438 141.679688 263.042969 141.25 C 262.9375 140.816406 262.855469 140.382812 262.804688 139.945312 C 262.753906 139.511719 262.730469 139.078125 262.734375 138.65625 C 262.742188 138.230469 262.773438 137.820312 262.835938 137.421875 C 262.898438 137.027344 262.988281 136.652344 263.105469 136.300781 C 263.222656 135.945312 263.367188 135.621094 263.53125 135.324219 C 263.699219 135.03125 263.886719 134.769531 264.097656 134.542969 C 264.308594 134.3125 264.539062 134.125 264.785156 133.976562 C 265.03125 133.824219 265.289062 133.714844 265.5625 133.648438 C 265.832031 133.582031 266.113281 133.558594 266.398438 133.574219 C 266.6875 133.59375 266.976562 133.65625 267.269531 133.757812 C 267.5625 133.859375 267.851562 134.003906 268.136719 134.1875 C 268.421875 134.371094 268.699219 134.59375 268.964844 134.851562 C 269.234375 135.109375 269.488281 135.398438 269.726562 135.71875 C 269.96875 136.042969 270.1875 136.390625 270.390625 136.761719 C 270.59375 137.136719 270.773438 137.527344 270.933594 137.9375 C 271.089844 138.347656 271.222656 138.769531 271.328125 139.203125 Z M 271.328125 139.203125 " fill-opacity="1" fill-rule="nonzero"/><path fill="#c69297" d="M 167.40625 138.46875 C 171.085938 130.332031 176.992188 123.199219 184.246094 117.910156 L 185.632812 116.949219 L 185.976562 116.707031 L 186.332031 116.484375 L 187.046875 116.039062 L 187.765625 115.59375 C 188.003906 115.441406 188.246094 115.300781 188.496094 115.171875 L 189.976562 114.367188 C 190.460938 114.085938 190.980469 113.867188 191.488281 113.621094 C 191.996094 113.382812 192.503906 113.136719 193.015625 112.910156 L 194.582031 112.28125 L 195.367188 111.96875 C 195.625 111.859375 195.894531 111.785156 196.167969 111.695312 C 200.417969 110.214844 204.871094 109.335938 209.359375 109.046875 C 213.847656 108.777344 218.359375 109.089844 222.785156 109.8125 L 224.445312 110.105469 C 224.996094 110.203125 225.550781 110.289062 226.101562 110.421875 C 227.203125 110.679688 228.296875 111.011719 229.347656 111.414062 C 231.449219 112.207031 233.503906 113.125 235.496094 114.144531 C 237.492188 115.167969 239.441406 116.285156 241.328125 117.496094 C 241.796875 117.804688 242.257812 118.121094 242.722656 118.4375 C 242.953125 118.59375 243.1875 118.742188 243.414062 118.910156 L 244.085938 119.410156 C 244.535156 119.742188 244.996094 120.0625 245.433594 120.414062 L 246.746094 121.46875 C 247.1875 121.8125 247.59375 122.203125 248.015625 122.570312 L 248.640625 123.125 C 248.851562 123.308594 249.058594 123.5 249.257812 123.699219 C 250.058594 124.480469 250.867188 125.253906 251.609375 126.097656 C 251.980469 126.511719 252.375 126.914062 252.726562 127.34375 L 253.785156 128.648438 C 253.957031 128.867188 254.140625 129.074219 254.304688 129.304688 L 254.789062 129.992188 L 255.757812 131.359375 C 253.109375 127.765625 249.980469 124.550781 246.46875 121.824219 L 245.152344 120.808594 C 244.714844 120.46875 244.25 120.160156 243.796875 119.835938 L 243.117188 119.355469 C 242.886719 119.199219 242.652344 119.050781 242.417969 118.894531 C 241.953125 118.59375 241.488281 118.285156 241.019531 117.992188 C 239.128906 116.824219 237.183594 115.757812 235.191406 114.785156 C 233.195312 113.8125 231.152344 112.9375 229.078125 112.15625 C 228.046875 111.773438 226.992188 111.460938 225.925781 111.21875 C 225.394531 111.089844 224.84375 111.007812 224.296875 110.914062 L 222.660156 110.632812 C 218.285156 109.941406 213.839844 109.667969 209.425781 109.953125 C 205.011719 110.214844 200.628906 111.046875 196.445312 112.476562 C 192.25 113.875 188.316406 116 184.664062 118.488281 C 181.027344 121.023438 177.738281 124.050781 174.84375 127.414062 C 171.933594 130.777344 169.378906 134.464844 167.40625 138.46875 Z M 167.40625 138.46875 " fill-opacity="1" fill-rule="nonzero"/><g clip-path="url(#bcae13d3ad)"><path fill="#fcf0e3" d="M 229.402344 100.964844 C 200.371094 99.996094 181.632812 114.582031 171.8125 125.511719 C 180.902344 109.960938 197.78125 99.515625 217.101562 99.515625 C 221.335938 99.511719 225.453125 100.011719 229.402344 100.964844 Z M 229.402344 100.964844 " fill-opacity="1" fill-rule="nonzero"/></g><path fill="#ffffff" d="M 249.59375 148.972656 C 249.59375 149.550781 249.535156 150.125 249.421875 150.695312 C 249.308594 151.261719 249.144531 151.816406 248.921875 152.351562 C 248.699219 152.886719 248.425781 153.394531 248.105469 153.875 C 247.785156 154.359375 247.417969 154.804688 247.007812 155.214844 C 246.597656 155.625 246.152344 155.988281 245.667969 156.3125 C 245.1875 156.632812 244.679688 156.90625 244.144531 157.128906 C 243.609375 157.351562 243.054688 157.515625 242.488281 157.628906 C 241.917969 157.742188 241.34375 157.800781 240.765625 157.800781 C 240.183594 157.800781 239.613281 157.742188 239.042969 157.628906 C 238.472656 157.515625 237.921875 157.351562 237.386719 157.128906 C 236.851562 156.90625 236.34375 156.632812 235.859375 156.3125 C 235.378906 155.988281 234.933594 155.625 234.523438 155.214844 C 234.113281 154.804688 233.746094 154.359375 233.425781 153.875 C 233.101562 153.394531 232.832031 152.886719 232.609375 152.351562 C 232.386719 151.816406 232.21875 151.261719 232.105469 150.695312 C 231.992188 150.125 231.9375 149.550781 231.9375 148.972656 C 231.9375 148.390625 231.992188 147.816406 232.105469 147.25 C 232.21875 146.679688 232.386719 146.128906 232.609375 145.59375 C 232.832031 145.058594 233.101562 144.550781 233.425781 144.066406 C 233.746094 143.585938 234.113281 143.140625 234.523438 142.730469 C 234.933594 142.320312 235.378906 141.953125 235.859375 141.632812 C 236.34375 141.308594 236.851562 141.039062 237.386719 140.816406 C 237.921875 140.59375 238.472656 140.425781 239.042969 140.3125 C 239.613281 140.199219 240.183594 140.144531 240.765625 140.144531 C 241.34375 140.144531 241.917969 140.199219 242.488281 140.3125 C 243.054688 140.425781 243.609375 140.59375 244.144531 140.816406 C 244.679688 141.039062 245.1875 141.308594 245.667969 141.632812 C 246.152344 141.953125 246.597656 142.320312 247.007812 142.730469 C 247.417969 143.140625 247.785156 143.585938 248.105469 144.066406 C 248.425781 144.550781 248.699219 145.058594 248.921875 145.59375 C 249.144531 146.128906 249.308594 146.679688 249.421875 147.25 C 249.535156 147.816406 249.59375 148.390625 249.59375 148.972656 Z M 249.59375 148.972656 " fill-opacity="0.8" fill-rule="nonzero"/><path fill="#ffffff" d="M 249.585938 165.714844 C 249.585938 166.035156 249.554688 166.351562 249.496094 166.664062 C 249.433594 166.976562 249.339844 167.28125 249.21875 167.578125 C 249.09375 167.871094 248.945312 168.152344 248.765625 168.417969 C 248.589844 168.683594 248.386719 168.929688 248.160156 169.15625 C 247.9375 169.382812 247.691406 169.585938 247.425781 169.761719 C 247.160156 169.941406 246.878906 170.089844 246.582031 170.210938 C 246.289062 170.335938 245.984375 170.425781 245.667969 170.488281 C 245.355469 170.550781 245.039062 170.582031 244.71875 170.582031 C 244.398438 170.582031 244.082031 170.550781 243.769531 170.488281 C 243.457031 170.425781 243.152344 170.335938 242.855469 170.210938 C 242.5625 170.089844 242.28125 169.941406 242.015625 169.761719 C 241.75 169.585938 241.503906 169.382812 241.277344 169.15625 C 241.050781 168.929688 240.851562 168.683594 240.671875 168.417969 C 240.496094 168.152344 240.34375 167.871094 240.222656 167.578125 C 240.101562 167.28125 240.007812 166.976562 239.945312 166.664062 C 239.882812 166.351562 239.851562 166.035156 239.851562 165.714844 C 239.851562 165.394531 239.882812 165.078125 239.945312 164.765625 C 240.007812 164.453125 240.101562 164.148438 240.222656 163.851562 C 240.34375 163.558594 240.496094 163.277344 240.671875 163.011719 C 240.851562 162.746094 241.050781 162.5 241.277344 162.273438 C 241.503906 162.046875 241.75 161.84375 242.015625 161.667969 C 242.28125 161.488281 242.5625 161.339844 242.855469 161.21875 C 243.152344 161.09375 243.457031 161.003906 243.769531 160.941406 C 244.082031 160.878906 244.398438 160.847656 244.71875 160.847656 C 245.039062 160.847656 245.355469 160.878906 245.667969 160.941406 C 245.984375 161.003906 246.289062 161.09375 246.582031 161.21875 C 246.878906 161.339844 247.160156 161.488281 247.425781 161.667969 C 247.691406 161.84375 247.9375 162.046875 248.160156 162.273438 C 248.386719 162.5 248.589844 162.746094 248.765625 163.011719 C 248.945312 163.277344 249.09375 163.558594 249.21875 163.851562 C 249.339844 164.148438 249.433594 164.453125 249.496094 164.765625 C 249.554688 165.078125 249.585938 165.394531 249.585938 165.714844 Z M 249.585938 165.714844 " fill-opacity="0.8" fill-rule="nonzero"/><path fill="#ffffff" d="M 195.328125 132.335938 C 188.3125 130.269531 179.105469 134.378906 174.5625 141.515625 C 169.703125 149.144531 170.179688 160.230469 175.738281 165.386719 C 176.582031 166.167969 179.09375 168.496094 181.703125 167.925781 C 185.808594 167.03125 184.886719 160.128906 190.082031 151.25 C 195.246094 142.429688 201.742188 139.710938 200.464844 135.914062 C 199.703125 133.628906 196.710938 132.742188 195.328125 132.335938 Z M 195.328125 132.335938 " fill-opacity="0.8" fill-rule="nonzero"/><path fill="#fc357b" d="M 251.191406 249.355469 C 250.972656 249.359375 250.75 249.34375 250.527344 249.292969 C 248.9375 248.96875 247.914062 247.417969 248.238281 245.824219 C 249.089844 241.585938 248.28125 237.96875 245.828125 235.085938 C 243.898438 232.8125 241.617188 231.796875 241.597656 231.785156 C 240.105469 231.152344 239.414062 229.429688 240.042969 227.933594 C 240.667969 226.4375 242.398438 225.734375 243.886719 226.367188 C 244.226562 226.511719 247.3125 227.871094 250.085938 231.035156 C 252.722656 234.039062 255.542969 239.25 253.980469 247 C 253.703125 248.363281 252.527344 249.316406 251.191406 249.355469 Z M 251.191406 249.355469 " fill-opacity="1" fill-rule="nonzero"/><path fill="#fc357b" d="M 257.535156 220.492188 C 257.535156 220.492188 275.027344 217.222656 278.199219 228.109375 C 280.144531 234.777344 273.636719 237.242188 273.636719 237.242188 C 273.636719 237.242188 278.503906 223.546875 256.714844 222.433594 C 256.71875 222.433594 255.589844 220.636719 257.535156 220.492188 Z M 257.535156 220.492188 " fill-opacity="1" fill-rule="nonzero"/><path fill="#db4f64" d="M 217.777344 258.445312 C 217.675781 258.5 217.585938 258.550781 217.5 258.59375 L 206.632812 221.816406 L 206.921875 221.71875 Z M 217.777344 258.445312 " fill-opacity="1" fill-rule="nonzero"/><path fill="#db4f64" d="M 214.632812 257.933594 L 214.277344 257.792969 L 204 221.816406 L 204.363281 221.976562 Z M 214.632812 257.933594 " fill-opacity="1" fill-rule="nonzero"/><path fill="#005aa2" d="M 191.152344 243.632812 C 188.066406 244.363281 184.652344 240.96875 183.632812 236.890625 C 182.941406 234.128906 183.335938 231.050781 185.667969 228.714844 C 185.667969 228.714844 190.152344 228.078125 192.679688 230.195312 C 193.171875 230.601562 193.589844 231.121094 193.886719 231.761719 C 195.71875 235.722656 196.324219 242.417969 191.152344 243.632812 Z M 191.152344 243.632812 " fill-opacity="1" fill-rule="nonzero"/><path fill="#1e8fc6" d="M 189.019531 239.375 C 187.136719 239.816406 185.140625 238.730469 183.632812 236.894531 C 182.941406 234.132812 183.335938 231.054688 185.667969 228.722656 C 185.667969 228.722656 190.152344 228.082031 192.679688 230.203125 C 193.59375 233.96875 193.136719 238.40625 189.019531 239.375 Z M 189.019531 239.375 " fill-opacity="1" fill-rule="nonzero"/><path fill="#dfbeb5" d="M 250.808594 253.679688 C 247.984375 253.011719 245.109375 252.644531 242.234375 252.476562 C 241.515625 252.4375 240.796875 252.417969 240.085938 252.417969 C 239.367188 252.40625 238.652344 252.410156 237.933594 252.445312 C 236.507812 252.492188 235.082031 252.628906 233.675781 252.828125 C 232.273438 253.023438 230.878906 253.304688 229.511719 253.675781 C 228.148438 254.046875 226.816406 254.507812 225.53125 255.054688 C 224.238281 255.605469 222.992188 256.246094 221.8125 256.992188 C 221.222656 257.367188 220.644531 257.761719 220.089844 258.183594 C 219.527344 258.585938 218.992188 259.035156 218.457031 259.488281 L 218.183594 259.664062 C 218.183594 259.664062 218.121094 259.6875 218.089844 259.710938 L 217.960938 259.785156 C 217.867188 259.847656 217.777344 259.898438 217.683594 259.964844 C 217.5 260.089844 217.316406 260.230469 217.144531 260.375 C 216.792969 260.679688 216.457031 261.007812 216.15625 261.371094 C 215.546875 262.09375 215.027344 262.914062 214.59375 263.785156 C 213.734375 265.535156 213.21875 267.484375 212.917969 269.472656 C 212.632812 271.472656 212.59375 273.515625 212.65625 275.558594 L 212.734375 277.097656 L 212.871094 278.636719 L 213.054688 280.175781 L 213.265625 281.726562 C 213.558594 283.796875 213.855469 285.863281 214.210938 287.917969 C 214.566406 289.976562 214.953125 292.019531 215.351562 294.09375 C 215.546875 295.128906 215.730469 296.183594 215.800781 297.265625 C 215.878906 298.328125 215.832031 299.394531 215.6875 300.429688 C 215.582031 300.128906 215.503906 299.960938 215.503906 299.960938 C 215.503906 300.269531 215.3125 300.691406 214.960938 301.191406 C 214.984375 300.9375 215 300.679688 215.003906 300.425781 C 215.058594 299.386719 215.027344 298.371094 214.871094 297.363281 C 214.792969 296.859375 214.699219 296.355469 214.578125 295.855469 C 214.46875 295.351562 214.339844 294.851562 214.210938 294.34375 C 213.691406 292.316406 213.136719 290.273438 212.699219 288.210938 C 212.25 286.152344 211.828125 284.078125 211.464844 282.003906 L 211.207031 280.441406 L 210.976562 278.859375 L 210.792969 277.265625 L 210.660156 275.660156 C 210.519531 273.515625 210.582031 271.347656 210.851562 269.1875 C 211.164062 267.03125 211.675781 264.855469 212.691406 262.84375 C 213.199219 261.84375 213.816406 260.878906 214.566406 260.007812 C 214.941406 259.570312 215.355469 259.160156 215.808594 258.785156 C 216.039062 258.601562 216.273438 258.417969 216.523438 258.253906 C 216.648438 258.164062 216.777344 258.089844 216.914062 258.007812 L 217.125 257.890625 C 217.15625 257.875 217.1875 257.859375 217.21875 257.839844 C 219.480469 255.917969 222.089844 254.425781 224.828125 253.347656 C 227.613281 252.238281 230.566406 251.644531 233.503906 251.363281 C 234.980469 251.234375 236.460938 251.207031 237.929688 251.246094 C 238.664062 251.265625 239.398438 251.304688 240.128906 251.363281 C 240.855469 251.429688 241.585938 251.507812 242.316406 251.613281 C 243.769531 251.804688 245.207031 252.078125 246.628906 252.421875 C 248.046875 252.746094 249.453125 253.152344 250.808594 253.679688 Z M 250.808594 253.679688 " fill-opacity="1" fill-rule="nonzero"/><path fill="#dfbeb5" d="M 231.328125 310.902344 C 229.714844 311.488281 227.972656 311.652344 226.253906 311.578125 C 224.53125 311.484375 222.800781 311.113281 221.175781 310.441406 C 220.371094 310.101562 219.582031 309.703125 218.847656 309.222656 C 218.117188 308.734375 217.421875 308.195312 216.800781 307.578125 C 216.273438 307.066406 215.792969 306.503906 215.371094 305.910156 C 215.523438 305.5625 215.636719 305.226562 215.730469 304.902344 C 216.378906 305.472656 217.035156 305.996094 217.722656 306.476562 C 218.375 306.9375 219.050781 307.351562 219.738281 307.734375 C 220.429688 308.113281 221.144531 308.453125 221.871094 308.757812 C 223.332031 309.363281 224.859375 309.808594 226.4375 310.15625 C 228.015625 310.496094 229.636719 310.738281 231.328125 310.902344 Z M 231.328125 310.902344 " fill-opacity="1" fill-rule="nonzero"/><path fill="#dfbeb5" d="M 206.214844 295.226562 C 204.609375 295.394531 203 295.253906 201.421875 294.980469 C 199.84375 294.699219 198.292969 294.25 196.804688 293.65625 C 195.308594 293.066406 193.878906 292.277344 192.558594 291.347656 C 192.011719 290.953125 191.480469 290.523438 190.992188 290.046875 C 191.296875 289.65625 191.402344 289.34375 191.433594 289.160156 C 192.050781 289.496094 192.664062 289.820312 193.296875 290.117188 C 194.679688 290.769531 196.0625 291.398438 197.484375 291.960938 C 198.90625 292.519531 200.335938 293.066406 201.789062 293.589844 C 203.25 294.125 204.71875 294.644531 206.214844 295.226562 Z M 206.214844 295.226562 " fill-opacity="1" fill-rule="nonzero"/><path fill="#dfbeb5" d="M 269.273438 261.25 C 264.289062 271.207031 254.851562 275.207031 249.132812 277.570312 C 236.652344 282.746094 241.21875 293.402344 242.894531 306.636719 C 243.449219 311.042969 232.222656 324.871094 220.984375 327.023438 C 227.167969 323.714844 236.621094 317.957031 238.636719 312.726562 C 243.371094 300.425781 233.910156 290.386719 239.851562 281.074219 C 242.753906 276.527344 246.09375 278.285156 258.113281 270.117188 C 263.148438 266.691406 266.925781 263.421875 269.273438 261.25 Z M 269.273438 261.25 " fill-opacity="1" fill-rule="nonzero"/><path fill="#f18705" d="M 246.832031 211.871094 C 246.832031 212.21875 246.765625 212.554688 246.632812 212.875 C 246.5 213.199219 246.308594 213.484375 246.0625 213.730469 C 245.816406 213.976562 245.53125 214.167969 245.207031 214.300781 C 244.886719 214.433594 244.550781 214.5 244.203125 214.5 C 243.851562 214.5 243.515625 214.433594 243.195312 214.300781 C 242.871094 214.167969 242.585938 213.976562 242.339844 213.730469 C 242.09375 213.484375 241.902344 213.199219 241.769531 212.875 C 241.636719 212.554688 241.570312 212.21875 241.570312 211.871094 C 241.570312 211.519531 241.636719 211.183594 241.769531 210.863281 C 241.902344 210.539062 242.09375 210.257812 242.339844 210.007812 C 242.585938 209.761719 242.871094 209.574219 243.195312 209.4375 C 243.515625 209.304688 243.851562 209.238281 244.203125 209.238281 C 244.550781 209.238281 244.886719 209.304688 245.207031 209.4375 C 245.53125 209.574219 245.816406 209.761719 246.0625 210.007812 C 246.308594 210.257812 246.5 210.539062 246.632812 210.863281 C 246.765625 211.183594 246.832031 211.519531 246.832031 211.871094 Z M 246.832031 211.871094 " fill-opacity="1" fill-rule="nonzero"/><path fill="#f5a501" d="M 246.109375 211.632812 C 246.109375 211.917969 246.054688 212.191406 245.945312 212.457031 C 245.835938 212.71875 245.679688 212.949219 245.480469 213.152344 C 245.277344 213.355469 245.042969 213.507812 244.78125 213.617188 C 244.515625 213.726562 244.242188 213.78125 243.957031 213.78125 C 243.671875 213.78125 243.398438 213.726562 243.136719 213.617188 C 242.871094 213.507812 242.640625 213.355469 242.4375 213.152344 C 242.234375 212.949219 242.082031 212.71875 241.972656 212.457031 C 241.863281 212.191406 241.808594 211.917969 241.808594 211.632812 C 241.808594 211.347656 241.863281 211.074219 241.972656 210.808594 C 242.082031 210.546875 242.234375 210.3125 242.4375 210.113281 C 242.640625 209.910156 242.871094 209.753906 243.136719 209.644531 C 243.398438 209.535156 243.671875 209.480469 243.957031 209.480469 C 244.242188 209.480469 244.515625 209.535156 244.78125 209.644531 C 245.042969 209.753906 245.277344 209.910156 245.480469 210.113281 C 245.679688 210.3125 245.835938 210.546875 245.945312 210.808594 C 246.054688 211.074219 246.109375 211.347656 246.109375 211.632812 Z M 246.109375 211.632812 " fill-opacity="1" fill-rule="nonzero"/><path fill="#f9bd00" d="M 245.632812 211.394531 C 245.632812 211.648438 245.585938 211.890625 245.488281 212.125 C 245.390625 212.359375 245.253906 212.566406 245.074219 212.746094 C 244.894531 212.925781 244.6875 213.0625 244.453125 213.160156 C 244.21875 213.257812 243.972656 213.308594 243.71875 213.308594 C 243.464844 213.308594 243.222656 213.257812 242.988281 213.160156 C 242.753906 213.0625 242.546875 212.925781 242.367188 212.746094 C 242.1875 212.566406 242.050781 212.359375 241.953125 212.125 C 241.855469 211.890625 241.808594 211.648438 241.808594 211.394531 C 241.808594 211.140625 241.855469 210.898438 241.953125 210.664062 C 242.050781 210.429688 242.1875 210.222656 242.367188 210.042969 C 242.546875 209.863281 242.753906 209.726562 242.988281 209.628906 C 243.222656 209.53125 243.464844 209.480469 243.71875 209.480469 C 243.972656 209.480469 244.21875 209.53125 244.453125 209.628906 C 244.6875 209.726562 244.894531 209.863281 245.074219 210.042969 C 245.253906 210.222656 245.390625 210.429688 245.488281 210.664062 C 245.585938 210.898438 245.632812 211.140625 245.632812 211.394531 Z M 245.632812 211.394531 " fill-opacity="1" fill-rule="nonzero"/><path fill="#f18705" d="M 240.851562 213.308594 C 240.851562 213.65625 240.785156 213.992188 240.652344 214.3125 C 240.519531 214.636719 240.328125 214.921875 240.082031 215.167969 C 239.835938 215.414062 239.550781 215.605469 239.226562 215.738281 C 238.90625 215.871094 238.570312 215.9375 238.21875 215.9375 C 237.871094 215.9375 237.535156 215.871094 237.214844 215.738281 C 236.890625 215.605469 236.605469 215.414062 236.359375 215.167969 C 236.113281 214.921875 235.921875 214.636719 235.789062 214.3125 C 235.65625 213.992188 235.589844 213.65625 235.589844 213.308594 C 235.589844 212.957031 235.65625 212.621094 235.789062 212.300781 C 235.921875 211.976562 236.113281 211.691406 236.359375 211.445312 C 236.605469 211.199219 236.890625 211.011719 237.214844 210.875 C 237.535156 210.742188 237.871094 210.675781 238.21875 210.675781 C 238.570312 210.675781 238.90625 210.742188 239.226562 210.875 C 239.550781 211.011719 239.835938 211.199219 240.082031 211.445312 C 240.328125 211.691406 240.519531 211.976562 240.652344 212.300781 C 240.785156 212.621094 240.851562 212.957031 240.851562 213.308594 Z M 240.851562 213.308594 " fill-opacity="1" fill-rule="nonzero"/><path fill="#f5a501" d="M 240.132812 213.0625 C 240.132812 213.347656 240.078125 213.625 239.96875 213.886719 C 239.859375 214.148438 239.703125 214.382812 239.503906 214.585938 C 239.300781 214.785156 239.070312 214.941406 238.804688 215.050781 C 238.542969 215.160156 238.269531 215.214844 237.984375 215.214844 C 237.699219 215.214844 237.421875 215.160156 237.160156 215.050781 C 236.894531 214.941406 236.664062 214.785156 236.460938 214.585938 C 236.261719 214.382812 236.105469 214.148438 235.996094 213.886719 C 235.886719 213.625 235.832031 213.347656 235.832031 213.0625 C 235.832031 212.777344 235.886719 212.503906 235.996094 212.242188 C 236.105469 211.976562 236.261719 211.746094 236.460938 211.542969 C 236.664062 211.34375 236.894531 211.1875 237.160156 211.078125 C 237.421875 210.96875 237.699219 210.914062 237.984375 210.914062 C 238.269531 210.914062 238.542969 210.96875 238.804688 211.078125 C 239.070312 211.1875 239.300781 211.34375 239.503906 211.542969 C 239.703125 211.746094 239.859375 211.976562 239.96875 212.242188 C 240.078125 212.503906 240.132812 212.777344 240.132812 213.0625 Z M 240.132812 213.0625 " fill-opacity="1" fill-rule="nonzero"/><path fill="#f9bd00" d="M 239.652344 212.828125 C 239.652344 213.078125 239.605469 213.324219 239.507812 213.558594 C 239.410156 213.792969 239.269531 214 239.09375 214.179688 C 238.914062 214.359375 238.707031 214.496094 238.472656 214.59375 C 238.238281 214.691406 237.992188 214.738281 237.738281 214.738281 C 237.484375 214.738281 237.242188 214.691406 237.007812 214.59375 C 236.773438 214.496094 236.566406 214.359375 236.386719 214.179688 C 236.207031 214 236.070312 213.792969 235.972656 213.558594 C 235.875 213.324219 235.828125 213.078125 235.828125 212.828125 C 235.828125 212.574219 235.875 212.328125 235.972656 212.09375 C 236.070312 211.859375 236.207031 211.652344 236.386719 211.472656 C 236.566406 211.292969 236.773438 211.15625 237.007812 211.058594 C 237.242188 210.960938 237.484375 210.914062 237.738281 210.914062 C 237.992188 210.914062 238.238281 210.960938 238.472656 211.058594 C 238.707031 211.15625 238.914062 211.292969 239.09375 211.472656 C 239.269531 211.652344 239.410156 211.859375 239.507812 212.09375 C 239.605469 212.328125 239.652344 212.574219 239.652344 212.828125 Z M 239.652344 212.828125 " fill-opacity="1" fill-rule="nonzero"/><path fill="#c69297" d="M 247.15625 252.460938 C 235.449219 249.800781 221.179688 256.675781 217.777344 258.445312 C 217.675781 258.5 217.585938 258.550781 217.5 258.59375 C 217.1875 258.753906 217.019531 258.851562 217.019531 258.851562 L 214.632812 257.929688 L 214.277344 257.789062 L 194.195312 250.023438 L 192.324219 244.546875 C 197.613281 245.398438 207.324219 246.796875 211.851562 246.367188 C 218.242188 245.753906 222.808594 237.539062 227.371094 228.710938 C 229.355469 224.875 232.527344 222.328125 235.480469 220.675781 L 239.542969 231.449219 Z M 247.15625 252.460938 " fill-opacity="0.2" fill-rule="nonzero"/><path fill="#005aa2" d="M 248.285156 247.199219 C 235.605469 253.433594 231.25 247.9375 229.613281 242.40625 C 229.273438 241.261719 229.050781 240.109375 228.890625 239.066406 C 227.976562 232.976562 238.632812 231.460938 238.632812 231.460938 L 238.632812 231.15625 L 237.71875 226.59375 L 239.847656 227.808594 C 239.847656 227.808594 245.023438 230.769531 248.058594 234.90625 C 248.394531 235.367188 248.703125 235.839844 248.976562 236.328125 C 251.722656 241.199219 248.285156 247.199219 248.285156 247.199219 Z M 248.285156 247.199219 " fill-opacity="1" fill-rule="nonzero"/><path fill="#1e8fc6" d="M 241.613281 245.203125 C 235.234375 247.144531 231.65625 245.328125 229.613281 242.410156 C 229.273438 241.265625 229.050781 240.113281 228.890625 239.074219 C 227.976562 232.984375 238.632812 231.464844 238.632812 231.464844 L 238.632812 231.164062 L 237.71875 226.597656 L 239.847656 227.8125 C 239.847656 227.8125 245.023438 230.773438 248.058594 234.914062 C 248.0625 234.945312 248.070312 234.972656 248.074219 235 C 248.859375 239.515625 246 243.871094 241.613281 245.203125 Z M 241.613281 245.203125 " fill-opacity="1" fill-rule="nonzero"/><path fill="#f5a501" d="M 212.28125 276.808594 C 212.28125 277.722656 191.644531 263.113281 185.378906 269.503906 C 185.378906 269.503906 184.792969 268.429688 184.457031 266.730469 C 183.972656 264.28125 184 260.542969 187.019531 256.902344 C 188.121094 255.574219 189.855469 254.933594 191.558594 255.238281 C 196.707031 256.148438 208.1875 259.386719 211.855469 270.359375 C 211.855469 270.363281 211.855469 270.363281 211.855469 270.363281 C 211.964844 270.683594 212.0625 271.003906 212.152344 271.335938 C 212.152344 271.332031 212.28125 275.898438 212.28125 276.808594 Z M 212.28125 276.808594 " fill-opacity="1" fill-rule="nonzero"/><path fill="#f9bd00" d="M 211.980469 275.59375 C 211.980469 276.507812 191.339844 261.898438 185.074219 268.289062 C 185.074219 268.289062 184.761719 267.710938 184.464844 266.734375 C 184.355469 266.171875 184.269531 265.550781 184.242188 264.875 C 184.144531 262.585938 184.691406 259.722656 187.023438 256.90625 C 188.128906 255.578125 189.859375 254.941406 191.5625 255.242188 C 195.117188 255.875 201.703125 257.613281 206.636719 262.25 C 208.839844 264.324219 210.726562 266.972656 211.855469 270.363281 C 211.855469 270.371094 211.855469 270.371094 211.855469 270.371094 C 211.882812 271.328125 211.980469 274.8125 211.980469 275.59375 Z M 211.980469 275.59375 " fill-opacity="1" fill-rule="nonzero"/><path fill="#f5a501" d="M 245.027344 281.683594 C 245.027344 281.683594 244.378906 281.867188 244.113281 282.898438 C 243.941406 283.578125 243.203125 284.0625 243.203125 284.421875 C 243.203125 285.335938 219.460938 270.726562 212.152344 277.117188 C 212.152344 277.117188 211.800781 276.441406 211.386719 275.367188 C 210.246094 272.417969 208.640625 266.449219 212.578125 263.085938 C 214.167969 261.730469 216.308594 261.222656 218.359375 261.5625 C 223.648438 262.449219 237.578125 267.148438 245.027344 281.683594 Z M 245.027344 281.683594 " fill-opacity="1" fill-rule="nonzero"/><path fill="#f9bd00" d="M 244.417969 280.617188 C 244.066406 281.730469 242.828125 282.289062 241.765625 281.8125 C 234.925781 278.746094 217.847656 270.78125 211.386719 275.375 C 211.136719 274.730469 210.867188 273.945312 210.640625 273.078125 C 209.8125 269.949219 209.5 265.722656 212.578125 263.09375 C 214.167969 261.738281 216.308594 261.230469 218.359375 261.570312 C 223.109375 262.363281 234.332031 265.371094 241.964844 276.496094 C 242.835938 277.761719 243.65625 279.132812 244.417969 280.617188 Z M 244.417969 280.617188 " fill-opacity="1" fill-rule="nonzero"/><path fill="#f7d300" d="M 206.0625 270.117188 C 203.023438 270.117188 191.148438 265.25 187.191406 264.253906 C 185.738281 263.886719 184.820312 264.261719 184.238281 264.871094 C 184.183594 263.664062 184.3125 262.296875 184.789062 260.867188 C 185.210938 259.582031 185.910156 258.234375 187.019531 256.902344 C 188.121094 255.574219 189.855469 254.933594 191.558594 255.238281 C 194.539062 255.765625 199.65625 257.074219 204.136719 260.21875 C 204.996094 260.824219 205.835938 261.492188 206.632812 262.246094 C 209.03125 266.246094 209.109375 270.117188 206.0625 270.117188 Z M 206.0625 270.117188 " fill-opacity="1" fill-rule="nonzero"/><path fill="#f4f400" d="M 202.714844 266.464844 C 199.148438 266.648438 196.976562 264.367188 193.886719 262.8125 C 191.917969 261.816406 188.980469 260.816406 184.78125 260.867188 C 185.203125 259.582031 185.90625 258.234375 187.015625 256.902344 C 188.117188 255.574219 189.851562 254.933594 191.550781 255.238281 C 194.535156 255.765625 199.652344 257.074219 204.128906 260.21875 C 205.621094 262.335938 206.015625 264.445312 205.144531 265.546875 C 204.90625 265.859375 204.339844 266.382812 202.714844 266.464844 Z M 202.714844 266.464844 " fill-opacity="1" fill-rule="nonzero"/><path fill="#f7d300" d="M 241.980469 278.332031 C 241.371094 279.550781 234.375 276.207031 227.976562 274.070312 C 221.582031 271.9375 216.976562 271.632812 211.972656 272.855469 C 211.527344 272.964844 211.078125 273.035156 210.632812 273.070312 C 210.21875 271.492188 209.933594 269.636719 210.144531 267.851562 C 210.347656 266.089844 211.046875 264.390625 212.574219 263.085938 C 214.164062 261.730469 216.300781 261.222656 218.355469 261.5625 C 222.613281 262.277344 232.078125 264.769531 239.484375 273.296875 C 240.339844 274.28125 241.171875 275.347656 241.953125 276.496094 C 242.121094 277.257812 242.175781 277.949219 241.980469 278.332031 Z M 241.980469 278.332031 " fill-opacity="1" fill-rule="nonzero"/><path fill="#f4f400" d="M 239.488281 273.296875 C 236.957031 272.757812 231.839844 270.488281 227.0625 268.894531 C 220.671875 266.765625 216.0625 266.457031 211.0625 267.679688 C 210.753906 267.753906 210.449219 267.808594 210.144531 267.851562 C 210.347656 266.089844 211.046875 264.390625 212.574219 263.085938 C 214.164062 261.730469 216.300781 261.222656 218.355469 261.5625 C 222.617188 262.277344 232.082031 264.773438 239.488281 273.296875 Z M 239.488281 273.296875 " fill-opacity="1" fill-rule="nonzero"/><path fill="#dfbeb5" d="M 283.410156 193.285156 C 282.949219 193.445312 282.488281 193.601562 282.023438 193.753906 C 280.738281 194.171875 279.453125 194.582031 278.136719 194.960938 C 276.804688 195.328125 275.464844 195.683594 273.984375 195.933594 C 274.867188 194.695312 276.027344 193.777344 277.238281 192.988281 C 278.464844 192.210938 279.777344 191.589844 281.15625 191.132812 C 281.246094 191.101562 281.339844 191.074219 281.429688 191.046875 C 282.1875 191.695312 282.855469 192.441406 283.410156 193.285156 Z M 283.410156 193.285156 " fill-opacity="1" fill-rule="nonzero"/></svg>