<svg width="689" height="589" viewBox="0 0 689 589" fill="none" xmlns="http://www.w3.org/2000/svg">
<path d="M432.729 303.721C450.519 429.401 467.828 531.488 240.886 531.488C115.214 531.488 47.0246 338.324 56.9055 318.807C66.7865 299.291 117.271 306.15 98.5198 303.721C79.7683 301.292 46.1116 322.31 54.7662 284.778C63.4207 247.246 121.799 94.775 219.249 52.0807C294.923 18.9271 393.348 -1.46472 467.828 36.5676C629.38 119.063 414.939 178.042 432.729 303.721Z" fill="url(#paint0_linear_2_14)"/>
<path d="M194.11 131.331C197.928 131.331 201.893 132.138 206.005 133.754C210.117 135.369 214.082 137.499 217.9 140.142H217.68C221.498 142.785 224.435 146.383 226.491 150.936C228.547 155.488 229.575 160.702 229.575 166.576V196.755C229.575 208.65 225.61 217.535 217.68 223.409C213.862 226.199 209.897 228.402 205.785 230.017C201.82 231.486 197.928 232.22 194.11 232.22H146.088C142.27 232.22 138.305 231.486 134.193 230.017C130.228 228.402 126.336 226.199 122.518 223.409C114.588 217.535 110.623 208.65 110.623 196.755V182.216C110.623 175.314 114.955 171.863 123.619 171.863C132.431 171.863 136.836 175.314 136.836 182.216V194.992C136.836 198.811 137.938 202.262 140.141 205.346C142.343 208.43 146.162 209.972 151.595 209.972H188.603C194.036 209.972 197.855 208.43 200.057 205.346C202.26 202.262 203.362 198.811 203.362 194.992V168.338C203.362 164.667 202.26 161.289 200.057 158.205C197.855 154.974 194.036 153.359 188.603 153.359H146.088C138.452 153.359 130.595 150.569 122.518 144.988C114.588 138.82 110.623 129.936 110.623 118.334V92.1204C110.623 86.2462 111.651 81.1063 113.707 76.7006C115.763 72.1481 118.7 68.4767 122.518 65.6865H122.298C126.116 63.1899 130.081 61.134 134.193 59.5186C138.305 57.9031 142.27 57.0954 146.088 57.0954H194.11C197.928 57.0954 201.893 57.9031 206.005 59.5186C210.117 61.134 214.082 63.1899 217.9 65.6865H217.68C221.498 68.4767 224.435 72.1481 226.491 76.7006C228.547 81.1063 229.575 86.2462 229.575 92.1204V105.117C229.575 112.019 225.17 115.47 216.358 115.47C207.694 115.47 203.362 112.019 203.362 105.117V94.103C203.362 90.4316 202.26 87.0539 200.057 83.9699C197.855 80.886 194.036 79.344 188.603 79.344H151.595C146.162 79.344 142.343 80.886 140.141 83.9699C137.938 87.0539 136.836 90.4316 136.836 94.103V116.572C136.836 120.39 137.938 123.841 140.141 126.925C142.343 129.862 146.162 131.331 151.595 131.331H194.11Z" fill="white"/>
<ellipse cx="326.47" cy="159.135" rx="120.202" ry="125.106" fill="url(#paint1_radial_2_14)"/>
<path d="M434.405 52.7868C440.362 59.7296 442.983 69.2916 442.513 80.7611C442.042 92.2375 438.475 105.556 432.135 119.88C419.456 148.525 395.764 181.009 364.041 210.497C332.317 239.986 298.638 260.831 269.863 270.719C255.475 275.663 242.358 277.853 231.349 277.048C220.346 276.243 211.512 272.457 205.554 265.514C199.597 258.571 196.976 249.009 197.447 237.54C197.917 226.063 201.484 212.745 207.824 198.421C220.504 169.776 244.195 137.292 275.919 107.803C307.642 78.3148 341.321 57.4702 370.096 47.582C384.485 42.6373 397.601 40.4482 408.611 41.2531C419.613 42.0575 428.447 45.8441 434.405 52.7868Z" stroke="url(#paint2_linear_2_14)" stroke-width="2"/>
<path d="M402.438 144.122C340.894 179.653 292.813 159.135 303.391 198.669C237.005 198.669 206.267 228.229 206.267 159.135C206.267 90.0409 260.084 34.0289 326.47 34.0289C392.856 34.0289 414.939 74.0629 402.438 144.122Z" fill="url(#paint3_radial_2_14)"/>
<ellipse cx="428.882" cy="45.5387" rx="11.0586" ry="11.5098" fill="url(#paint4_diamond_2_14)"/>
<path d="M306.31 167.25C303.813 167.25 301.83 166.296 300.362 164.387C299.04 162.331 298.379 159.614 298.379 156.236C298.379 148.747 301.463 145.002 307.631 145.002H330.981C336.415 145.002 340.233 143.46 342.436 140.376C344.786 137.292 345.96 133.914 345.96 130.243V94.1165C345.96 90.4452 344.786 87.0675 342.436 83.9835C340.233 80.8996 336.415 79.3576 330.981 79.3576H284.722V223.202C284.722 230.251 280.316 233.776 271.505 233.776C262.987 233.776 258.728 230.251 258.728 223.202V70.326C258.728 65.0392 260.05 61.5147 262.694 59.7524C265.337 57.9902 268.568 57.109 272.386 57.109H336.709C340.38 57.109 344.272 57.9167 348.384 59.5321C352.496 61.1475 356.461 63.2035 360.279 65.7H360.059C363.877 68.4903 366.814 72.1617 368.87 76.7142C370.926 81.1199 371.954 86.2598 371.954 92.134V132.005C371.954 143.9 367.989 152.785 360.059 158.659C356.24 161.45 352.349 163.579 348.384 165.048C344.418 166.516 340.527 167.25 336.709 167.25H306.31Z" fill="white"/>
<path d="M457.801 78.6967L409.559 226.727V226.507C408.677 228.709 407.429 230.545 405.814 232.014C404.345 233.335 402.51 233.996 400.307 233.996C399.132 233.996 397.957 233.849 396.782 233.556C395.754 233.409 394.653 233.188 393.478 232.895H393.698C385.327 230.251 382.244 225.552 384.446 218.797L434.671 66.1406C435.405 63.7909 436.653 61.8084 438.416 60.193C440.325 58.5776 442.528 57.623 445.024 57.3293C447.521 56.8887 449.944 56.595 452.293 56.4482C454.643 56.1545 456.479 56.0076 457.801 56.0076C459.122 56.0076 460.958 56.1545 463.308 56.4482C465.657 56.595 468.08 56.8153 470.577 57.109C472.633 57.4027 474.615 58.5041 476.525 60.4133C478.581 62.3224 480.123 64.2315 481.151 66.1406C489.374 91.3997 497.672 116.879 506.042 142.579C514.56 168.132 522.931 193.538 531.155 218.797C533.211 225.552 530.127 230.251 521.903 232.895C520.728 233.188 519.627 233.409 518.599 233.556C517.717 233.849 516.689 233.996 515.515 233.996C513.459 233.996 511.55 233.335 509.787 232.014C508.172 230.545 506.997 228.709 506.263 226.507V226.727L457.801 78.6967ZM474.322 179.146C474.322 183.845 472.633 187.884 469.255 191.261C466.024 194.492 462.059 196.107 457.36 196.107C452.661 196.107 448.696 194.492 445.465 191.261C442.234 187.884 440.618 183.845 440.618 179.146C440.618 174.446 442.234 170.481 445.465 167.25C448.696 163.873 452.661 162.184 457.36 162.184C462.059 162.184 466.024 163.873 469.255 167.25C472.633 170.481 474.322 174.446 474.322 179.146Z" fill="white"/>
<path d="M222.42 412.952C222.42 424.847 218.455 433.732 210.525 439.606C206.706 442.396 202.741 444.599 198.629 446.215C194.664 447.683 190.773 448.417 186.954 448.417H138.933C135.115 448.417 131.149 447.683 127.037 446.215C123.072 444.599 119.181 442.396 115.362 439.606C111.544 436.669 108.607 433.071 106.551 428.812C104.495 424.407 103.467 419.12 103.467 412.952V308.318C103.467 302.443 104.495 297.303 106.551 292.898C108.607 288.345 111.544 284.674 115.362 281.884H115.142C118.96 279.387 122.926 277.331 127.037 275.716C131.149 274.1 135.115 273.293 138.933 273.293H186.954C190.773 273.293 194.738 274.1 198.85 275.716C202.962 277.331 206.927 279.387 210.745 281.884H210.525C214.343 284.674 217.28 288.345 219.336 292.898C221.392 297.303 222.42 302.443 222.42 308.318V323.517C222.42 330.566 218.014 334.091 209.203 334.091C200.539 334.091 196.206 330.566 196.206 323.517V310.3C196.206 306.629 195.105 303.251 192.902 300.167C190.699 297.083 186.881 295.541 181.447 295.541H144.44C139.006 295.541 135.188 297.083 132.985 300.167C130.782 303.251 129.681 306.629 129.681 310.3V411.19C129.681 415.008 130.782 418.459 132.985 421.543C135.188 424.627 139.006 426.169 144.44 426.169H181.447C186.881 426.169 190.699 424.627 192.902 421.543C195.105 418.459 196.206 415.008 196.206 411.19V398.413C196.206 391.511 200.539 388.06 209.203 388.06C218.014 388.06 222.42 391.511 222.42 398.413V412.952Z" fill="white"/>
<path d="M262.99 448.417C257.556 448.417 253.885 447.022 251.976 444.232C250.067 441.442 249.112 438.358 249.112 434.98V286.51C249.112 283.132 250.067 280.121 251.976 277.478C253.885 274.688 257.556 273.293 262.99 273.293H339.648C345.082 273.293 347.946 276.964 348.24 284.307C348.533 291.796 345.67 295.541 339.648 295.541H275.106V426.169H343.614C349.047 426.169 351.837 429.767 351.984 436.963C352.278 444.599 349.488 448.417 343.614 448.417H262.99ZM331.498 357.22C331.498 362.36 329.662 366.692 325.991 370.217C322.466 373.742 318.134 375.504 312.994 375.504C308.001 375.504 303.742 373.742 300.218 370.217C296.693 366.692 294.931 362.36 294.931 357.22C294.931 352.08 296.693 347.748 300.218 344.224C303.742 340.699 308.001 338.937 312.994 338.937C318.134 338.937 322.466 340.699 325.991 344.224C329.662 347.748 331.498 352.08 331.498 357.22Z" fill="white"/>
<ellipse cx="76.1975" cy="98.2277" rx="76.1975" ry="98.2277" transform="matrix(0.904022 0.427485 -0.400069 0.916485 551.232 262.223)" fill="#257CC0"/>
<ellipse cx="531.294" cy="350.297" rx="44.2345" ry="46.0391" fill="url(#paint5_diamond_2_14)"/>
<defs>
<linearGradient id="paint0_linear_2_14" x1="53.3699" y1="274.233" x2="528.41" y2="274.233" gradientUnits="userSpaceOnUse">
<stop stop-color="#7DA3DB"/>
<stop offset="1" stop-color="#257CC0"/>
</linearGradient>
<radialGradient id="paint1_radial_2_14" cx="0" cy="0" r="1" gradientUnits="userSpaceOnUse" gradientTransform="translate(412.535 245.208) rotate(-137.566) scale(241.038 242.093)">
<stop stop-color="#F03CAF"/>
<stop offset="1" stop-color="#257CC0"/>
</radialGradient>
<linearGradient id="paint2_linear_2_14" x1="428.578" y1="49.6109" x2="197.87" y2="261.452" gradientUnits="userSpaceOnUse">
<stop stop-color="#07D1DF"/>
<stop offset="1" stop-color="#1BFFAD" stop-opacity="0.27"/>
</linearGradient>
<radialGradient id="paint3_radial_2_14" cx="0" cy="0" r="1" gradientUnits="userSpaceOnUse" gradientTransform="translate(412.535 245.208) rotate(-137.566) scale(241.038 242.093)">
<stop stop-color="#F03CAF"/>
<stop offset="1" stop-color="#257CC0"/>
</radialGradient>
<radialGradient id="paint4_diamond_2_14" cx="0" cy="0" r="1" gradientUnits="userSpaceOnUse" gradientTransform="translate(432.729 34.0289) rotate(100.646) scale(23.4227 22.5686)">
<stop stop-color="#2DB5E7"/>
<stop offset="1" stop-color="#34E5D3"/>
</radialGradient>
<radialGradient id="paint5_diamond_2_14" cx="0" cy="0" r="1" gradientUnits="userSpaceOnUse" gradientTransform="translate(546.68 304.258) rotate(100.646) scale(93.6909 90.2743)">
<stop stop-color="#2DB5E7"/>
<stop offset="1" stop-color="#34E5D3"/>
</radialGradient>
</defs>
</svg>
