<svg xmlns="http://www.w3.org/2000/svg" xmlns:xlink="http://www.w3.org/1999/xlink" width="100" zoomAndPan="magnify" viewBox="0 0 75 74.999997" height="100" preserveAspectRatio="xMidYMid meet" version="1.0"><path fill="#fd6300" d="M 69.140625 37.5 C 69.140625 54.972656 54.972656 69.140625 37.5 69.140625 C 20.027344 69.140625 5.859375 54.972656 5.859375 37.5 C 5.859375 20.027344 20.027344 5.859375 37.5 5.859375 C 54.972656 5.859375 69.140625 20.027344 69.140625 37.5 Z M 69.140625 37.5 " fill-opacity="1" fill-rule="nonzero"/><path fill="#ffbd59" d="M 56.25 37.5 C 56.25 47.855469 47.855469 56.25 37.5 56.25 C 27.144531 56.25 18.75 47.855469 18.75 37.5 C 18.75 27.144531 27.144531 18.75 37.5 18.75 C 47.855469 18.75 56.25 27.144531 56.25 37.5 Z M 56.25 37.5 " fill-opacity="1" fill-rule="nonzero"/><path fill="#ffde59" d="M 22.265625 15.234375 C 22.265625 15.234375 14.0625 15.234375 14.0625 24.609375 C 14.0625 15.234375 5.859375 15.234375 5.859375 15.234375 C 5.859375 15.234375 14.0625 15.234375 14.0625 5.859375 C 14.0625 15.234375 22.265625 15.234375 22.265625 15.234375 Z M 22.265625 15.234375 " fill-opacity="1" fill-rule="nonzero"/><path fill="#ffde59" d="M 22.265625 59.765625 C 22.265625 59.765625 14.0625 59.765625 14.0625 69.140625 C 14.0625 59.765625 5.859375 59.765625 5.859375 59.765625 C 5.859375 59.765625 14.0625 59.765625 14.0625 50.390625 C 14.0625 59.765625 22.265625 59.765625 22.265625 59.765625 Z M 22.265625 59.765625 " fill-opacity="1" fill-rule="nonzero"/><path fill="#ffde59" d="M 69.140625 15.234375 C 69.140625 15.234375 60.9375 15.234375 60.9375 24.609375 C 60.9375 15.234375 52.734375 15.234375 52.734375 15.234375 C 52.734375 15.234375 60.9375 15.234375 60.9375 5.859375 C 60.9375 15.234375 69.140625 15.234375 69.140625 15.234375 Z M 69.140625 15.234375 " fill-opacity="1" fill-rule="nonzero"/><path fill="#ffde59" d="M 69.140625 59.765625 C 69.140625 59.765625 60.9375 59.765625 60.9375 69.140625 C 60.9375 59.765625 52.734375 59.765625 52.734375 59.765625 C 52.734375 59.765625 60.9375 59.765625 60.9375 50.390625 C 60.9375 59.765625 69.140625 59.765625 69.140625 59.765625 Z M 69.140625 59.765625 " fill-opacity="1" fill-rule="nonzero"/><path fill="#ffbd59" d="M 42.1875 4.6875 L 38.671875 4.6875 L 38.671875 1.171875 C 38.671875 0.523438 38.148438 0 37.5 0 C 36.851562 0 36.328125 0.523438 36.328125 1.171875 L 36.328125 4.6875 L 32.8125 4.6875 C 32.164062 4.6875 31.640625 5.210938 31.640625 5.859375 C 31.640625 6.507812 32.164062 7.03125 32.8125 7.03125 L 36.328125 7.03125 L 36.328125 10.546875 C 36.328125 11.195312 36.851562 11.71875 37.5 11.71875 C 38.148438 11.71875 38.671875 11.195312 38.671875 10.546875 L 38.671875 7.03125 L 42.1875 7.03125 C 42.835938 7.03125 43.359375 6.507812 43.359375 5.859375 C 43.359375 5.210938 42.835938 4.6875 42.1875 4.6875 Z M 42.1875 4.6875 " fill-opacity="1" fill-rule="nonzero"/><path fill="#ffbd59" d="M 42.1875 67.96875 L 38.671875 67.96875 L 38.671875 64.453125 C 38.671875 63.804688 38.148438 63.28125 37.5 63.28125 C 36.851562 63.28125 36.328125 63.804688 36.328125 64.453125 L 36.328125 67.96875 L 32.8125 67.96875 C 32.164062 67.96875 31.640625 68.492188 31.640625 69.140625 C 31.640625 69.789062 32.164062 70.3125 32.8125 70.3125 L 36.328125 70.3125 L 36.328125 73.828125 C 36.328125 74.476562 36.851562 75 37.5 75 C 38.148438 75 38.671875 74.476562 38.671875 73.828125 L 38.671875 70.3125 L 42.1875 70.3125 C 42.835938 70.3125 43.359375 69.789062 43.359375 69.140625 C 43.359375 68.492188 42.835938 67.96875 42.1875 67.96875 Z M 42.1875 67.96875 " fill-opacity="1" fill-rule="nonzero"/><path fill="#ffbd59" d="M 73.828125 36.328125 L 70.3125 36.328125 L 70.3125 32.8125 C 70.3125 32.164062 69.789062 31.640625 69.140625 31.640625 C 68.492188 31.640625 67.96875 32.164062 67.96875 32.8125 L 67.96875 36.328125 L 64.453125 36.328125 C 63.804688 36.328125 63.28125 36.851562 63.28125 37.5 C 63.28125 38.148438 63.804688 38.671875 64.453125 38.671875 L 67.96875 38.671875 L 67.96875 42.1875 C 67.96875 42.835938 68.492188 43.359375 69.140625 43.359375 C 69.789062 43.359375 70.3125 42.835938 70.3125 42.1875 L 70.3125 38.671875 L 73.828125 38.671875 C 74.476562 38.671875 75 38.148438 75 37.5 C 75 36.851562 74.476562 36.328125 73.828125 36.328125 Z M 73.828125 36.328125 " fill-opacity="1" fill-rule="nonzero"/><path fill="#ffbd59" d="M 10.546875 36.328125 L 7.03125 36.328125 L 7.03125 32.8125 C 7.03125 32.164062 6.507812 31.640625 5.859375 31.640625 C 5.210938 31.640625 4.6875 32.164062 4.6875 32.8125 L 4.6875 36.328125 L 1.171875 36.328125 C 0.523438 36.328125 0 36.851562 0 37.5 C 0 38.148438 0.523438 38.671875 1.171875 38.671875 L 4.6875 38.671875 L 4.6875 42.1875 C 4.6875 42.835938 5.210938 43.359375 5.859375 43.359375 C 6.507812 43.359375 7.03125 42.835938 7.03125 42.1875 L 7.03125 38.671875 L 10.546875 38.671875 C 11.195312 38.671875 11.71875 38.148438 11.71875 37.5 C 11.71875 36.851562 11.195312 36.328125 10.546875 36.328125 Z M 10.546875 36.328125 " fill-opacity="1" fill-rule="nonzero"/><path fill="#fd6300" d="M 56.25 36.328125 C 56.207031 36.328125 51.789062 36.304688 47.398438 34.109375 C 46.820312 33.820312 46.117188 34.054688 45.828125 34.632812 C 45.539062 35.210938 45.773438 35.914062 46.351562 36.203125 C 47.4375 36.746094 48.519531 37.167969 49.546875 37.5 C 43.710938 39.371094 39.433594 43.160156 37.5 48.734375 C 35.644531 43.386719 31.535156 39.453125 25.453125 37.5 C 31.273438 35.632812 35.558594 31.851562 37.5 26.269531 C 37.953125 27.582031 38.539062 28.804688 39.253906 29.929688 C 39.601562 30.476562 40.324219 30.640625 40.871094 30.292969 C 41.417969 29.945312 41.578125 29.222656 41.230469 28.675781 C 39.535156 26 38.671875 22.660156 38.671875 18.75 C 38.671875 18.101562 38.148438 17.578125 37.5 17.578125 C 36.851562 17.578125 36.328125 18.101562 36.328125 18.75 C 36.328125 26.015625 33.414062 31.167969 27.671875 34.074219 C 23.148438 36.359375 18.75 36.320312 18.734375 36.328125 C 18.113281 36.328125 17.578125 36.847656 17.578125 37.5 C 17.578125 38.144531 18.101562 38.671875 18.746094 38.671875 C 21.054688 38.671875 24.792969 39.472656 27.671875 40.925781 C 33.414062 43.832031 36.328125 48.984375 36.328125 56.25 C 36.328125 56.898438 36.851562 57.421875 37.5 57.421875 C 38.148438 57.421875 38.671875 56.898438 38.671875 56.25 C 38.671875 48.984375 41.585938 43.832031 47.328125 40.925781 C 51.71875 38.710938 56.207031 38.671875 56.25 38.671875 C 56.898438 38.671875 57.421875 38.148438 57.421875 37.5 C 57.421875 36.851562 56.898438 36.328125 56.25 36.328125 Z M 56.25 36.328125 " fill-opacity="1" fill-rule="nonzero"/><path fill="#fd6300" d="M 43.359375 33.984375 C 44.019531 33.984375 44.53125 33.445312 44.53125 32.8125 C 44.53125 32.164062 44.007812 31.640625 43.359375 31.640625 C 42.710938 31.640625 42.1875 32.164062 42.1875 32.8125 C 42.1875 33.445312 42.699219 33.984375 43.359375 33.984375 Z M 43.359375 33.984375 " fill-opacity="1" fill-rule="nonzero"/></svg>